<svg xmlns="http://www.w3.org/2000/svg" xmlns:xlink="http://www.w3.org/1999/xlink" contentStyleType="text/css" data-diagram-type="DESCRIPTION" height="942px" preserveAspectRatio="none" style="width:1147px;height:942px;background:#FFFFFF;" version="1.1" viewBox="0 0 1147 942" width="1147px" zoomAndPan="magnify"><?plantuml 1.2026.4?><defs/><g><g class="title" data-source-line="10"><text fill="#000000" font-family="monospace" font-size="22" font-weight="700" lengthAdjust="spacing" textLength="635.7656" x="254.6872" y="41.4209">Read&#160;scaling&#160;with&#160;replicas&#160;(pgauthzd&#160;front&#160;door)</text></g><rect fill="#FFFFCC" height="16.6406" rx="2.5" ry="2.5" style="stroke:#FFDD88;stroke-width:3;" width="1126.14" x="8" y="66.6094"/><text fill="#000000" font-family="monospace" font-size="10" lengthAdjust="spacing" textLength="295.0049" x="15" y="77.25">Please&#160;use&#160;CSS&#160;style&#160;instead&#160;of&#160;skinparam&#160;padding</text><!--cluster vm1--><g class="cluster" data-qualified-name="vm1" data-source-line="16" id="ent0003"><polygon fill="#FFFFFF" points="576.14,386.85,586.14,376.85,1122.14,376.85,1122.14,700.33,1112.14,710.33,576.14,710.33,576.14,386.85" style="stroke:#000000;stroke-width:1;stroke-linejoin:miter;stroke-miterlimit:10;"/><line style="stroke:#000000;stroke-width:1;" x1="1112.14" x2="1122.14" y1="386.85" y2="376.85"/><line style="stroke:#000000;stroke-width:1;" x1="576.14" x2="1112.14" y1="386.85" y2="386.85"/><line style="stroke:#000000;stroke-width:1;" x1="1112.14" x2="1112.14" y1="386.85" y2="710.33"/><text fill="#000000" font-family="monospace" font-size="14" font-weight="700" lengthAdjust="spacing" textLength="92.7158" x="798.7821" y="408.8451">VM&#160;1&#160;(read)</text></g><!--cluster vm2--><g class="cluster" data-qualified-name="vm2" data-source-line="22" id="ent0007"><polygon fill="#FFFFFF" points="229.14,386.85,239.14,376.85,552.14,376.85,552.14,700.33,542.14,710.33,229.14,710.33,229.14,386.85" style="stroke:#000000;stroke-width:1;stroke-linejoin:miter;stroke-miterlimit:10;"/><line style="stroke:#000000;stroke-width:1;" x1="542.14" x2="552.14" y1="386.85" y2="376.85"/><line style="stroke:#000000;stroke-width:1;" x1="229.14" x2="542.14" y1="386.85" y2="386.85"/><line style="stroke:#000000;stroke-width:1;" x1="542.14" x2="542.14" y1="386.85" y2="710.33"/><text fill="#000000" font-family="monospace" font-size="14" font-weight="700" lengthAdjust="spacing" textLength="92.7158" x="340.2821" y="408.8451">VM&#160;2&#160;(read)</text></g><!--entity pgd3a--><g class="entity" data-qualified-name="vm1.pgd3a" data-source-line="17" id="ent0004"><rect fill="#98FB98" height="80.8906" rx="2.5" ry="2.5" style="stroke:#000000;stroke-width:1;" width="158.4307" x="646.93" y="464.85"/><text fill="#000000" font-family="monospace" font-size="14" lengthAdjust="spacing" textLength="67.4297" x="662.93" y="493.8451">pgauthzd</text><text fill="#000000" font-family="monospace" font-size="14" lengthAdjust="spacing" textLength="126.4307" x="662.93" y="510.142">(decision-only,</text><text fill="#000000" font-family="monospace" font-size="14" lengthAdjust="spacing" textLength="84.2871" x="662.93" y="526.4389">&#177;&#160;OPA_URL)</text></g><!--entity opa3a--><g class="entity" data-qualified-name="vm1.opa3a" data-source-line="18" id="ent0005"><rect fill="#ADD8E6" height="64.5938" rx="2.5" ry="2.5" style="stroke:#000000;stroke-width:1;" width="124.7158" x="835.79" y="629.74"/><text fill="#000000" font-family="monospace" font-size="14" lengthAdjust="spacing" textLength="92.7158" x="851.79" y="658.7351">OPA&#160;sidecar</text><text fill="#000000" font-family="monospace" font-size="14" lengthAdjust="spacing" textLength="67.4297" x="851.79" y="675.032">(opt-in)</text></g><!--entity pgr3a--><g class="entity" data-qualified-name="vm1.pgr3a" data-source-line="19" id="ent0006"><path d="M592,643.38 C592,633.38 650.1436,633.38 650.1436,633.38 C650.1436,633.38 708.2871,633.38 708.2871,643.38 L708.2871,680.6769 C708.2871,690.6769 650.1436,690.6769 650.1436,690.6769 C650.1436,690.6769 592,690.6769 592,680.6769 L592,643.38" fill="#FFFFE0" style="stroke:#000000;stroke-width:1;"/><path d="M592,643.38 C592,653.38 650.1436,653.38 650.1436,653.38 C650.1436,653.38 708.2871,653.38 708.2871,643.38" fill="none" style="stroke:#000000;stroke-width:1;"/><text fill="#000000" font-family="monospace" font-size="14" lengthAdjust="spacing" textLength="84.2871" x="608" y="676.3751">PG&#160;Replica</text></g><!--entity pgd3b--><g class="entity" data-qualified-name="vm2.pgd3b" data-source-line="23" id="ent0008"><rect fill="#98FB98" height="80.8906" rx="2.5" ry="2.5" style="stroke:#000000;stroke-width:1;" width="158.4307" x="377.93" y="464.85"/><text fill="#000000" font-family="monospace" font-size="14" lengthAdjust="spacing" textLength="67.4297" x="393.93" y="493.8451">pgauthzd</text><text fill="#000000" font-family="monospace" font-size="14" lengthAdjust="spacing" textLength="126.4307" x="393.93" y="510.142">(decision-only,</text><text fill="#000000" font-family="monospace" font-size="14" lengthAdjust="spacing" textLength="84.2871" x="393.93" y="526.4389">&#177;&#160;OPA_URL)</text></g><!--entity opa3b--><g class="entity" data-qualified-name="vm2.opa3b" data-source-line="24" id="ent0009"><rect fill="#ADD8E6" height="64.5938" rx="2.5" ry="2.5" style="stroke:#000000;stroke-width:1;" width="124.7158" x="411.79" y="629.74"/><text fill="#000000" font-family="monospace" font-size="14" lengthAdjust="spacing" textLength="92.7158" x="427.79" y="658.7351">OPA&#160;sidecar</text><text fill="#000000" font-family="monospace" font-size="14" lengthAdjust="spacing" textLength="67.4297" x="427.79" y="675.032">(opt-in)</text></g><!--entity pgr3b--><g class="entity" data-qualified-name="vm2.pgr3b" data-source-line="25" id="ent0010"><path d="M245,643.38 C245,633.38 303.1436,633.38 303.1436,633.38 C303.1436,633.38 361.2871,633.38 361.2871,643.38 L361.2871,680.6769 C361.2871,690.6769 303.1436,690.6769 303.1436,690.6769 C303.1436,690.6769 245,690.6769 245,680.6769 L245,643.38" fill="#FFFFE0" style="stroke:#000000;stroke-width:1;"/><path d="M245,643.38 C245,653.38 303.1436,653.38 303.1436,653.38 C303.1436,653.38 361.2871,653.38 361.2871,643.38" fill="none" style="stroke:#000000;stroke-width:1;"/><text fill="#000000" font-family="monospace" font-size="14" lengthAdjust="spacing" textLength="84.2871" x="261" y="676.3751">PG&#160;Replica</text></g><!--entity app3--><g class="entity" data-qualified-name="app3" data-source-line="12" id="ent0001"><ellipse cx="168.1479" cy="99.25" fill="#FFFFFF" rx="8" ry="8" style="stroke:#000000;stroke-width:1;"/><path d="M168.1479,107.25 L168.1479,134.25 M155.1479,115.25 L181.1479,115.25 M168.1479,134.25 L155.1479,149.25 M168.1479,134.25 L181.1479,149.25" fill="none" style="stroke:#000000;stroke-width:1;"/><text fill="#000000" font-family="monospace" font-size="14" lengthAdjust="spacing" textLength="92.7158" x="121.79" y="170.2451">Application</text></g><!--entity lb--><g class="entity" data-qualified-name="lb" data-source-line="14" id="ent0002"><rect fill="#DDA0DD" height="48.2969" rx="2.5" ry="2.5" style="stroke:#000000;stroke-width:1;" width="141.5732" x="386.36" y="248.55"/><text fill="#000000" font-family="monospace" font-size="14" lengthAdjust="spacing" textLength="109.5732" x="402.36" y="277.5451">Load&#160;Balancer</text></g><!--entity pgp3--><g class="entity" data-qualified-name="pgp3" data-source-line="28" id="ent0011"><path d="M11,643.38 C11,633.38 69.1436,633.38 69.1436,633.38 C69.1436,633.38 127.2871,633.38 127.2871,643.38 L127.2871,680.6769 C127.2871,690.6769 69.1436,690.6769 69.1436,690.6769 C69.1436,690.6769 11,690.6769 11,680.6769 L11,643.38" fill="#FFA500" style="stroke:#000000;stroke-width:1;"/><path d="M11,643.38 C11,653.38 69.1436,653.38 69.1436,653.38 C69.1436,653.38 127.2871,653.38 127.2871,643.38" fill="none" style="stroke:#000000;stroke-width:1;"/><text fill="#000000" font-family="monospace" font-size="14" lengthAdjust="spacing" textLength="84.2871" x="27" y="676.3751">PG&#160;Primary</text></g><!--link app3 to lb--><g class="link" data-entity-1="ent0001" data-entity-2="ent0002" data-link-type="dependency" data-source-line="35" id="lnk12"><path d="M220.81,160.65 C273.89,185.59 350.6646,221.6638 402.7246,246.1238" fill="none" id="app3-to-lb" style="stroke:#000000;stroke-width:1;"/><polygon fill="#000000" points="407.25,248.25,400.8053,240.8025,402.7246,246.1238,397.4033,248.0431,407.25,248.25" style="stroke:#000000;stroke-width:1;stroke-linejoin:miter;stroke-miterlimit:10;"/><text fill="#000000" font-family="monospace" font-size="13" lengthAdjust="spacing" textLength="93.9199" x="370.66" y="218.6169">authz&#160;checks</text></g><!--link lb to pgd3a--><g class="link" data-entity-1="ent0002" data-entity-2="ent0004" data-link-type="dependency" data-source-line="36" id="lnk13"><path d="M484.67,297.29 C530.6,336.66 619.5639,412.9259 675.8039,461.1359" fill="none" id="lb-to-pgd3a" style="stroke:#000000;stroke-width:1;"/><polygon fill="#000000" points="679.6,464.39,675.3702,455.4957,675.8039,461.1359,670.1636,461.5695,679.6,464.39" style="stroke:#000000;stroke-width:1;stroke-linejoin:miter;stroke-miterlimit:10;"/><text fill="#000000" font-family="monospace" font-size="13" lengthAdjust="spacing" textLength="156.5332" x="558.83" y="343.4169">AuthZEN&#160;+&#160;native&#160;API</text></g><!--link lb to pgd3b--><g class="link" data-entity-1="ent0002" data-entity-2="ent0008" data-link-type="dependency" data-source-line="37" id="lnk14"><path d="M457.14,297.08 C457.14,336.46 457.14,411.46 457.14,459.72" fill="none" id="lb-to-pgd3b" style="stroke:#000000;stroke-width:1;"/><polygon fill="#000000" points="457.14,464.72,461.14,455.72,457.14,459.72,453.14,455.72,457.14,464.72" style="stroke:#000000;stroke-width:1;stroke-linejoin:miter;stroke-miterlimit:10;"/></g><!--link pgd3a to opa3a--><g class="link" data-entity-1="ent0004" data-entity-2="ent0005" data-link-type="dependency" data-source-line="38" id="lnk15"><path d="M736.86,546.12 C744.32,567.34 756.21,592.54 774.14,609.74 C791.13,626.02 809.3142,635.7225 830.8042,643.5825" fill="none" id="pgd3a-to-opa3a" style="stroke:#000000;stroke-width:1;stroke-dasharray:7,7;"/><polygon fill="#000000" points="835.5,645.3,828.4216,638.4519,830.8042,643.5825,825.6736,645.9651,835.5,645.3" style="stroke:#000000;stroke-width:1;stroke-linejoin:miter;stroke-miterlimit:10;"/><text fill="#000000" font-family="monospace" font-size="13" lengthAdjust="spacing" textLength="109.5732" x="788.9667" y="584.8069">consult&#160;policy</text><text fill="#000000" font-family="monospace" font-size="13" lengthAdjust="spacing" textLength="125.2266" x="781.14" y="599.9397">(if&#160;OPA_URL&#160;set)</text></g><!--link opa3a to pgd3a--><g class="link" data-entity-1="ent0005" data-entity-2="ent0004" data-link-type="dependency" data-source-line="39" id="lnk16"><path d="M917.87,629.66 C927.67,609.69 934.82,584.2 921.14,565.74 C894.6,529.9 851.8995,515.6488 810.3495,509.6988" fill="none" id="opa3a-to-pgd3a" style="stroke:#000000;stroke-width:1;stroke-dasharray:7,7;"/><polygon fill="#000000" points="805.4,508.99,813.7421,514.2254,810.3495,509.6988,814.8761,506.3062,805.4,508.99" style="stroke:#000000;stroke-width:1;stroke-linejoin:miter;stroke-miterlimit:10;"/><text fill="#000000" font-family="monospace" font-size="13" lengthAdjust="spacing" textLength="117.3999" x="935.71" y="592.3069">native&#160;callback</text></g><!--link pgd3b to opa3b--><g class="link" data-entity-1="ent0008" data-entity-2="ent0009" data-link-type="dependency" data-source-line="40" id="lnk17"><path d="M444.89,546.14 C444.56,572.11 447.3032,600.6992 453.9332,624.7892" fill="none" id="pgd3b-to-opa3b" style="stroke:#000000;stroke-width:1;stroke-dasharray:7,7;"/><polygon fill="#000000" points="455.26,629.61,456.7284,619.8712,453.9332,624.7892,449.0152,621.994,455.26,629.61" style="stroke:#000000;stroke-width:1;stroke-linejoin:miter;stroke-miterlimit:10;"/></g><!--link opa3b to pgd3b--><g class="link" data-entity-1="ent0009" data-entity-2="ent0008" data-link-type="dependency" data-source-line="41" id="lnk18"><path d="M486.12,629.61 C487.46,605.52 485.3209,576.9804 479.2909,551.0104" fill="none" id="opa3b-to-pgd3b" style="stroke:#000000;stroke-width:1;stroke-dasharray:7,7;"/><polygon fill="#000000" points="478.16,546.14,476.2992,555.8115,479.2909,551.0104,484.0919,554.0021,478.16,546.14" style="stroke:#000000;stroke-width:1;stroke-linejoin:miter;stroke-miterlimit:10;"/></g><!--link pgd3a to pgr3a--><g class="link" data-entity-1="ent0004" data-entity-2="ent0006" data-link-type="dependency" data-source-line="42" id="lnk19"><path d="M650.42,546.05 C644.38,551.89 639.1,558.43 635.14,565.74 C623.9,586.5 627.8607,608.6123 635.2407,628.5023" fill="none" id="pgd3a-to-pgr3a" style="stroke:#000000;stroke-width:1;"/><polygon fill="#000000" points="636.98,633.19,637.5994,623.3606,635.2407,628.5023,630.099,626.1436,636.98,633.19" style="stroke:#000000;stroke-width:1;stroke-linejoin:miter;stroke-miterlimit:10;"/><text fill="#000000" font-family="monospace" font-size="13" lengthAdjust="spacing" textLength="70.4399" x="642.14" y="592.3069">SQL&#160;(pgx)</text></g><!--link pgd3b to pgr3b--><g class="link" data-entity-1="ent0008" data-entity-2="ent0010" data-link-type="dependency" data-source-line="43" id="lnk20"><path d="M377.65,535.41 C363.1,543.5 349.07,553.52 338.14,565.74 C321.22,584.65 313.3452,607.5592 308.7452,628.2492" fill="none" id="pgd3b-to-pgr3b" style="stroke:#000000;stroke-width:1;"/><polygon fill="#000000" points="307.66,633.13,313.5179,625.2126,308.7452,628.2492,305.7086,623.4764,307.66,633.13" style="stroke:#000000;stroke-width:1;stroke-linejoin:miter;stroke-miterlimit:10;"/></g><!--link app3 to pgp3--><g class="link" data-entity-1="ent0001" data-entity-2="ent0011" data-link-type="dependency" data-source-line="48" id="lnk21"><path d="M159.87,179.77 C140.12,284.53 91.5767,542.0666 75.3267,628.2266" fill="none" id="app3-to-pgp3" style="stroke:#000000;stroke-width:1;"/><polygon fill="#000000" points="74.4,633.14,79.9987,625.0373,75.3267,628.2266,72.1373,623.5546,74.4,633.14" style="stroke:#000000;stroke-width:1;stroke-linejoin:miter;stroke-miterlimit:10;"/><text fill="#000000" font-family="monospace" font-size="13" lengthAdjust="spacing" textLength="125.2266" x="140.3" y="335.9169">writes&#160;&#8594;&#160;primary</text><text fill="#000000" font-family="monospace" font-size="13" lengthAdjust="spacing" textLength="117.3999" x="144.2133" y="351.0497">(see&#160;write-api)</text></g><!--link pgp3 to pgr3a--><g class="link" data-entity-1="ent0011" data-entity-2="ent0006" data-link-type="dependency" data-source-line="51" id="lnk22"><path d="M127.69,634.04 C196.67,604.44 314.98,564.25 418.14,581.62 C479.31,591.92 541.2778,614.5593 587.3578,633.8493" fill="none" id="pgp3-to-pgr3a" style="stroke:#000000;stroke-width:1;"/><polygon fill="#000000" points="591.97,635.78,585.2127,628.6149,587.3578,633.8493,582.1235,635.9944,591.97,635.78" style="stroke:#000000;stroke-width:1;stroke-linejoin:miter;stroke-miterlimit:10;"/><text fill="#000000" font-family="monospace" font-size="13" lengthAdjust="spacing" textLength="23.48" x="372.7933" y="592.3069">WAL</text></g><!--link pgp3 to pgr3b--><g class="link" data-entity-1="ent0011" data-entity-2="ent0010" data-link-type="dependency" data-source-line="52" id="lnk23"><path d="M127.59,662.03 C163.33,662.03 203.88,662.03 239.63,662.03" fill="none" id="pgp3-to-pgr3b" style="stroke:#000000;stroke-width:1;"/><polygon fill="#000000" points="244.63,662.03,235.63,658.03,239.63,662.03,235.63,666.03,244.63,662.03" style="stroke:#000000;stroke-width:1;stroke-linejoin:miter;stroke-miterlimit:10;"/><text fill="#000000" font-family="monospace" font-size="13" lengthAdjust="spacing" textLength="23.48" x="174.7933" y="649.0969">WAL</text></g><g class="legend" data-source-line="54"><rect fill="none" height="195.7813" rx="7.5" ry="7.5" style="stroke:#000000;stroke-width:1;" width="1116.4463" x="10" y="734.33"/><text fill="#000000" font-family="monospace" font-size="14" font-weight="700" lengthAdjust="spacing" textLength="42.1436" x="35.4287" y="766.3251">Color</text><text fill="#000000" font-family="monospace" font-size="14" font-weight="700" lengthAdjust="spacing" textLength="75.8584" x="106.4297" y="766.3251">Component</text><rect fill="#98FB98" height="28.2969" style="stroke:none;stroke-width:1;" width="71.001" x="21" y="775.6269"/><text fill="#000000" font-family="monospace" font-size="14" lengthAdjust="spacing" textLength="8.4287" x="27" y="794.622">&#160;</text><text fill="#000000" font-family="monospace" font-size="14" lengthAdjust="spacing" textLength="994.5879" x="106.4297" y="794.622">pgauthzd&#160;(reader)&#160;&#8212;&#160;the&#160;front&#160;door;&#160;AuthZEN&#160;+&#160;native&#160;API;&#160;answers&#160;direct&#160;(decision-only)&#160;or&#160;consults&#160;OPA&#160;(OPA_URL&#160;set)</text><rect fill="#ADD8E6" height="28.2969" style="stroke:none;stroke-width:1;" width="71.001" x="21" y="803.9238"/><text fill="#000000" font-family="monospace" font-size="14" lengthAdjust="spacing" textLength="8.4287" x="27" y="822.9189">&#160;</text><text fill="#000000" font-family="monospace" font-size="14" lengthAdjust="spacing" textLength="472.0078" x="106.4297" y="822.9189">OPA&#160;&#8212;&#160;opt-in&#160;Rego&#160;policy&#160;sidecar;&#160;ONLY&#160;pgauthzd&#160;calls&#160;it</text><rect fill="#FFA500" height="28.2969" style="stroke:none;stroke-width:1;" width="71.001" x="21" y="832.2206"/><text fill="#000000" font-family="monospace" font-size="14" lengthAdjust="spacing" textLength="8.4287" x="27" y="851.2157">&#160;</text><text fill="#000000" font-family="monospace" font-size="14" lengthAdjust="spacing" textLength="497.2939" x="106.4297" y="851.2157">PostgreSQL&#160;primary&#160;&#8212;&#160;read-write&#160;(write&#160;path:&#160;see&#160;write-api)</text><rect fill="#FFFFE0" height="28.2969" style="stroke:none;stroke-width:1;" width="71.001" x="21" y="860.5175"/><text fill="#000000" font-family="monospace" font-size="14" lengthAdjust="spacing" textLength="8.4287" x="27" y="879.5126">&#160;</text><text fill="#000000" font-family="monospace" font-size="14" lengthAdjust="spacing" textLength="303.4336" x="106.4297" y="879.5126">PostgreSQL&#160;replica&#160;&#8212;&#160;read-only&#160;(WAL)</text><rect fill="#DDA0DD" height="28.2969" style="stroke:none;stroke-width:1;" width="71.001" x="21" y="888.8144"/><text fill="#000000" font-family="monospace" font-size="14" lengthAdjust="spacing" textLength="8.4287" x="27" y="907.8095">&#160;</text><text fill="#000000" font-family="monospace" font-size="14" lengthAdjust="spacing" textLength="278.1475" x="106.4297" y="907.8095">Load&#160;Balancer&#160;&#8212;&#160;distributes&#160;reads</text><line style="stroke:#000000;stroke-width:1;" x1="21" x2="1115.4463" y1="747.33" y2="747.33"/><line style="stroke:#000000;stroke-width:1;" x1="21" x2="1115.4463" y1="775.6269" y2="775.6269"/><line style="stroke:#000000;stroke-width:1;" x1="21" x2="1115.4463" y1="803.9238" y2="803.9238"/><line style="stroke:#000000;stroke-width:1;" x1="21" x2="1115.4463" y1="832.2206" y2="832.2206"/><line style="stroke:#000000;stroke-width:1;" x1="21" x2="1115.4463" y1="860.5175" y2="860.5175"/><line style="stroke:#000000;stroke-width:1;" x1="21" x2="1115.4463" y1="888.8144" y2="888.8144"/><line style="stroke:#000000;stroke-width:1;" x1="21" x2="1115.4463" y1="917.1113" y2="917.1113"/><line style="stroke:#000000;stroke-width:1;" x1="21" x2="21" y1="747.33" y2="917.1113"/><line style="stroke:#000000;stroke-width:1;" x1="92.001" x2="92.001" y1="747.33" y2="917.1113"/><line style="stroke:#000000;stroke-width:1;" x1="1115.4463" x2="1115.4463" y1="747.33" y2="917.1113"/></g><?plantuml-src fLNDZXj54BxtKnJEOMtXMP4iuP25bRmaH97Chja0KL0ar3DJ7hVSxcvrzyGn918d7W3n8hm2Zv8deQhRCnuxkG1pckck-khlgsy-YIlS83WjbH5XhOoJNcwWbDMwyROrzTTMMm_RbOeukA_inbc39ZwFEutWiOhID7feKkDIjZf-OqsyaHHYOuqDJbPO3uoChJ6WWuUV3GwzD6i-_7nuw6HTAzF05q945Idc7SeQGYKrdsvLN54MJgjA1XYxHhPnzKiDIq_XeRRMJuIGLQHIHZENpAAoPWHaBPsx4AAl24PpIyZNKajJeKyckeHx2zrkXE24OVJZjt0VnfuocAJxrvlxyAi0UWOmNHAlpBZ6IWMALrYZTzDNvk-_u7On-_c7ktdsTqrz8Ic4rFZK8vfJA3A6e0X5UaApBXRAP4_h97lELREArxh5v5dBA4iPAD75K-fJAdSVn_VMBr5hknNl1ZKzEAxfmV-kgVpFDPN_ggRoWvgEp1TURQJVxStT1Tox9OurACHPff6JH9_tl_q9FN5K0DeCkBsPlnoGw38H3a55i6q4WsyYH0ieAsQVh0blJy9pkDvrAy3cqeGj-W2rubtHEmRTf12Dbsu59-qa8EfFiQJ6JIxvbHEIXjw-BvxTWBCKOzUrBsKUC7Rz9yFwK4bbJQ0a0a5I7alQW3jix3GPSQo1fTGwCCYKzvrAoWUi1Q0CrTbPdZ6OeGrwZQ1LY6ZG9-I-ddF1MmL5RRUckEBzUGIZv0pL2gjr60awwwup_SbYHXO_FRc1JplqsUBP1vQboFRdvrTx-fFdlifzPuXGQjctWrep6Obioavzk7qGBfEB78dCsGwu59c9dKyN-92CppZFlvkpvhoPT0X3Yv9PziAJVWPeBDE5k-Go9TFe-7jfgpR02ZtofE-Up1vtsZQ5a5ssZ96eogCCi4ONatuH3rXx0Ui6YQ6887t5Wbt5rcEH_0hfL1hHocwP1-IFXhvPZizWB67PQbquRvUAa7fA95y_1Pj9vgL7dPEcg9LrMBDyTd8AZw_1MusJa_6ddQC-RNCNtl_-HrS_3OhpxLEa3gQTx255yYqyR_UmvG0lPdE0qKVkowDxeR51edffOwIDqxYCf2TlluByOqildIQzvHluyg1PL_JPzo9f8_h9OMO3NVWOSozFjlvaoIVSrMuxquwFXupji-braBDXCuwVzJAjyeaQN6RHEjbgTQWkQn-3BMo8ZKUcxv2FN6Tc3OmFf7i4nvCwpYyhxmdeNWiFe4blnZIPWpV_LjdjwAURF6fI5g_AbYd3te5yU99veE8V?></g></svg>