<svg xmlns="http://www.w3.org/2000/svg" xmlns:xlink="http://www.w3.org/1999/xlink" contentStyleType="text/css" data-diagram-type="DESCRIPTION" height="1180px" preserveAspectRatio="none" style="width:813px;height:1180px;background:#FFFFFF;" version="1.1" viewBox="0 0 813 1180" width="813px" zoomAndPan="magnify"><?plantuml 1.2026.4?><defs/><g><g class="title" data-source-line="10"><text fill="#000000" font-family="monospace" font-size="22" font-weight="700" lengthAdjust="spacing" textLength="635.7656" x="87.7055" y="41.4209">Scaled&#160;Architecture&#160;with&#160;read&#160;replicas&#160;+&#160;AuthZEN</text></g><rect fill="#FFFFCC" height="16.6406" rx="2.5" ry="2.5" style="stroke:#FFDD88;stroke-width:3;" width="792.1766" x="8" y="66.6094"/><text fill="#000000" font-family="monospace" font-size="10" lengthAdjust="spacing" textLength="295.0049" x="15" y="77.25">Please&#160;use&#160;CSS&#160;style&#160;instead&#160;of&#160;skinparam&#160;padding</text><!--cluster vm1--><g class="cluster" data-qualified-name="vm1" data-source-line="16" id="ent0003"><polygon fill="#FFFFFF" points="411.14,386.84,421.14,376.84,678.14,376.84,678.14,910.03,668.14,920.03,411.14,920.03,411.14,386.84" style="stroke:#000000;stroke-width:1;stroke-linejoin:miter;stroke-miterlimit:10;"/><line style="stroke:#000000;stroke-width:1;" x1="668.14" x2="678.14" y1="386.84" y2="376.84"/><line style="stroke:#000000;stroke-width:1;" x1="411.14" x2="668.14" y1="386.84" y2="386.84"/><line style="stroke:#000000;stroke-width:1;" x1="668.14" x2="668.14" y1="386.84" y2="920.03"/><text fill="#000000" font-family="monospace" font-size="14" font-weight="700" lengthAdjust="spacing" textLength="92.7158" x="494.2821" y="408.8351">VM&#160;1&#160;(read)</text></g><!--cluster vm2--><g class="cluster" data-qualified-name="vm2" data-source-line="23" id="ent0008"><polygon fill="#FFFFFF" points="185.14,386.84,195.14,376.84,377.14,376.84,377.14,910.03,367.14,920.03,185.14,920.03,185.14,386.84" style="stroke:#000000;stroke-width:1;stroke-linejoin:miter;stroke-miterlimit:10;"/><line style="stroke:#000000;stroke-width:1;" x1="367.14" x2="377.14" y1="386.84" y2="376.84"/><line style="stroke:#000000;stroke-width:1;" x1="185.14" x2="367.14" y1="386.84" y2="386.84"/><line style="stroke:#000000;stroke-width:1;" x1="367.14" x2="367.14" y1="386.84" y2="920.03"/><text fill="#000000" font-family="monospace" font-size="14" font-weight="700" lengthAdjust="spacing" textLength="92.7158" x="230.7821" y="408.8351">VM&#160;2&#160;(read)</text></g><!--entity opa3a--><g class="entity" data-qualified-name="vm1.opa3a" data-source-line="17" id="ent0004"><rect fill="#ADD8E6" height="48.2969" rx="2.5" ry="2.5" style="stroke:#000000;stroke-width:1;" width="57.2861" x="604.5" y="597.14"/><text fill="#000000" font-family="monospace" font-size="14" lengthAdjust="spacing" textLength="25.2861" x="620.5" y="626.1351">OPA</text></g><!--entity az3a--><g class="entity" data-qualified-name="vm1.az3a" data-source-line="18" id="ent0005"><rect fill="#98FB98" height="48.2969" rx="2.5" ry="2.5" style="stroke:#000000;stroke-width:1;" width="91.001" x="445.64" y="464.84"/><text fill="#000000" font-family="monospace" font-size="14" lengthAdjust="spacing" textLength="59.001" x="461.64" y="493.8351">AuthZEN</text></g><!--entity pgrst3a--><g class="entity" data-qualified-name="vm1.pgrst3a" data-source-line="19" id="ent0006"><rect fill="#90EE90" height="48.2969" rx="2.5" ry="2.5" style="stroke:#000000;stroke-width:1;" width="107.8584" x="541.21" y="729.44"/><text fill="#000000" font-family="monospace" font-size="14" lengthAdjust="spacing" textLength="75.8584" x="557.21" y="758.4351">PostgREST</text></g><!--entity pgr3a--><g class="entity" data-qualified-name="vm1.pgr3a" data-source-line="20" id="ent0007"><path d="M427,856.73 C427,846.73 485.1436,846.73 485.1436,846.73 C485.1436,846.73 543.2871,846.73 543.2871,856.73 L543.2871,894.0269 C543.2871,904.0269 485.1436,904.0269 485.1436,904.0269 C485.1436,904.0269 427,904.0269 427,894.0269 L427,856.73" fill="#FFFFE0" style="stroke:#000000;stroke-width:1;"/><path d="M427,856.73 C427,866.73 485.1436,866.73 485.1436,866.73 C485.1436,866.73 543.2871,866.73 543.2871,856.73" fill="none" style="stroke:#000000;stroke-width:1;"/><text fill="#000000" font-family="monospace" font-size="14" lengthAdjust="spacing" textLength="84.2871" x="443" y="889.7251">PG&#160;Replica</text></g><!--entity opa3b--><g class="entity" data-qualified-name="vm2.opa3b" data-source-line="24" id="ent0009"><rect fill="#ADD8E6" height="48.2969" rx="2.5" ry="2.5" style="stroke:#000000;stroke-width:1;" width="57.2861" x="278.5" y="597.14"/><text fill="#000000" font-family="monospace" font-size="14" lengthAdjust="spacing" textLength="25.2861" x="294.5" y="626.1351">OPA</text></g><!--entity az3b--><g class="entity" data-qualified-name="vm2.az3b" data-source-line="25" id="ent0010"><rect fill="#98FB98" height="48.2969" rx="2.5" ry="2.5" style="stroke:#000000;stroke-width:1;" width="91.001" x="201.64" y="464.84"/><text fill="#000000" font-family="monospace" font-size="14" lengthAdjust="spacing" textLength="59.001" x="217.64" y="493.8351">AuthZEN</text></g><!--entity pgrst3b--><g class="entity" data-qualified-name="vm2.pgrst3b" data-source-line="26" id="ent0011"><rect fill="#90EE90" height="48.2969" rx="2.5" ry="2.5" style="stroke:#000000;stroke-width:1;" width="107.8584" x="253.21" y="729.44"/><text fill="#000000" font-family="monospace" font-size="14" lengthAdjust="spacing" textLength="75.8584" x="269.21" y="758.4351">PostgREST</text></g><!--entity pgr3b--><g class="entity" data-qualified-name="vm2.pgr3b" data-source-line="27" id="ent0012"><path d="M245,856.73 C245,846.73 303.1436,846.73 303.1436,846.73 C303.1436,846.73 361.2871,846.73 361.2871,856.73 L361.2871,894.0269 C361.2871,904.0269 303.1436,904.0269 303.1436,904.0269 C303.1436,904.0269 245,904.0269 245,894.0269 L245,856.73" fill="#FFFFE0" style="stroke:#000000;stroke-width:1;"/><path d="M245,856.73 C245,866.73 303.1436,866.73 303.1436,866.73 C303.1436,866.73 361.2871,866.73 361.2871,856.73" fill="none" style="stroke:#000000;stroke-width:1;"/><text fill="#000000" font-family="monospace" font-size="14" lengthAdjust="spacing" textLength="84.2871" x="261" y="889.7251">PG&#160;Replica</text></g><!--entity app3--><g class="entity" data-qualified-name="app3" data-source-line="12" id="ent0001"><ellipse cx="102.1479" cy="99.25" fill="#FFFFFF" rx="8" ry="8" style="stroke:#000000;stroke-width:1;"/><path d="M102.1479,107.25 L102.1479,134.25 M89.1479,115.25 L115.1479,115.25 M102.1479,134.25 L89.1479,149.25 M102.1479,134.25 L115.1479,149.25" fill="none" style="stroke:#000000;stroke-width:1;"/><text fill="#000000" font-family="monospace" font-size="14" lengthAdjust="spacing" textLength="92.7158" x="55.79" y="170.2451">Application</text></g><!--entity lb--><g class="entity" data-qualified-name="lb" data-source-line="14" id="ent0002"><rect fill="#DDA0DD" height="48.2969" rx="2.5" ry="2.5" style="stroke:#000000;stroke-width:1;" width="141.5732" x="298.36" y="248.55"/><text fill="#000000" font-family="monospace" font-size="14" lengthAdjust="spacing" textLength="109.5732" x="314.36" y="277.5451">Load&#160;Balancer</text></g><!--entity pgp3--><g class="entity" data-qualified-name="pgp3" data-source-line="30" id="ent0013"><path d="M11,856.73 C11,846.73 69.1436,846.73 69.1436,846.73 C69.1436,846.73 127.2871,846.73 127.2871,856.73 L127.2871,894.0269 C127.2871,904.0269 69.1436,904.0269 69.1436,904.0269 C69.1436,904.0269 11,904.0269 11,894.0269 L11,856.73" fill="#FFA500" style="stroke:#000000;stroke-width:1;"/><path d="M11,856.73 C11,866.73 69.1436,866.73 69.1436,866.73 C69.1436,866.73 127.2871,866.73 127.2871,856.73" fill="none" style="stroke:#000000;stroke-width:1;"/><text fill="#000000" font-family="monospace" font-size="14" lengthAdjust="spacing" textLength="84.2871" x="27" y="889.7251">PG&#160;Primary</text></g><!--link app3 to lb--><g class="link" data-entity-1="ent0001" data-entity-2="ent0002" data-link-type="dependency" data-source-line="33" id="lnk14"><path d="M154.89,162.73 C203.83,187.62 271.4932,222.0335 318.2932,245.8335" fill="none" id="app3-to-lb" style="stroke:#000000;stroke-width:1;"/><polygon fill="#000000" points="322.75,248.1,316.541,240.4549,318.2932,245.8335,312.9146,247.5858,322.75,248.1" style="stroke:#000000;stroke-width:1;stroke-linejoin:miter;stroke-miterlimit:10;"/><text fill="#000000" font-family="monospace" font-size="13" lengthAdjust="spacing" textLength="93.9199" x="289.78" y="218.6169">authz&#160;checks</text></g><!--link lb to opa3a--><g class="link" data-entity-1="ent0002" data-entity-2="ent0004" data-link-type="dependency" data-source-line="34" id="lnk15"><path d="M440.17,281.52 C491.02,288.42 553.91,300.01 574.14,316.84 C654.05,383.33 642.98,431.16 663.14,533.14 C666.94,552.32 668.99,558.48 663.14,577.14 C660.96,584.1 660.0117,586.7887 655.8917,592.8787" fill="none" id="lb-to-opa3a" style="stroke:#000000;stroke-width:1;"/><polygon fill="#000000" points="653.09,597.02,661.4461,591.807,655.8917,592.8787,654.82,587.3243,653.09,597.02" style="stroke:#000000;stroke-width:1;stroke-linejoin:miter;stroke-miterlimit:10;"/><text fill="#000000" font-family="monospace" font-size="13" lengthAdjust="spacing" textLength="93.9199" x="681.6033" y="486.0569">OPA&#160;data&#160;API</text><text fill="#000000" font-family="monospace" font-size="13" lengthAdjust="spacing" textLength="125.2266" x="665.95" y="501.1897">/v1/data/authz/*</text></g><!--link lb to opa3b--><g class="link" data-entity-1="ent0002" data-entity-2="ent0009" data-link-type="dependency" data-source-line="35" id="lnk16"><path d="M364.93,297.24 C353.62,360.47 323.5606,528.5182 312.2406,591.7882" fill="none" id="lb-to-opa3b" style="stroke:#000000;stroke-width:1;"/><polygon fill="#000000" points="311.36,596.71,316.8825,588.5552,312.2406,591.7882,309.0076,587.1462,311.36,596.71" style="stroke:#000000;stroke-width:1;stroke-linejoin:miter;stroke-miterlimit:10;"/></g><!--link lb to az3a--><g class="link" data-entity-1="ent0002" data-entity-2="ent0005" data-link-type="dependency" data-source-line="36" id="lnk17"><path d="M391.64,296.97 C397.06,303.16 402.6,310.04 407.14,316.84 C440.16,366.24 466.2896,425.8771 480.0896,459.8771" fill="none" id="lb-to-az3a" style="stroke:#000000;stroke-width:1;"/><polygon fill="#000000" points="481.97,464.51,482.2916,454.6664,480.0896,459.8771,474.8789,457.6751,481.97,464.51" style="stroke:#000000;stroke-width:1;stroke-linejoin:miter;stroke-miterlimit:10;"/><text fill="#000000" font-family="monospace" font-size="13" lengthAdjust="spacing" textLength="117.3999" x="438.42" y="335.9069">AuthZEN&#160;1.0&#160;API</text><text fill="#000000" font-family="monospace" font-size="13" lengthAdjust="spacing" textLength="93.9199" x="450.16" y="351.0397">/access/v1/*</text></g><!--link lb to az3b--><g class="link" data-entity-1="ent0002" data-entity-2="ent0010" data-link-type="dependency" data-source-line="37" id="lnk18"><path d="M346.65,296.97 C341.22,303.16 335.69,310.04 331.14,316.84 C298.13,366.24 272.0004,425.8771 258.2004,459.8771" fill="none" id="lb-to-az3b" style="stroke:#000000;stroke-width:1;"/><polygon fill="#000000" points="256.32,464.51,263.4111,457.6751,258.2004,459.8771,255.9984,454.6664,256.32,464.51" style="stroke:#000000;stroke-width:1;stroke-linejoin:miter;stroke-miterlimit:10;"/></g><!--link opa3a to pgrst3a--><g class="link" data-entity-1="ent0004" data-entity-2="ent0006" data-link-type="dependency" data-source-line="38" id="lnk19"><path d="M648.25,645.87 C657.81,664 666.57,689.29 656.14,709.44 C652.21,717.04 650.0987,720.3982 643.4187,725.9382" fill="none" id="opa3a-to-pgrst3a" style="stroke:#000000;stroke-width:1;"/><polygon fill="#000000" points="639.57,729.13,649.051,726.4636,643.4187,725.9382,643.9441,720.3058,639.57,729.13" style="stroke:#000000;stroke-width:1;stroke-linejoin:miter;stroke-miterlimit:10;"/></g><!--link opa3b to pgrst3b--><g class="link" data-entity-1="ent0009" data-entity-2="ent0011" data-link-type="dependency" data-source-line="39" id="lnk20"><path d="M307.14,645.88 C307.14,669.5 307.14,700.61 307.14,724.16" fill="none" id="opa3b-to-pgrst3b" style="stroke:#000000;stroke-width:1;"/><polygon fill="#000000" points="307.14,729.16,311.14,720.16,307.14,724.16,303.14,720.16,307.14,729.16" style="stroke:#000000;stroke-width:1;stroke-linejoin:miter;stroke-miterlimit:10;"/></g><!--link az3a to opa3a--><g class="link" data-entity-1="ent0005" data-entity-2="ent0004" data-link-type="dependency" data-source-line="40" id="lnk21"><path d="M489.67,513.47 C489.75,532.77 492.97,559.69 508.14,577.14 C532.32,604.95 570.3469,614.2434 599.0669,617.7534" fill="none" id="az3a-to-opa3a" style="stroke:#000000;stroke-width:1;"/><polygon fill="#000000" points="604.03,618.36,595.5817,613.2977,599.0669,617.7534,594.6112,621.2387,604.03,618.36" style="stroke:#000000;stroke-width:1;stroke-linejoin:miter;stroke-miterlimit:10;"/><text fill="#000000" font-family="monospace" font-size="13" lengthAdjust="spacing" textLength="86.0933" x="538.62" y="552.2069">authzen-opa</text><text fill="#000000" font-family="monospace" font-size="13" lengthAdjust="spacing" textLength="133.0532" x="515.14" y="567.3397">(policy-enriched)</text></g><!--link az3a to pgr3a--><g class="link" data-entity-1="ent0005" data-entity-2="ent0007" data-link-type="dependency" data-source-line="41" id="lnk22"><path d="M483.8,513.56 C482.05,519.87 480.34,526.72 479.14,533.14 C464.72,610.37 461.64,631 466.14,709.44 C468.92,757.78 475.518,808.761 480.228,841.501" fill="none" id="az3a-to-pgr3a" style="stroke:#000000;stroke-width:1;"/><polygon fill="#000000" points="480.94,846.45,483.6177,836.9721,480.228,841.501,475.6992,838.1113,480.94,846.45" style="stroke:#000000;stroke-width:1;stroke-linejoin:miter;stroke-miterlimit:10;"/><text fill="#000000" font-family="monospace" font-size="13" lengthAdjust="spacing" textLength="109.5732" x="500.5333" y="684.5069">authzen-direct</text><text fill="#000000" font-family="monospace" font-size="13" lengthAdjust="spacing" textLength="164.3599" x="473.14" y="699.6397">(SQL,&#160;lowest&#160;latency)</text></g><!--link az3b to opa3b--><g class="link" data-entity-1="ent0010" data-entity-2="ent0009" data-link-type="dependency" data-source-line="42" id="lnk23"><path d="M258.01,513.59 C268.88,537.2 283.4178,568.7788 294.2678,592.3288" fill="none" id="az3b-to-opa3b" style="stroke:#000000;stroke-width:1;"/><polygon fill="#000000" points="296.36,596.87,296.2269,587.022,294.2678,592.3288,288.961,590.3696,296.36,596.87" style="stroke:#000000;stroke-width:1;stroke-linejoin:miter;stroke-miterlimit:10;"/></g><!--link az3b to pgr3b--><g class="link" data-entity-1="ent0010" data-entity-2="ent0012" data-link-type="dependency" data-source-line="43" id="lnk24"><path d="M235.3,513.37 C207.75,571.35 146.33,724.46 209.14,826.73 C217.38,840.14 226.2236,847.6725 240.2736,854.7425" fill="none" id="az3b-to-pgr3b" style="stroke:#000000;stroke-width:1;"/><polygon fill="#000000" points="244.74,856.99,238.4985,849.3714,240.2736,854.7425,234.9025,856.5176,244.74,856.99" style="stroke:#000000;stroke-width:1;stroke-linejoin:miter;stroke-miterlimit:10;"/></g><!--link pgrst3a to pgr3a--><g class="link" data-entity-1="ent0006" data-entity-2="ent0007" data-link-type="dependency" data-source-line="44" id="lnk25"><path d="M573.67,777.97 C555.67,797.58 533.2918,821.9472 514.1918,842.7472" fill="none" id="pgrst3a-to-pgr3a" style="stroke:#000000;stroke-width:1;"/><polygon fill="#000000" points="510.81,846.43,519.8436,842.5064,514.1918,842.7472,513.951,837.0954,510.81,846.43" style="stroke:#000000;stroke-width:1;stroke-linejoin:miter;stroke-miterlimit:10;"/></g><!--link pgrst3b to pgr3b--><g class="link" data-entity-1="ent0011" data-entity-2="ent0012" data-link-type="dependency" data-source-line="45" id="lnk26"><path d="M306.36,777.97 C305.71,797.58 304.9358,820.6327 304.2458,841.4327" fill="none" id="pgrst3b-to-pgr3b" style="stroke:#000000;stroke-width:1;"/><polygon fill="#000000" points="304.08,846.43,308.3762,837.5676,304.2458,841.4327,300.3806,837.3023,304.08,846.43" style="stroke:#000000;stroke-width:1;stroke-linejoin:miter;stroke-miterlimit:10;"/></g><!--link app3 to pgp3--><g class="link" data-entity-1="ent0001" data-entity-2="ent0013" data-link-type="dependency" data-source-line="48" id="lnk27"><path d="M82.26,179.9 C72.22,206.02 62.14,240.11 62.14,271.69 C62.14,271.69 62.14,271.69 62.14,754.58 C62.14,786.04 64.1692,817.0869 66.1692,841.3469" fill="none" id="app3-to-pgp3" style="stroke:#000000;stroke-width:1;"/><polygon fill="#000000" points="66.58,846.33,69.827,837.0318,66.1692,841.3469,61.8541,837.6891,66.58,846.33" style="stroke:#000000;stroke-width:1;stroke-linejoin:miter;stroke-miterlimit:10;"/><text fill="#000000" font-family="monospace" font-size="13" lengthAdjust="spacing" textLength="93.9199" x="69.14" y="552.2069">tuple&#160;writes</text><text fill="#000000" font-family="monospace" font-size="13" lengthAdjust="spacing" textLength="93.9199" x="69.14" y="567.3397">(direct&#160;SQL)</text></g><!--link pgp3 to pgr3a--><g class="link" data-entity-1="ent0013" data-entity-2="ent0007" data-link-type="dependency" data-source-line="51" id="lnk28"><path d="M117.17,846.26 C146.15,830.41 184.46,812.42 221.14,804.26 C295.74,787.67 376.453,817.8537 429.403,844.1837" fill="none" id="pgp3-to-pgr3a" style="stroke:#000000;stroke-width:1;"/><polygon fill="#000000" points="433.88,846.41,427.6024,838.8211,429.403,844.1837,424.0403,845.9844,433.88,846.41" style="stroke:#000000;stroke-width:1;stroke-linejoin:miter;stroke-miterlimit:10;"/><text fill="#000000" font-family="monospace" font-size="13" lengthAdjust="spacing" textLength="23.48" x="243.7933" y="816.7969">WAL</text></g><!--link pgp3 to pgr3b--><g class="link" data-entity-1="ent0013" data-entity-2="ent0012" data-link-type="dependency" data-source-line="52" id="lnk29"><path d="M127.59,875.38 C163.33,875.38 203.88,875.38 239.63,875.38" fill="none" id="pgp3-to-pgr3b" style="stroke:#000000;stroke-width:1;"/><polygon fill="#000000" points="244.63,875.38,235.63,871.38,239.63,875.38,235.63,879.38,244.63,875.38" style="stroke:#000000;stroke-width:1;stroke-linejoin:miter;stroke-miterlimit:10;"/><text fill="#000000" font-family="monospace" font-size="13" lengthAdjust="spacing" textLength="23.48" x="174.7933" y="862.4469">WAL</text></g><g class="legend" data-source-line="54"><rect fill="none" height="224.0781" rx="7.5" ry="7.5" style="stroke:#000000;stroke-width:1;" width="711.8682" x="10" y="944.03"/><text fill="#000000" font-family="monospace" font-size="14" font-weight="700" lengthAdjust="spacing" textLength="42.1436" x="35.4287" y="976.0251">Color</text><text fill="#000000" font-family="monospace" font-size="14" font-weight="700" lengthAdjust="spacing" textLength="75.8584" x="106.4297" y="976.0251">Component</text><rect fill="#98FB98" height="28.2969" style="stroke:none;stroke-width:1;" width="71.001" x="21" y="985.3269"/><text fill="#000000" font-family="monospace" font-size="14" lengthAdjust="spacing" textLength="8.4287" x="27" y="1004.322">&#160;</text><text fill="#000000" font-family="monospace" font-size="14" lengthAdjust="spacing" textLength="590.0098" x="106.4297" y="1004.322">AuthZEN&#160;API&#160;&#8212;&#160;AuthZEN&#160;1.0&#160;(Go);&#160;authzen-direct&#160;&#8594;&#160;PG,&#160;authzen-opa&#160;&#8594;&#160;OPA</text><rect fill="#ADD8E6" height="28.2969" style="stroke:none;stroke-width:1;" width="71.001" x="21" y="1013.6238"/><text fill="#000000" font-family="monospace" font-size="14" lengthAdjust="spacing" textLength="8.4287" x="27" y="1032.6189">&#160;</text><text fill="#000000" font-family="monospace" font-size="14" lengthAdjust="spacing" textLength="193.8604" x="106.4297" y="1032.6189">OPA&#160;&#8212;&#160;policy&#160;evaluation</text><rect fill="#90EE90" height="28.2969" style="stroke:none;stroke-width:1;" width="71.001" x="21" y="1041.9206"/><text fill="#000000" font-family="monospace" font-size="14" lengthAdjust="spacing" textLength="8.4287" x="27" y="1060.9157">&#160;</text><text fill="#000000" font-family="monospace" font-size="14" lengthAdjust="spacing" textLength="244.4326" x="106.4297" y="1060.9157">PostgREST&#160;&#8212;&#160;internal&#160;read&#160;API</text><rect fill="#FFA500" height="28.2969" style="stroke:none;stroke-width:1;" width="71.001" x="21" y="1070.2175"/><text fill="#000000" font-family="monospace" font-size="14" lengthAdjust="spacing" textLength="8.4287" x="27" y="1089.2126">&#160;</text><text fill="#000000" font-family="monospace" font-size="14" lengthAdjust="spacing" textLength="261.29" x="106.4297" y="1089.2126">PostgreSQL&#160;primary&#160;&#8212;&#160;read-write</text><rect fill="#FFFFE0" height="28.2969" style="stroke:none;stroke-width:1;" width="71.001" x="21" y="1098.5144"/><text fill="#000000" font-family="monospace" font-size="14" lengthAdjust="spacing" textLength="8.4287" x="27" y="1117.5095">&#160;</text><text fill="#000000" font-family="monospace" font-size="14" lengthAdjust="spacing" textLength="303.4336" x="106.4297" y="1117.5095">PostgreSQL&#160;replica&#160;&#8212;&#160;read-only&#160;(WAL)</text><rect fill="#DDA0DD" height="28.2969" style="stroke:none;stroke-width:1;" width="71.001" x="21" y="1126.8113"/><text fill="#000000" font-family="monospace" font-size="14" lengthAdjust="spacing" textLength="8.4287" x="27" y="1145.8064">&#160;</text><text fill="#000000" font-family="monospace" font-size="14" lengthAdjust="spacing" textLength="278.1475" x="106.4297" y="1145.8064">Load&#160;Balancer&#160;&#8212;&#160;distributes&#160;reads</text><line style="stroke:#000000;stroke-width:1;" x1="21" x2="710.8682" y1="957.03" y2="957.03"/><line style="stroke:#000000;stroke-width:1;" x1="21" x2="710.8682" y1="985.3269" y2="985.3269"/><line style="stroke:#000000;stroke-width:1;" x1="21" x2="710.8682" y1="1013.6238" y2="1013.6238"/><line style="stroke:#000000;stroke-width:1;" x1="21" x2="710.8682" y1="1041.9206" y2="1041.9206"/><line style="stroke:#000000;stroke-width:1;" x1="21" x2="710.8682" y1="1070.2175" y2="1070.2175"/><line style="stroke:#000000;stroke-width:1;" x1="21" x2="710.8682" y1="1098.5144" y2="1098.5144"/><line style="stroke:#000000;stroke-width:1;" x1="21" x2="710.8682" y1="1126.8113" y2="1126.8113"/><line style="stroke:#000000;stroke-width:1;" x1="21" x2="710.8682" y1="1155.1081" y2="1155.1081"/><line style="stroke:#000000;stroke-width:1;" x1="21" x2="21" y1="957.03" y2="1155.1081"/><line style="stroke:#000000;stroke-width:1;" x1="92.001" x2="92.001" y1="957.03" y2="1155.1081"/><line style="stroke:#000000;stroke-width:1;" x1="710.8682" x2="710.8682" y1="957.03" y2="1155.1081"/></g><?plantuml-src bLJ1RXCn4BtxAuRqG0iDQLhWKA1IYag45DgbGLIWNhnUTsF5QrjURwEK8d7Y0n1Vs2zXR6Stkob2D8SecPatysRUZ1-v6Iyu64c58kLSA4CjBI2bR9vRNQdihPRQmc8c76_vcIwCLbovgLjA3fOpHrKkso4PlwALTE-qSgSKInHQwT9GnhDMaD8PBxc15tijewLgxetFsqP3iqoe75uIueJ3cbD69SzWP9ddnbnbEIo4co4Pck6NaOBH4fx2g7AphoUdX53ci9NUo0IN4rhr02EeCGU4D1r1Rw8nmJ6LL35kGuXCOIkHLK689mozpnzW2Dk-q4xmNnT3-4O0FwqqPyaeEBMX1nIs9YAVkMDPySsu5R_8vSQ79jZPs7AkDaCJNRhy_6JwAGIRt9QkIRq6PDJHb9R8Cnd3UHn43MZ2lt0fzO9yRxMqtsrf_zyjfV_VKlh0bjA7jPJUQwaJdbXHKBjSXPi3s3h33Siv8Oyn5Kfjg9iHlmNGp_H2zO-yteVGezZ53R0PP_EoHz1MkwEYXs4UWHgCalUNQd0z7FX_Wm0SFBc7ITk68FLXCoiOFjjRfQ6CyRBqsRef_2H9h5sRLYj0eY1TQqf2YNka0pkk-cYuLDj6uooNVQwim4vH_2ughamBbGb_x0YSVfpi0iwRbmuaTLonPGHlzjmn1Rr8lRcTAgGMlnkBAbrOlF0ISWrEWuboTWKBkY9BLnby6XOX7Zb6ie1KaLgGkpbz4Y1zwnUdtIV0nMW2qFkBF-tuYUGvLncasZbTWEHN3bVrzWt45pFygBVyrdlWzVeAZl1lBJoA3dS_VaDx4RR7UkSLT6SETpz_GJBUXPQ0mUQtiAxGdAIlu1q-SzGO-3MLLMY-6zumQcune8Hot2eguuFgMTQeU3yDmd8SSArBW7f4FwZGhHGlT0EuUghNGAta4hPnp3lhmU7Zws6TfpaWCb4wAzBABuX7buZniaHro1y0?></g></svg>