<svg xmlns="http://www.w3.org/2000/svg" xmlns:xlink="http://www.w3.org/1999/xlink" contentStyleType="text/css" data-diagram-type="DESCRIPTION" height="681px" preserveAspectRatio="none" style="width:548px;height:681px;background:#FFFFFF;" version="1.1" viewBox="0 0 548 681" width="548px" zoomAndPan="magnify"><?plantuml 1.2026.4?><defs/><g><g class="title" data-source-line="10"><text fill="#000000" font-family="monospace" font-size="22" font-weight="700" lengthAdjust="spacing" textLength="476.8242" x="34.8062" y="41.4209">Minimal&#160;Architecture&#160;with&#160;Read/Write</text></g><rect fill="#FFFFCC" height="16.6406" rx="2.5" ry="2.5" style="stroke:#FFDD88;stroke-width:3;" width="328.9731" x="107.2317" y="66.6094"/><text fill="#000000" font-family="monospace" font-size="10" lengthAdjust="spacing" textLength="295.0049" x="114.2317" y="77.25">Please&#160;use&#160;CSS&#160;style&#160;instead&#160;of&#160;skinparam&#160;padding</text><!--cluster host1--><g class="cluster" data-qualified-name="host1" data-source-line="14" id="ent0002"><polygon fill="#FFFFFF" points="120.2317,269.54,130.2317,259.54,300.2317,259.54,300.2317,524.73,290.2317,534.73,120.2317,534.73,120.2317,269.54" style="stroke:#000000;stroke-width:1;stroke-linejoin:miter;stroke-miterlimit:10;"/><line style="stroke:#000000;stroke-width:1;" x1="290.2317" x2="300.2317" y1="269.54" y2="259.54"/><line style="stroke:#000000;stroke-width:1;" x1="120.2317" x2="290.2317" y1="269.54" y2="269.54"/><line style="stroke:#000000;stroke-width:1;" x1="290.2317" x2="290.2317" y1="269.54" y2="534.73"/><text fill="#000000" font-family="monospace" font-size="14" font-weight="700" lengthAdjust="spacing" textLength="92.7158" x="159.8738" y="291.5351">Docker&#160;Host</text></g><!--entity pgd1--><g class="entity" data-qualified-name="host1.pgd1" data-source-line="15" id="ent0003"><rect fill="#90EE90" height="64.5938" rx="2.5" ry="2.5" style="stroke:#000000;stroke-width:1;" width="99.4297" x="143.5217" y="311.54"/><text fill="#000000" font-family="monospace" font-size="14" lengthAdjust="spacing" textLength="67.4297" x="159.5217" y="340.5351">pgauthzd</text><text fill="#000000" font-family="monospace" font-size="14" lengthAdjust="spacing" textLength="42.1436" x="159.5217" y="356.832">:8080</text></g><!--entity pg1--><g class="entity" data-qualified-name="host1.pg1" data-source-line="16" id="ent0004"><path d="M143.0917,455.14 C143.0917,445.14 201.2352,445.14 201.2352,445.14 C201.2352,445.14 259.3788,445.14 259.3788,455.14 L259.3788,508.7338 C259.3788,518.7338 201.2352,518.7338 201.2352,518.7338 C201.2352,518.7338 143.0917,518.7338 143.0917,508.7338 L143.0917,455.14" fill="#FFA500" style="stroke:#000000;stroke-width:1;"/><path d="M143.0917,455.14 C143.0917,465.14 201.2352,465.14 201.2352,465.14 C201.2352,465.14 259.3788,465.14 259.3788,455.14" fill="none" style="stroke:#000000;stroke-width:1;"/><text fill="#000000" font-family="monospace" font-size="14" lengthAdjust="spacing" textLength="84.2871" x="159.0917" y="488.1351">PostgreSQL</text><text fill="#000000" font-family="monospace" font-size="14" lengthAdjust="spacing" textLength="42.1436" x="159.0917" y="504.432">:5432</text></g><!--entity app1--><g class="entity" data-qualified-name="app1" data-source-line="12" id="ent0001"><ellipse cx="193.2296" cy="99.25" fill="#FFFFFF" rx="8" ry="8" style="stroke:#000000;stroke-width:1;"/><path d="M193.2296,107.25 L193.2296,134.25 M180.2296,115.25 L206.2296,115.25 M193.2296,134.25 L180.2296,149.25 M193.2296,134.25 L206.2296,149.25" fill="none" style="stroke:#000000;stroke-width:1;"/><text fill="#000000" font-family="monospace" font-size="14" lengthAdjust="spacing" textLength="92.7158" x="146.8717" y="170.2451">Application</text></g><!--link app1 to pgd1--><g class="link" data-entity-1="ent0001" data-entity-2="ent0003" data-link-type="dependency" data-source-line="22" id="lnk5"><path d="M193.2317,180.04 C193.2317,219.45 193.2317,271.2 193.2317,306.23" fill="none" id="app1-to-pgd1" style="stroke:#000000;stroke-width:1;"/><polygon fill="#000000" points="193.2317,311.23,197.2317,302.23,193.2317,306.23,189.2317,302.23,193.2317,311.23" style="stroke:#000000;stroke-width:1;stroke-linejoin:miter;stroke-miterlimit:10;"/><text fill="#000000" font-family="monospace" font-size="13" lengthAdjust="spacing" textLength="156.5332" x="235.4517" y="218.6069">AuthZEN&#160;/&#160;native&#160;API</text><text fill="#000000" font-family="monospace" font-size="13" lengthAdjust="spacing" textLength="226.9731" x="200.2317" y="233.7397">(authz&#160;checks&#160;+&#160;tuple&#160;writes)</text></g><!--link pgd1 to pg1--><g class="link" data-entity-1="ent0003" data-entity-2="ent0004" data-link-type="dependency" data-source-line="23" id="lnk6"><path d="M195.0917,376.4 C196.2917,396.82 197.5584,418.4686 198.8084,439.7386" fill="none" id="pgd1-to-pg1" style="stroke:#000000;stroke-width:1;"/><polygon fill="#000000" points="199.1017,444.73,202.5668,435.5108,198.8084,439.7386,194.5806,435.9802,199.1017,444.73" style="stroke:#000000;stroke-width:1;stroke-linejoin:miter;stroke-miterlimit:10;"/><text fill="#000000" font-family="monospace" font-size="13" lengthAdjust="spacing" textLength="70.4399" x="204.9517" y="415.2069">SQL&#160;(pgx)</text></g><g class="legend" data-source-line="25"><rect fill="none" height="110.8906" rx="7.5" ry="7.5" style="stroke:#000000;stroke-width:1;" width="526.4365" x="10" y="558.73"/><text fill="#000000" font-family="monospace" font-size="14" font-weight="700" lengthAdjust="spacing" textLength="42.1436" x="35.4287" y="590.7251">Color</text><text fill="#000000" font-family="monospace" font-size="14" font-weight="700" lengthAdjust="spacing" textLength="75.8584" x="106.4297" y="590.7251">Component</text><rect fill="#90EE90" height="28.2969" style="stroke:none;stroke-width:1;" width="71.001" x="21" y="600.0269"/><text fill="#000000" font-family="monospace" font-size="14" lengthAdjust="spacing" textLength="8.4287" x="27" y="619.022">&#160;</text><text fill="#000000" font-family="monospace" font-size="14" lengthAdjust="spacing" textLength="404.5781" x="106.4297" y="619.022">pgauthzd&#160;&#8212;&#160;the&#160;front&#160;door&#160;(AuthZEN&#160;+&#160;native&#160;API)</text><rect fill="#FFA500" height="28.2969" style="stroke:none;stroke-width:1;" width="71.001" x="21" y="628.3238"/><text fill="#000000" font-family="monospace" font-size="14" lengthAdjust="spacing" textLength="8.4287" x="27" y="647.3189">&#160;</text><text fill="#000000" font-family="monospace" font-size="14" lengthAdjust="spacing" textLength="236.0039" x="106.4297" y="647.3189">PostgreSQL&#160;&#8212;&#160;single&#160;instance</text><line style="stroke:#000000;stroke-width:1;" x1="21" x2="525.4365" y1="571.73" y2="571.73"/><line style="stroke:#000000;stroke-width:1;" x1="21" x2="525.4365" y1="600.0269" y2="600.0269"/><line style="stroke:#000000;stroke-width:1;" x1="21" x2="525.4365" y1="628.3238" y2="628.3238"/><line style="stroke:#000000;stroke-width:1;" x1="21" x2="525.4365" y1="656.6206" y2="656.6206"/><line style="stroke:#000000;stroke-width:1;" x1="21" x2="21" y1="571.73" y2="656.6206"/><line style="stroke:#000000;stroke-width:1;" x1="92.001" x2="92.001" y1="571.73" y2="656.6206"/><line style="stroke:#000000;stroke-width:1;" x1="525.4365" x2="525.4365" y1="571.73" y2="656.6206"/></g><?plantuml-src NLFRRXCn47ttLmpXWLHjQ08jgY9QAPIhLDhGFY2XlZZsn6l5ExPiRvT0aVW8lf0lORnfqXNxPC_bp9bprazoXJL2SDAII2jBGKPPmqAgbOc-8NtkdO_GLZPZBwzy7JmXvPkyTWWHLPPaNBz4ur8sBh_tb2ybZwWz-HIaGjqh8gynOO3ZSIyO9QrAyAWV359hImPU2P5jvfcVBTbQEfX5LSYft4I4rkOAhb7gmw-nC1PIPQO_c8NWh9BPUXg0J213c0XHfiFWhLShZF3HfzpbAZvCuAS0_dPxmY0OsUJgXxwbwSduPDoL1gCdyFJ2cYf_Y8ZKzMYPvK8cHfupaebuy-M2cuwFNhvuQEAUArxIeFWbnBFT9gSi1rpDPrFOpWARW0s2PMGLGNiV3q1IQZ4MALAEiemkwRhKCTOrlfcTWuaoL33Kg6pYbKUUt1gMB4HaQT81B1ldkdjRL4fxps6cTHaDNMLR8S7QDun7Y9f1ZOVWMS4r84Mhghf8Cao86te5xf1J6ME8bbVNLZA7cf55aHf6shSqEji8DcK_UBrlxowvYTYKEuJP_DCj3RkjGLMeLWds8JU1ZNxWE11TyoDI1yJQmZ2OxvmM3WsIXeNFcVLmkCpin_qfR7xXxh1ryxvau7NFkZE-xsJ_-_lFVxh3S4jvlqTvRmUqyRE0F9hUmIHRtWLOIln25793uRYXAlu1?></g></svg>