<svg xmlns="http://www.w3.org/2000/svg" xmlns:xlink="http://www.w3.org/1999/xlink" contentStyleType="text/css" data-diagram-type="DESCRIPTION" height="933px" preserveAspectRatio="none" style="width:1400px;height:933px;background:#FFFFFF;" version="1.1" viewBox="0 0 1400 933" width="1400px" zoomAndPan="magnify"><?plantuml 1.2026.6?><defs/><g><g class="title" data-source-line="10"><text fill="#000000" font-family="monospace" font-size="22" font-weight="700" lengthAdjust="spacing" textLength="582.7852" x="407.6074" y="41.4209">Full&#160;Architecture&#160;(read&#160;scaling&#160;+&#160;write&#160;API)</text></g><rect fill="#FFFFCC" height="16.6406" rx="2.5" ry="2.5" style="stroke:#FFDD88;stroke-width:3;" width="1379" x="8" y="66.6094"/><text fill="#000000" font-family="monospace" font-size="10" lengthAdjust="spacing" textLength="295.0049" x="15" y="77.25">Please&#160;use&#160;CSS&#160;style&#160;instead&#160;of&#160;skinparam&#160;padding</text><!--cluster vm1--><g class="cluster" data-qualified-name="vm1" data-source-line="16" id="ent0003"><polygon fill="#FFFFFF" points="524,371.84,534,361.84,1003,361.84,1003,663.03,993,673.03,524,673.03,524,371.84" style="stroke:#000000;stroke-width:1;stroke-linejoin:miter;stroke-miterlimit:10;"/><line style="stroke:#000000;stroke-width:1;" x1="993" x2="1003" y1="371.84" y2="361.84"/><line style="stroke:#000000;stroke-width:1;" x1="524" x2="993" y1="371.84" y2="371.84"/><line style="stroke:#000000;stroke-width:1;" x1="993" x2="993" y1="371.84" y2="673.03"/><text fill="#000000" font-family="monospace" font-size="14" font-weight="700" lengthAdjust="spacing" textLength="92.7158" x="713.1421" y="393.8351">VM&#160;1&#160;(read)</text></g><!--cluster vm2--><g class="cluster" data-qualified-name="vm2" data-source-line="22" id="ent0007"><polygon fill="#FFFFFF" points="1027,371.84,1037,361.84,1375,361.84,1375,663.03,1365,673.03,1027,673.03,1027,371.84" style="stroke:#000000;stroke-width:1;stroke-linejoin:miter;stroke-miterlimit:10;"/><line style="stroke:#000000;stroke-width:1;" x1="1365" x2="1375" y1="371.84" y2="361.84"/><line style="stroke:#000000;stroke-width:1;" x1="1027" x2="1365" y1="371.84" y2="371.84"/><line style="stroke:#000000;stroke-width:1;" x1="1365" x2="1365" y1="371.84" y2="673.03"/><text fill="#000000" font-family="monospace" font-size="14" font-weight="700" lengthAdjust="spacing" textLength="92.7158" x="1150.6421" y="393.8351">VM&#160;2&#160;(read)</text></g><!--cluster vm0--><g class="cluster" data-qualified-name="vm0" data-source-line="28" id="ent0011"><polygon fill="#FFFFFF" points="21,379.99,31,369.99,500,369.99,500,663.03,490,673.03,21,673.03,21,379.99" style="stroke:#000000;stroke-width:1;stroke-linejoin:miter;stroke-miterlimit:10;"/><line style="stroke:#000000;stroke-width:1;" x1="490" x2="500" y1="379.99" y2="369.99"/><line style="stroke:#000000;stroke-width:1;" x1="21" x2="490" y1="379.99" y2="379.99"/><line style="stroke:#000000;stroke-width:1;" x1="490" x2="490" y1="379.99" y2="673.03"/><text fill="#000000" font-family="monospace" font-size="14" font-weight="700" lengthAdjust="spacing" textLength="118.002" x="197.499" y="401.9851">VM&#160;0&#160;(primary)</text></g><!--entity pgd_a--><g class="entity" data-qualified-name="vm1.pgd_a" data-source-line="17" id="ent0004"><rect fill="#98FB98" height="80.8906" rx="2.5" ry="2.5" style="stroke:#000000;stroke-width:1;" width="158.4307" x="539.78" y="449.84"/><text fill="#000000" font-family="monospace" font-size="14" lengthAdjust="spacing" textLength="67.4297" x="555.78" y="478.8351">pgauthzd</text><text fill="#000000" font-family="monospace" font-size="14" lengthAdjust="spacing" textLength="126.4307" x="555.78" y="495.132">(decision-only,</text><text fill="#000000" font-family="monospace" font-size="14" lengthAdjust="spacing" textLength="84.2871" x="555.78" y="511.4289">&#177;&#160;OPA_URL)</text></g><!--entity opa_a--><g class="entity" data-qualified-name="vm1.opa_a" data-source-line="18" id="ent0005"><rect fill="#ADD8E6" height="64.5938" rx="2.5" ry="2.5" style="stroke:#000000;stroke-width:1;" width="107.8584" x="879.07" y="457.99"/><text fill="#000000" font-family="monospace" font-size="14" lengthAdjust="spacing" textLength="25.2861" x="895.07" y="486.9851">OPA</text><text fill="#000000" font-family="monospace" font-size="14" lengthAdjust="spacing" textLength="75.8584" x="895.07" y="503.282">(sidecar)</text></g><!--entity pgr_a--><g class="entity" data-qualified-name="vm1.pgr_a" data-source-line="19" id="ent0006"><path d="M558.86,609.73 C558.86,599.73 617.0036,599.73 617.0036,599.73 C617.0036,599.73 675.1471,599.73 675.1471,609.73 L675.1471,647.0269 C675.1471,657.0269 617.0036,657.0269 617.0036,657.0269 C617.0036,657.0269 558.86,657.0269 558.86,647.0269 L558.86,609.73" fill="#FFFFE0" style="stroke:#000000;stroke-width:1;"/><path d="M558.86,609.73 C558.86,619.73 617.0036,619.73 617.0036,619.73 C617.0036,619.73 675.1471,619.73 675.1471,609.73" fill="none" style="stroke:#000000;stroke-width:1;"/><text fill="#000000" font-family="monospace" font-size="14" lengthAdjust="spacing" textLength="84.2871" x="574.86" y="642.7251">PG&#160;Replica</text></g><!--entity pgd_b--><g class="entity" data-qualified-name="vm2.pgd_b" data-source-line="23" id="ent0008"><rect fill="#98FB98" height="80.8906" rx="2.5" ry="2.5" style="stroke:#000000;stroke-width:1;" width="158.4307" x="1042.78" y="449.84"/><text fill="#000000" font-family="monospace" font-size="14" lengthAdjust="spacing" textLength="67.4297" x="1058.78" y="478.8351">pgauthzd</text><text fill="#000000" font-family="monospace" font-size="14" lengthAdjust="spacing" textLength="126.4307" x="1058.78" y="495.132">(decision-only,</text><text fill="#000000" font-family="monospace" font-size="14" lengthAdjust="spacing" textLength="84.2871" x="1058.78" y="511.4289">&#177;&#160;OPA_URL)</text></g><!--entity opa_b--><g class="entity" data-qualified-name="vm2.opa_b" data-source-line="24" id="ent0009"><rect fill="#ADD8E6" height="64.5938" rx="2.5" ry="2.5" style="stroke:#000000;stroke-width:1;" width="107.8584" x="1251.07" y="457.99"/><text fill="#000000" font-family="monospace" font-size="14" lengthAdjust="spacing" textLength="25.2861" x="1267.07" y="486.9851">OPA</text><text fill="#000000" font-family="monospace" font-size="14" lengthAdjust="spacing" textLength="75.8584" x="1267.07" y="503.282">(sidecar)</text></g><!--entity pgr_b--><g class="entity" data-qualified-name="vm2.pgr_b" data-source-line="25" id="ent0010"><path d="M1042.86,609.73 C1042.86,599.73 1101.0036,599.73 1101.0036,599.73 C1101.0036,599.73 1159.1471,599.73 1159.1471,609.73 L1159.1471,647.0269 C1159.1471,657.0269 1101.0036,657.0269 1101.0036,657.0269 C1101.0036,657.0269 1042.86,657.0269 1042.86,647.0269 L1042.86,609.73" fill="#FFFFE0" style="stroke:#000000;stroke-width:1;"/><path d="M1042.86,609.73 C1042.86,619.73 1101.0036,619.73 1101.0036,619.73 C1101.0036,619.73 1159.1471,619.73 1159.1471,609.73" fill="none" style="stroke:#000000;stroke-width:1;"/><text fill="#000000" font-family="monospace" font-size="14" lengthAdjust="spacing" textLength="84.2871" x="1058.86" y="642.7251">PG&#160;Replica</text></g><!--entity pgd_w--><g class="entity" data-qualified-name="vm0.pgd_w" data-source-line="29" id="ent0012"><rect fill="#FA8072" height="64.5938" rx="2.5" ry="2.5" style="stroke:#000000;stroke-width:1;" width="158.4307" x="36.78" y="457.99"/><text fill="#000000" font-family="monospace" font-size="14" lengthAdjust="spacing" textLength="67.4297" x="52.78" y="486.9851">pgauthzd</text><text fill="#000000" font-family="monospace" font-size="14" lengthAdjust="spacing" textLength="126.4307" x="52.78" y="503.282">(full&#160;/&#160;writer)</text></g><!--entity opa_w--><g class="entity" data-qualified-name="vm0.opa_w" data-source-line="30" id="ent0013"><rect fill="#ADD8E6" height="64.5938" rx="2.5" ry="2.5" style="stroke:#000000;stroke-width:1;" width="107.8584" x="376.07" y="457.99"/><text fill="#000000" font-family="monospace" font-size="14" lengthAdjust="spacing" textLength="25.2861" x="392.07" y="486.9851">OPA</text><text fill="#000000" font-family="monospace" font-size="14" lengthAdjust="spacing" textLength="75.8584" x="392.07" y="503.282">(sidecar)</text></g><!--entity pgp--><g class="entity" data-qualified-name="vm0.pgp" data-source-line="31" id="ent0014"><path d="M323.86,609.73 C323.86,599.73 382.0036,599.73 382.0036,599.73 C382.0036,599.73 440.1471,599.73 440.1471,609.73 L440.1471,647.0269 C440.1471,657.0269 382.0036,657.0269 382.0036,657.0269 C382.0036,657.0269 323.86,657.0269 323.86,647.0269 L323.86,609.73" fill="#FFA500" style="stroke:#000000;stroke-width:1;"/><path d="M323.86,609.73 C323.86,619.73 382.0036,619.73 382.0036,619.73 C382.0036,619.73 440.1471,619.73 440.1471,609.73" fill="none" style="stroke:#000000;stroke-width:1;"/><text fill="#000000" font-family="monospace" font-size="14" lengthAdjust="spacing" textLength="84.2871" x="339.86" y="642.7251">PG&#160;Primary</text></g><!--entity app--><g class="entity" data-qualified-name="app" data-source-line="12" id="ent0001"><ellipse cx="269.9979" cy="99.25" fill="#FFFFFF" rx="8" ry="8" style="stroke:#000000;stroke-width:1;"/><path d="M269.9979,107.25 L269.9979,134.25 M256.9979,115.25 L282.9979,115.25 M269.9979,134.25 L256.9979,149.25 M269.9979,134.25 L282.9979,149.25" fill="none" style="stroke:#000000;stroke-width:1;"/><text fill="#000000" font-family="monospace" font-size="14" lengthAdjust="spacing" textLength="92.7158" x="223.64" y="170.2451">Application</text></g><!--entity lb--><g class="entity" data-qualified-name="lb" data-source-line="14" id="ent0002"><rect fill="#DDA0DD" height="48.2969" rx="2.5" ry="2.5" style="stroke:#000000;stroke-width:1;" width="141.5732" x="548.21" y="248.55"/><text fill="#000000" font-family="monospace" font-size="14" lengthAdjust="spacing" textLength="109.5732" x="564.21" y="277.5451">Load&#160;Balancer</text></g><!--link app to lb--><g class="link" data-entity-1="ent0001" data-entity-2="ent0002" data-link-type="dependency" data-source-line="38" id="lnk15"><path d="M322.63,156.37 C385.85,180.97 487.0303,220.347 553.6503,246.267" fill="none" id="app-to-lb" style="stroke:#000000;stroke-width:1;"/><polygon fill="#000000" points="558.31,248.08,551.3729,241.0889,553.6503,246.267,548.4721,248.5444,558.31,248.08" style="stroke:#000000;stroke-width:1;stroke-linejoin:miter;stroke-miterlimit:10;"/><text fill="#000000" font-family="monospace" font-size="13" lengthAdjust="spacing" textLength="93.9199" x="513.11" y="218.6169">authz&#160;checks</text></g><!--link lb to pgd_a--><g class="link" data-entity-1="ent0002" data-entity-2="ent0004" data-link-type="dependency" data-source-line="39" id="lnk16"><path d="M619,297.18 C619,333.74 619,399.7 619,444.39" fill="none" id="lb-to-pgd_a" style="stroke:#000000;stroke-width:1;"/><polygon fill="#000000" points="619,449.39,623,440.39,619,444.39,615,440.39,619,449.39" style="stroke:#000000;stroke-width:1;stroke-linejoin:miter;stroke-miterlimit:10;"/><text fill="#000000" font-family="monospace" font-size="13" lengthAdjust="spacing" textLength="156.5332" x="626" y="335.9069">AuthZEN&#160;+&#160;native&#160;API</text></g><!--link lb to pgd_b--><g class="link" data-entity-1="ent0002" data-entity-2="ent0008" data-link-type="dependency" data-source-line="40" id="lnk17"><path d="M690.15,274.72 C771.97,278.85 907.76,294.99 1007,353.84 C1046.14,377.05 1075.6096,414.2978 1095.8896,445.2478" fill="none" id="lb-to-pgd_b" style="stroke:#000000;stroke-width:1;"/><polygon fill="#000000" points="1098.63,449.43,1097.0431,439.7098,1095.8896,445.2478,1090.3516,444.0944,1098.63,449.43" style="stroke:#000000;stroke-width:1;stroke-linejoin:miter;stroke-miterlimit:10;"/></g><!--link pgd_a to opa_a--><g class="link" data-entity-1="ent0004" data-entity-2="ent0005" data-link-type="dependency" data-source-line="41" id="lnk18"><path d="M698.45,516.59 C708.03,518.93 717.75,520.93 727.14,522.29 C754.19,526.21 823.27,527.3 850.14,522.29 C859.69,520.51 864.8364,519.3095 874.2864,516.0295" fill="none" id="pgd_a-to-opa_a" style="stroke:#000000;stroke-width:1;"/><polygon fill="#000000" points="879.01,514.39,869.196,513.5623,874.2864,516.0295,871.8192,521.12,879.01,514.39" style="stroke:#000000;stroke-width:1;stroke-linejoin:miter;stroke-miterlimit:10;"/><text fill="#000000" font-family="monospace" font-size="13" lengthAdjust="spacing" textLength="109.5732" x="734.14" y="512.3569">consult&#160;policy</text></g><!--reverse link pgd_a to opa_a--><g class="link" data-entity-1="ent0004" data-entity-2="ent0005" data-link-type="dependency" data-source-line="42" id="lnk20"><path d="M703.64,490.29 C759.97,490.29 829,490.29 878.65,490.29" fill="none" id="pgd_a-backto-opa_a" style="stroke:#000000;stroke-width:1;"/><polygon fill="#000000" points="698.64,490.29,707.64,494.29,703.64,490.29,707.64,486.29,698.64,490.29" style="stroke:#000000;stroke-width:1;stroke-linejoin:miter;stroke-miterlimit:10;"/><text fill="#000000" font-family="monospace" font-size="13" lengthAdjust="spacing" textLength="117.3999" x="730.14" y="477.3569">native&#160;callback</text></g><!--link pgd_b to opa_b--><g class="link" data-entity-1="ent0008" data-entity-2="ent0009" data-link-type="dependency" data-source-line="43" id="lnk21"><path d="M1201.71,520.12 C1218.11,521.52 1229.6943,521.3086 1246.1043,516.8586" fill="none" id="pgd_b-to-opa_b" style="stroke:#000000;stroke-width:1;"/><polygon fill="#000000" points="1250.93,515.55,1241.1968,514.0449,1246.1043,516.8586,1243.2906,521.7661,1250.93,515.55" style="stroke:#000000;stroke-width:1;stroke-linejoin:miter;stroke-miterlimit:10;"/></g><!--reverse link pgd_b to opa_b--><g class="link" data-entity-1="ent0008" data-entity-2="ent0009" data-link-type="dependency" data-source-line="44" id="lnk23"><path d="M1206.6919,460.0347 C1223.0919,458.6347 1234.52,460.58 1250.93,465.03" fill="none" id="pgd_b-backto-opa_b" style="stroke:#000000;stroke-width:1;"/><polygon fill="#000000" points="1201.71,460.46,1211.0176,463.68,1206.6919,460.0347,1210.3372,455.709,1201.71,460.46" style="stroke:#000000;stroke-width:1;stroke-linejoin:miter;stroke-miterlimit:10;"/></g><!--link pgd_a to pgr_a--><g class="link" data-entity-1="ent0004" data-entity-2="ent0006" data-link-type="dependency" data-source-line="45" id="lnk24"><path d="M618.42,531.02 C618.09,552.99 617.7734,574.7505 617.4834,594.4905" fill="none" id="pgd_a-to-pgr_a" style="stroke:#000000;stroke-width:1;"/><polygon fill="#000000" points="617.41,599.49,621.5418,590.5497,617.4834,594.4905,613.5426,590.4322,617.41,599.49" style="stroke:#000000;stroke-width:1;stroke-linejoin:miter;stroke-miterlimit:10;"/><text fill="#000000" font-family="monospace" font-size="13" lengthAdjust="spacing" textLength="70.4399" x="625.12" y="569.7969">SQL&#160;(pgx)</text></g><!--link pgd_b to pgr_b--><g class="link" data-entity-1="ent0008" data-entity-2="ent0010" data-link-type="dependency" data-source-line="46" id="lnk25"><path d="M1115.87,531.02 C1112.48,552.99 1109.1135,574.8086 1106.0635,594.5486" fill="none" id="pgd_b-to-pgr_b" style="stroke:#000000;stroke-width:1;"/><polygon fill="#000000" points="1105.3,599.49,1110.6274,591.2063,1106.0635,594.5486,1102.7212,589.9848,1105.3,599.49" style="stroke:#000000;stroke-width:1;stroke-linejoin:miter;stroke-miterlimit:10;"/></g><!--link app to pgd_w--><g class="link" data-entity-1="ent0001" data-entity-2="ent0012" data-link-type="dependency" data-source-line="51" id="lnk26"><path d="M250.81,179.94 C219.28,252.28 159.2874,389.9563 131.7474,453.1563" fill="none" id="app-to-pgd_w" style="stroke:#000000;stroke-width:1;"/><polygon fill="#000000" points="129.75,457.74,137.0123,451.0872,131.7474,453.1563,129.6783,447.8914,129.75,457.74" style="stroke:#000000;stroke-width:1;stroke-linejoin:miter;stroke-miterlimit:10;"/><text fill="#000000" font-family="monospace" font-size="13" lengthAdjust="spacing" textLength="46.96" x="274.63" y="269.7569">writes</text><text fill="#000000" font-family="monospace" font-size="13" lengthAdjust="spacing" textLength="140.8799" x="227.67" y="284.8897">(JWT:&#160;writer&#160;role)</text></g><!--link pgd_w to opa_w--><g class="link" data-entity-1="ent0012" data-entity-2="ent0013" data-link-type="dependency" data-source-line="52" id="lnk27"><path d="M195.64,490.29 C251.97,490.29 321,490.29 370.65,490.29" fill="none" id="pgd_w-to-opa_w" style="stroke:#000000;stroke-width:1;"/><polygon fill="#000000" points="375.65,490.29,366.65,486.29,370.65,490.29,366.65,494.29,375.65,490.29" style="stroke:#000000;stroke-width:1;stroke-linejoin:miter;stroke-miterlimit:10;"/><text fill="#000000" font-family="monospace" font-size="13" lengthAdjust="spacing" textLength="117.3999" x="227.14" y="477.3569">authorize&#160;write</text></g><!--reverse link pgd_w to opa_w--><g class="link" data-entity-1="ent0012" data-entity-2="ent0013" data-link-type="dependency" data-source-line="53" id="lnk29"><path d="M200.4364,515.178 C214.9764,518.608 225.24,520.45 239.64,522.29 C280.2,527.45 291.26,528.69 331.64,522.29 C346.19,519.98 361.5,515.87 375.61,511.35" fill="none" id="pgd_w-backto-opa_w" style="stroke:#000000;stroke-width:1;"/><polygon fill="#000000" points="195.57,514.03,203.4112,519.9895,200.4364,515.178,205.248,512.2032,195.57,514.03" style="stroke:#000000;stroke-width:1;stroke-linejoin:miter;stroke-miterlimit:10;"/><text fill="#000000" font-family="monospace" font-size="13" lengthAdjust="spacing" textLength="78.2666" x="246.64" y="512.3569">authorized</text></g><!--link pgd_w to pgp--><g class="link" data-entity-1="ent0012" data-entity-2="ent0014" data-link-type="dependency" data-source-line="54" id="lnk30"><path d="M151.62,522.94 C174.01,541.53 204.21,564.32 234,579.73 C262.17,594.3 290.8475,604.1834 318.8375,612.0734" fill="none" id="pgd_w-to-pgp" style="stroke:#000000;stroke-width:1;"/><polygon fill="#000000" points="323.65,613.43,316.0728,607.1382,318.8375,612.0734,313.9023,614.8381,323.65,613.43" style="stroke:#000000;stroke-width:1;stroke-linejoin:miter;stroke-miterlimit:10;"/><text fill="#000000" font-family="monospace" font-size="13" lengthAdjust="spacing" textLength="180.0132" x="241" y="569.7969">SQL&#160;(pgx,&#160;authz_writer)</text></g><!--link pgp to pgr_a--><g class="link" data-entity-1="ent0014" data-entity-2="ent0006" data-link-type="dependency" data-source-line="57" id="lnk31"><path d="M440.39,628.38 C476.41,628.38 517.46,628.38 553.5,628.38" fill="none" id="pgp-to-pgr_a" style="stroke:#000000;stroke-width:1;"/><polygon fill="#000000" points="558.5,628.38,549.5,624.38,553.5,628.38,549.5,632.38,558.5,628.38" style="stroke:#000000;stroke-width:1;stroke-linejoin:miter;stroke-miterlimit:10;"/><text fill="#000000" font-family="monospace" font-size="13" lengthAdjust="spacing" textLength="23.48" x="488.1533" y="615.4469">WAL</text></g><!--link pgp to pgr_b--><g class="link" data-entity-1="ent0014" data-entity-2="ent0010" data-link-type="dependency" data-source-line="58" id="lnk32"><path d="M397.18,599.38 C407.08,583.79 421.58,566.01 440,557.26 C467.3,544.29 477.81,555.98 508,557.26 C730.38,566.71 788.44,557.62 1007,599.73 C1018.64,601.98 1026.0874,603.719 1037.7574,607.099" fill="none" id="pgp-to-pgr_b" style="stroke:#000000;stroke-width:1;"/><polygon fill="#000000" points="1042.56,608.49,1035.0281,602.1441,1037.7574,607.099,1032.8025,609.8283,1042.56,608.49" style="stroke:#000000;stroke-width:1;stroke-linejoin:miter;stroke-miterlimit:10;"/><text fill="#000000" font-family="monospace" font-size="13" lengthAdjust="spacing" textLength="23.48" x="462.6533" y="569.7969">WAL</text></g><g class="legend" data-source-line="60"><rect fill="none" height="224.0781" rx="7.5" ry="7.5" style="stroke:#000000;stroke-width:1;" width="1116.4463" x="10" y="697.03"/><text fill="#000000" font-family="monospace" font-size="14" font-weight="700" lengthAdjust="spacing" textLength="42.1436" x="35.4287" y="729.0251">Color</text><text fill="#000000" font-family="monospace" font-size="14" font-weight="700" lengthAdjust="spacing" textLength="75.8584" x="106.4297" y="729.0251">Component</text><rect fill="#98FB98" height="28.2969" style="stroke:none;stroke-width:1;" width="71.001" x="21" y="738.3269"/><text fill="#000000" font-family="monospace" font-size="14" lengthAdjust="spacing" textLength="8.4287" x="27" y="757.322">&#160;</text><text fill="#000000" font-family="monospace" font-size="14" lengthAdjust="spacing" textLength="994.5879" x="106.4297" y="757.322">pgauthzd&#160;(reader)&#160;&#8212;&#160;the&#160;front&#160;door;&#160;AuthZEN&#160;+&#160;native&#160;API;&#160;consults&#160;OPA&#160;(OPA_URL&#160;set)&#160;or&#160;answers&#160;direct&#160;(decision-only)</text><rect fill="#FA8072" height="28.2969" style="stroke:none;stroke-width:1;" width="71.001" x="21" y="766.6238"/><text fill="#000000" font-family="monospace" font-size="14" lengthAdjust="spacing" textLength="8.4287" x="27" y="785.6189">&#160;</text><text fill="#000000" font-family="monospace" font-size="14" lengthAdjust="spacing" textLength="623.7246" x="106.4297" y="785.6189">pgauthzd&#160;(writer)&#160;&#8212;&#160;full&#160;profile;&#160;applies&#160;authorized&#160;writes&#160;to&#160;the&#160;primary</text><rect fill="#ADD8E6" height="28.2969" style="stroke:none;stroke-width:1;" width="71.001" x="21" y="794.9206"/><text fill="#000000" font-family="monospace" font-size="14" lengthAdjust="spacing" textLength="8.4287" x="27" y="813.9157">&#160;</text><text fill="#000000" font-family="monospace" font-size="14" lengthAdjust="spacing" textLength="488.8652" x="106.4297" y="813.9157">OPA&#160;&#8212;&#160;internal&#160;Rego&#160;policy&#160;sidecar;&#160;ONLY&#160;pgauthzd&#160;calls&#160;it</text><rect fill="#FFA500" height="28.2969" style="stroke:none;stroke-width:1;" width="71.001" x="21" y="823.2175"/><text fill="#000000" font-family="monospace" font-size="14" lengthAdjust="spacing" textLength="8.4287" x="27" y="842.2126">&#160;</text><text fill="#000000" font-family="monospace" font-size="14" lengthAdjust="spacing" textLength="261.29" x="106.4297" y="842.2126">PostgreSQL&#160;primary&#160;&#8212;&#160;read-write</text><rect fill="#FFFFE0" height="28.2969" style="stroke:none;stroke-width:1;" width="71.001" x="21" y="851.5144"/><text fill="#000000" font-family="monospace" font-size="14" lengthAdjust="spacing" textLength="8.4287" x="27" y="870.5095">&#160;</text><text fill="#000000" font-family="monospace" font-size="14" lengthAdjust="spacing" textLength="303.4336" x="106.4297" y="870.5095">PostgreSQL&#160;replica&#160;&#8212;&#160;read-only&#160;(WAL)</text><rect fill="#DDA0DD" height="28.2969" style="stroke:none;stroke-width:1;" width="71.001" x="21" y="879.8113"/><text fill="#000000" font-family="monospace" font-size="14" lengthAdjust="spacing" textLength="8.4287" x="27" y="898.8064">&#160;</text><text fill="#000000" font-family="monospace" font-size="14" lengthAdjust="spacing" textLength="278.1475" x="106.4297" y="898.8064">Load&#160;Balancer&#160;&#8212;&#160;distributes&#160;reads</text><line style="stroke:#000000;stroke-width:1;" x1="21" x2="1115.4463" y1="710.03" y2="710.03"/><line style="stroke:#000000;stroke-width:1;" x1="21" x2="1115.4463" y1="738.3269" y2="738.3269"/><line style="stroke:#000000;stroke-width:1;" x1="21" x2="1115.4463" y1="766.6238" y2="766.6238"/><line style="stroke:#000000;stroke-width:1;" x1="21" x2="1115.4463" y1="794.9206" y2="794.9206"/><line style="stroke:#000000;stroke-width:1;" x1="21" x2="1115.4463" y1="823.2175" y2="823.2175"/><line style="stroke:#000000;stroke-width:1;" x1="21" x2="1115.4463" y1="851.5144" y2="851.5144"/><line style="stroke:#000000;stroke-width:1;" x1="21" x2="1115.4463" y1="879.8113" y2="879.8113"/><line style="stroke:#000000;stroke-width:1;" x1="21" x2="1115.4463" y1="908.1081" y2="908.1081"/><line style="stroke:#000000;stroke-width:1;" x1="21" x2="21" y1="710.03" y2="908.1081"/><line style="stroke:#000000;stroke-width:1;" x1="92.001" x2="92.001" y1="710.03" y2="908.1081"/><line style="stroke:#000000;stroke-width:1;" x1="1115.4463" x2="1115.4463" y1="710.03" y2="908.1081"/></g><?plantuml-src fLRTRbj54BxVfnYSYzeY3ca5NDHGoKMqAZA9IO2eg5Aqv-pwU9NrxcftdOFJLk8XU15UWKVXIPZPFRy9L5H4iXIV-Vjcvfll-9EubJi9JdDbMBXHnd7FTr3mygRoTc_4DrPR3_LMHJcmbtRdh94cNiQ3bk1b6RcfzD15o0tVw_Z2cdZ6iSJE6XiSBwKOE1ahP90ElZWTFFJStD33puSF7HT2cGg-P2ogY3LVxBM6fIy9MHdtNiBKIouWb5oJuwTGUpJ1SlrgnXWl8xOnMJgdLScZicO2F01tZh6k6PYiB6PupZKtfVJ9GnTmjDRx7ME45IO_Vm-FSwLPij_k7iDR1lWtIECgle_RE_76J8KiLS1oSslquVYD-VCFE5ylht-wMELuLubhZYMubY-zbEP-AdJ6B45X7kvpY7MSGbQgsiRdUYzJYE2H5pmWmlLBk92fpQQ0xxnVIwrjpTuFcdaoRkR9_swc-FXcYezgflZtPavXwhpQSNze-pdzO3yRuj1dcIY-Rw66eqkkaR3_4N_zGVphZAZ9xk3e70bUIGB-29j3mZaUj_3NRxz32mrK03nCE3zRlOQDnnC2OQq_WLSHk0crz064eglJ1xBlo1kpLPwxBOpND3i6P7vfJS1h3A3mWsr0qmHiq7WXAmlEufGFc6JQh1I2ZBC4Yni1bAh79sybvkHQfsIBb35_9UK0PQ9D3GIyV4pPnZqAOF3uRYLe5Q8qCjSdpmoT1dV2y2fXBcnjvi_e_fx298L3kPNbJPWmVDQQy_cWnn8zVlds3C--gO1t_y2pODb_xcbT-32V4eOtysccC67PCDTo4uTLcjpKAZKwOPdnetm5ovmU1dU5Ep0-9xpyOOMShNwTTQa67WKnv2gfs4EA9FBEMgRq95dWYljrqs9m5nHZlRgZPP1xbiPf9ZvugoNI10s6554hIJnf1gaF9p1D8EPv2q9gMIK9nU9DFYTDKkSMtJpXaMAUAc0sKtfypvYuG3I27pA04q_4IwvKy6Gssdo-H9nHpe67zztLZqzXY3aFhHxFlsu9anhE_dcXzMWdOp_HvUhAk-62ZjCCxwvRhSZ7sxrD6BbtCBhr0bmjLm2JX-PYP6OuKXmX53P6l6P2YKBoxcl8hz_qJwj2xyW2N_Kg-mo_zhGWDKU0YIptcV5FHx8OasLy_LXxh3VtnQL3amLp3AMPLOAIfDPvkr5QBZgMzUE7XYcDS3GotgNlz9Kg44xAYJ8ZlU5wA62ji2soU7PWiZgfVdnPXIdTsePOUKcRRijITXfavkyOHNxlt0lqcGfzODBBAQwt7n7zZA2mqO-C525G3RqgzZG0YWuOGtJ8h61_0m00?></g></svg>