<svg xmlns="http://www.w3.org/2000/svg" xmlns:xlink="http://www.w3.org/1999/xlink" contentStyleType="text/css" data-diagram-type="DESCRIPTION" height="955px" preserveAspectRatio="none" style="width:1288px;height:955px;background:#FFFFFF;" version="1.1" viewBox="0 0 1288 955" width="1288px" zoomAndPan="magnify"><?plantuml 1.2026.6?><defs/><g><g class="title" data-source-line="10"><text fill="#000000" font-family="monospace" font-size="22" font-weight="700" lengthAdjust="spacing" textLength="582.7852" x="351.6074" y="41.4209">Full&#160;Architecture&#160;(read&#160;scaling&#160;+&#160;write&#160;API)</text></g><rect fill="#FFFFCC" height="16.6406" rx="2.5" ry="2.5" style="stroke:#FFDD88;stroke-width:3;" width="1267" x="8" y="66.6094"/><text fill="#000000" font-family="monospace" font-size="10" lengthAdjust="spacing" textLength="295.0049" x="15" y="77.25">Please&#160;use&#160;CSS&#160;style&#160;instead&#160;of&#160;skinparam&#160;padding</text><!--cluster vm1--><g class="cluster" data-qualified-name="vm1" data-source-line="16" id="ent0003"><polygon fill="#FFFFFF" points="21,371.85,31,361.85,567,361.85,567,685.33,557,695.33,21,695.33,21,371.85" style="stroke:#000000;stroke-width:1;stroke-linejoin:miter;stroke-miterlimit:10;"/><line style="stroke:#000000;stroke-width:1;" x1="557" x2="567" y1="371.85" y2="361.85"/><line style="stroke:#000000;stroke-width:1;" x1="21" x2="557" y1="371.85" y2="371.85"/><line style="stroke:#000000;stroke-width:1;" x1="557" x2="557" y1="371.85" y2="695.33"/><text fill="#000000" font-family="monospace" font-size="14" font-weight="700" lengthAdjust="spacing" textLength="92.7158" x="243.6421" y="393.8451">VM&#160;1&#160;(read)</text></g><!--cluster vm2--><g class="cluster" data-qualified-name="vm2" data-source-line="22" id="ent0007"><polygon fill="#FFFFFF" points="640,371.85,650,361.85,963,361.85,963,685.33,953,695.33,640,695.33,640,371.85" style="stroke:#000000;stroke-width:1;stroke-linejoin:miter;stroke-miterlimit:10;"/><line style="stroke:#000000;stroke-width:1;" x1="953" x2="963" y1="371.85" y2="361.85"/><line style="stroke:#000000;stroke-width:1;" x1="640" x2="953" y1="371.85" y2="371.85"/><line style="stroke:#000000;stroke-width:1;" x1="953" x2="953" y1="371.85" y2="695.33"/><text fill="#000000" font-family="monospace" font-size="14" font-weight="700" lengthAdjust="spacing" textLength="92.7158" x="751.1421" y="393.8451">VM&#160;2&#160;(read)</text></g><!--cluster vm0--><g class="cluster" data-qualified-name="vm0" data-source-line="28" id="ent0011"><polygon fill="#FFFFFF" points="987,379.99,997,369.99,1263,369.99,1263,681.68,1253,691.68,987,691.68,987,379.99" style="stroke:#000000;stroke-width:1;stroke-linejoin:miter;stroke-miterlimit:10;"/><line style="stroke:#000000;stroke-width:1;" x1="1253" x2="1263" y1="379.99" y2="369.99"/><line style="stroke:#000000;stroke-width:1;" x1="987" x2="1253" y1="379.99" y2="379.99"/><line style="stroke:#000000;stroke-width:1;" x1="1253" x2="1253" y1="379.99" y2="691.68"/><text fill="#000000" font-family="monospace" font-size="14" font-weight="700" lengthAdjust="spacing" textLength="118.002" x="1061.999" y="401.9851">VM&#160;0&#160;(primary)</text></g><!--entity pgd_a--><g class="entity" data-qualified-name="vm1.pgd_a" data-source-line="17" id="ent0004"><rect fill="#98FB98" height="80.8906" rx="2.5" ry="2.5" style="stroke:#000000;stroke-width:1;" width="158.4307" x="243.78" y="449.85"/><text fill="#000000" font-family="monospace" font-size="14" lengthAdjust="spacing" textLength="67.4297" x="259.78" y="478.8451">pgauthzd</text><text fill="#000000" font-family="monospace" font-size="14" lengthAdjust="spacing" textLength="126.4307" x="259.78" y="495.142">(decision-only,</text><text fill="#000000" font-family="monospace" font-size="14" lengthAdjust="spacing" textLength="84.2871" x="259.78" y="511.4389">&#177;&#160;OPA_URL)</text></g><!--entity opa_a--><g class="entity" data-qualified-name="vm1.opa_a" data-source-line="18" id="ent0005"><rect fill="#ADD8E6" height="64.5938" rx="2.5" ry="2.5" style="stroke:#000000;stroke-width:1;" width="124.7158" x="357.64" y="614.74"/><text fill="#000000" font-family="monospace" font-size="14" lengthAdjust="spacing" textLength="92.7158" x="373.64" y="643.7351">OPA&#160;sidecar</text><text fill="#000000" font-family="monospace" font-size="14" lengthAdjust="spacing" textLength="67.4297" x="373.64" y="660.032">(opt-in)</text></g><!--entity pgr_a--><g class="entity" data-qualified-name="vm1.pgr_a" data-source-line="19" id="ent0006"><path d="M190.86,628.38 C190.86,618.38 249.0036,618.38 249.0036,618.38 C249.0036,618.38 307.1471,618.38 307.1471,628.38 L307.1471,665.6769 C307.1471,675.6769 249.0036,675.6769 249.0036,675.6769 C249.0036,675.6769 190.86,675.6769 190.86,665.6769 L190.86,628.38" fill="#FFFFE0" style="stroke:#000000;stroke-width:1;"/><path d="M190.86,628.38 C190.86,638.38 249.0036,638.38 249.0036,638.38 C249.0036,638.38 307.1471,638.38 307.1471,628.38" fill="none" style="stroke:#000000;stroke-width:1;"/><text fill="#000000" font-family="monospace" font-size="14" lengthAdjust="spacing" textLength="84.2871" x="206.86" y="661.3751">PG&#160;Replica</text></g><!--entity pgd_b--><g class="entity" data-qualified-name="vm2.pgd_b" data-source-line="23" id="ent0008"><rect fill="#98FB98" height="80.8906" rx="2.5" ry="2.5" style="stroke:#000000;stroke-width:1;" width="158.4307" x="788.78" y="449.85"/><text fill="#000000" font-family="monospace" font-size="14" lengthAdjust="spacing" textLength="67.4297" x="804.78" y="478.8451">pgauthzd</text><text fill="#000000" font-family="monospace" font-size="14" lengthAdjust="spacing" textLength="126.4307" x="804.78" y="495.142">(decision-only,</text><text fill="#000000" font-family="monospace" font-size="14" lengthAdjust="spacing" textLength="84.2871" x="804.78" y="511.4389">&#177;&#160;OPA_URL)</text></g><!--entity opa_b--><g class="entity" data-qualified-name="vm2.opa_b" data-source-line="24" id="ent0009"><rect fill="#ADD8E6" height="64.5938" rx="2.5" ry="2.5" style="stroke:#000000;stroke-width:1;" width="124.7158" x="822.64" y="614.74"/><text fill="#000000" font-family="monospace" font-size="14" lengthAdjust="spacing" textLength="92.7158" x="838.64" y="643.7351">OPA&#160;sidecar</text><text fill="#000000" font-family="monospace" font-size="14" lengthAdjust="spacing" textLength="67.4297" x="838.64" y="660.032">(opt-in)</text></g><!--entity pgr_b--><g class="entity" data-qualified-name="vm2.pgr_b" data-source-line="25" id="ent0010"><path d="M655.86,628.38 C655.86,618.38 714.0036,618.38 714.0036,618.38 C714.0036,618.38 772.1471,618.38 772.1471,628.38 L772.1471,665.6769 C772.1471,675.6769 714.0036,675.6769 714.0036,675.6769 C714.0036,675.6769 655.86,675.6769 655.86,665.6769 L655.86,628.38" fill="#FFFFE0" style="stroke:#000000;stroke-width:1;"/><path d="M655.86,628.38 C655.86,638.38 714.0036,638.38 714.0036,638.38 C714.0036,638.38 772.1471,638.38 772.1471,628.38" fill="none" style="stroke:#000000;stroke-width:1;"/><text fill="#000000" font-family="monospace" font-size="14" lengthAdjust="spacing" textLength="84.2871" x="671.86" y="661.3751">PG&#160;Replica</text></g><!--entity pgd_w--><g class="entity" data-qualified-name="vm0.pgd_w" data-source-line="29" id="ent0012"><rect fill="#FA8072" height="64.5938" rx="2.5" ry="2.5" style="stroke:#000000;stroke-width:1;" width="158.4307" x="1002.78" y="457.99"/><text fill="#000000" font-family="monospace" font-size="14" lengthAdjust="spacing" textLength="67.4297" x="1018.78" y="486.9851">pgauthzd</text><text fill="#000000" font-family="monospace" font-size="14" lengthAdjust="spacing" textLength="126.4307" x="1018.78" y="503.282">(full&#160;/&#160;writer)</text></g><!--entity pgp--><g class="entity" data-qualified-name="vm0.pgp" data-source-line="30" id="ent0013"><path d="M1002.86,628.38 C1002.86,618.38 1061.0036,618.38 1061.0036,618.38 C1061.0036,618.38 1119.1471,618.38 1119.1471,628.38 L1119.1471,665.6769 C1119.1471,675.6769 1061.0036,675.6769 1061.0036,675.6769 C1061.0036,675.6769 1002.86,675.6769 1002.86,665.6769 L1002.86,628.38" fill="#FFA500" style="stroke:#000000;stroke-width:1;"/><path d="M1002.86,628.38 C1002.86,638.38 1061.0036,638.38 1061.0036,638.38 C1061.0036,638.38 1119.1471,638.38 1119.1471,628.38" fill="none" style="stroke:#000000;stroke-width:1;"/><text fill="#000000" font-family="monospace" font-size="14" lengthAdjust="spacing" textLength="84.2871" x="1018.86" y="661.3751">PG&#160;Primary</text></g><!--entity app--><g class="entity" data-qualified-name="app" data-source-line="12" id="ent0001"><ellipse cx="974.9979" cy="99.25" fill="#FFFFFF" rx="8" ry="8" style="stroke:#000000;stroke-width:1;"/><path d="M974.9979,107.25 L974.9979,134.25 M961.9979,115.25 L987.9979,115.25 M974.9979,134.25 L961.9979,149.25 M974.9979,134.25 L987.9979,149.25" fill="none" style="stroke:#000000;stroke-width:1;"/><text fill="#000000" font-family="monospace" font-size="14" lengthAdjust="spacing" textLength="92.7158" x="928.64" y="170.2451">Application</text></g><!--entity lb--><g class="entity" data-qualified-name="lb" data-source-line="14" id="ent0002"><rect fill="#DDA0DD" height="48.2969" rx="2.5" ry="2.5" style="stroke:#000000;stroke-width:1;" width="141.5732" x="797.21" y="248.55"/><text fill="#000000" font-family="monospace" font-size="14" lengthAdjust="spacing" textLength="109.5732" x="813.21" y="277.5451">Load&#160;Balancer</text></g><!--link app to lb--><g class="link" data-entity-1="ent0001" data-entity-2="ent0002" data-link-type="dependency" data-source-line="37" id="lnk14"><path d="M931.67,179.86 C925.88,186.3 920.16,192.98 915,199.55 C902.8,215.06 893.2918,229.4864 884.4218,243.9664" fill="none" id="app-to-lb" style="stroke:#000000;stroke-width:1;"/><polygon fill="#000000" points="881.81,248.23,889.9221,242.6449,884.4218,243.9664,883.1003,238.466,881.81,248.23" style="stroke:#000000;stroke-width:1;stroke-linejoin:miter;stroke-miterlimit:10;"/><text fill="#000000" font-family="monospace" font-size="13" lengthAdjust="spacing" textLength="93.9199" x="922" y="218.6169">authz&#160;checks</text></g><!--link lb to pgd_a--><g class="link" data-entity-1="ent0002" data-entity-2="ent0004" data-link-type="dependency" data-source-line="38" id="lnk15"><path d="M797,286.9 C762.94,294.15 721.84,304.24 686,316.85 C581.51,353.59 471.4309,408.7155 399.5309,447.0955" fill="none" id="lb-to-pgd_a" style="stroke:#000000;stroke-width:1;"/><polygon fill="#000000" points="395.12,449.45,404.9433,448.7406,399.5309,447.0955,401.176,441.6831,395.12,449.45" style="stroke:#000000;stroke-width:1;stroke-linejoin:miter;stroke-miterlimit:10;"/><text fill="#000000" font-family="monospace" font-size="13" lengthAdjust="spacing" textLength="156.5332" x="693" y="335.9169">AuthZEN&#160;+&#160;native&#160;API</text></g><!--link lb to pgd_b--><g class="link" data-entity-1="ent0002" data-entity-2="ent0008" data-link-type="dependency" data-source-line="39" id="lnk16"><path d="M868,297.18 C868,333.74 868,399.7 868,444.4" fill="none" id="lb-to-pgd_b" style="stroke:#000000;stroke-width:1;"/><polygon fill="#000000" points="868,449.4,872,440.4,868,444.4,864,440.4,868,449.4" style="stroke:#000000;stroke-width:1;stroke-linejoin:miter;stroke-miterlimit:10;"/></g><!--link pgd_a to opa_a--><g class="link" data-entity-1="ent0004" data-entity-2="ent0005" data-link-type="dependency" data-source-line="40" id="lnk17"><path d="M243.46,524.24 C233.7,531.55 225.05,540.3 219,550.74 C209.19,567.65 206.43,579.75 219,594.74 C235.39,614.28 307.35,608.22 332,614.74 C340.31,616.93 344.2005,617.9974 352.6805,620.7874" fill="none" id="pgd_a-to-opa_a" style="stroke:#000000;stroke-width:1;stroke-dasharray:7,7;"/><polygon fill="#000000" points="357.43,622.35,350.1309,615.7376,352.6805,620.7874,347.6307,623.3369,357.43,622.35" style="stroke:#000000;stroke-width:1;stroke-linejoin:miter;stroke-miterlimit:10;"/><text fill="#000000" font-family="monospace" font-size="13" lengthAdjust="spacing" textLength="109.5732" x="233.8267" y="569.8069">consult&#160;policy</text><text fill="#000000" font-family="monospace" font-size="13" lengthAdjust="spacing" textLength="125.2266" x="226" y="584.9397">(if&#160;OPA_URL&#160;set)</text></g><!--link opa_a to pgd_a--><g class="link" data-entity-1="ent0005" data-entity-2="ent0004" data-link-type="dependency" data-source-line="41" id="lnk18"><path d="M403.34,614.62 C393.08,595.79 379.36,571.54 366,550.74 C361.87,544.31 360.1892,541.7078 355.6392,535.2478" fill="none" id="opa_a-to-pgd_a" style="stroke:#000000;stroke-width:1;stroke-dasharray:7,7;"/><polygon fill="#000000" points="352.76,531.16,354.6723,540.8214,355.6392,535.2478,361.2128,536.2147,352.76,531.16" style="stroke:#000000;stroke-width:1;stroke-linejoin:miter;stroke-miterlimit:10;"/><text fill="#000000" font-family="monospace" font-size="13" lengthAdjust="spacing" textLength="117.3999" x="399.17" y="577.3069">native&#160;callback</text></g><!--link pgd_b to opa_b--><g class="link" data-entity-1="ent0008" data-entity-2="ent0009" data-link-type="dependency" data-source-line="42" id="lnk19"><path d="M855.74,531.14 C855.42,557.11 858.1632,585.6992 864.7932,609.7892" fill="none" id="pgd_b-to-opa_b" style="stroke:#000000;stroke-width:1;stroke-dasharray:7,7;"/><polygon fill="#000000" points="866.12,614.61,867.5884,604.8712,864.7932,609.7892,859.8752,606.994,866.12,614.61" style="stroke:#000000;stroke-width:1;stroke-linejoin:miter;stroke-miterlimit:10;"/></g><!--link opa_b to pgd_b--><g class="link" data-entity-1="ent0009" data-entity-2="ent0008" data-link-type="dependency" data-source-line="43" id="lnk20"><path d="M896.98,614.61 C898.31,590.52 896.1709,561.9804 890.1409,536.0104" fill="none" id="opa_b-to-pgd_b" style="stroke:#000000;stroke-width:1;stroke-dasharray:7,7;"/><polygon fill="#000000" points="889.01,531.14,887.1492,540.8115,890.1409,536.0104,894.9419,539.0021,889.01,531.14" style="stroke:#000000;stroke-width:1;stroke-linejoin:miter;stroke-miterlimit:10;"/></g><!--link pgd_a to pgr_a--><g class="link" data-entity-1="ent0004" data-entity-2="ent0006" data-link-type="dependency" data-source-line="44" id="lnk21"><path d="M243.49,500.16 C180.62,509 100.18,525.03 80,550.74 C67.93,566.12 68.35,579.03 80,594.74 C105.2,628.73 147.3683,640.449 185.4783,644.519" fill="none" id="pgd_a-to-pgr_a" style="stroke:#000000;stroke-width:1;"/><polygon fill="#000000" points="190.45,645.05,181.9257,640.1169,185.4783,644.519,181.0761,648.0717,190.45,645.05" style="stroke:#000000;stroke-width:1;stroke-linejoin:miter;stroke-miterlimit:10;"/><text fill="#000000" font-family="monospace" font-size="13" lengthAdjust="spacing" textLength="70.4399" x="87" y="577.3069">SQL&#160;(pgx)</text></g><!--link pgd_b to pgr_b--><g class="link" data-entity-1="ent0008" data-entity-2="ent0010" data-link-type="dependency" data-source-line="45" id="lnk22"><path d="M798.38,530.96 C790.07,537.06 782.05,543.69 775,550.74 C755.27,570.45 741.0238,593.214 730.1438,613.494" fill="none" id="pgd_b-to-pgr_b" style="stroke:#000000;stroke-width:1;"/><polygon fill="#000000" points="727.78,617.9,735.5595,611.8602,730.1438,613.494,728.51,608.0782,727.78,617.9" style="stroke:#000000;stroke-width:1;stroke-linejoin:miter;stroke-miterlimit:10;"/></g><!--link app to pgd_w--><g class="link" data-entity-1="ent0001" data-entity-2="ent0012" data-link-type="dependency" data-source-line="49" id="lnk23"><path d="M1018.15,180.04 C1022.68,186.26 1026.79,192.83 1030,199.55 C1071.48,286.5 1079.9213,397.4922 1081.5613,452.6222" fill="none" id="app-to-pgd_w" style="stroke:#000000;stroke-width:1;"/><polygon fill="#000000" points="1081.71,457.62,1085.4406,448.505,1081.5613,452.6222,1077.4442,448.7429,1081.71,457.62" style="stroke:#000000;stroke-width:1;stroke-linejoin:miter;stroke-miterlimit:10;"/><text fill="#000000" font-family="monospace" font-size="13" lengthAdjust="spacing" textLength="46.96" x="1116.35" y="269.7669">writes</text><text fill="#000000" font-family="monospace" font-size="13" lengthAdjust="spacing" textLength="140.8799" x="1069.39" y="284.8997">(JWT:&#160;writer&#160;role)</text></g><!--link pgd_w to pgp--><g class="link" data-entity-1="ent0012" data-entity-2="ent0013" data-link-type="dependency" data-source-line="50" id="lnk24"><path d="M1077.7,522.98 C1073.91,550.92 1069.1137,586.2956 1065.4737,613.0656" fill="none" id="pgd_w-to-pgp" style="stroke:#000000;stroke-width:1;"/><polygon fill="#000000" points="1064.8,618.02,1069.9761,609.641,1065.4737,613.0656,1062.0491,608.5631,1064.8,618.02" style="stroke:#000000;stroke-width:1;stroke-linejoin:miter;stroke-miterlimit:10;"/><text fill="#000000" font-family="monospace" font-size="13" lengthAdjust="spacing" textLength="180.0132" x="1080.38" y="577.3069">SQL&#160;(pgx,&#160;authz_writer)</text></g><!--link pgp to pgr_a--><g class="link" data-entity-1="ent0013" data-entity-2="ent0006" data-link-type="dependency" data-source-line="53" id="lnk25"><path d="M1002.59,625.03 C990.92,621.19 978.66,617.53 967,614.74 C930.73,606.05 697.82,551.49 556,566.62 C455.18,577.37 430.16,585.76 333,614.74 C324.62,617.24 320.5828,618.4919 312.0528,621.5719" fill="none" id="pgp-to-pgr_a" style="stroke:#000000;stroke-width:1;"/><polygon fill="#000000" points="307.35,623.27,317.1735,623.9757,312.0528,621.5719,314.4566,616.4512,307.35,623.27" style="stroke:#000000;stroke-width:1;stroke-linejoin:miter;stroke-miterlimit:10;"/><text fill="#000000" font-family="monospace" font-size="13" lengthAdjust="spacing" textLength="23.48" x="578.6533" y="577.3069">WAL</text></g><!--link pgp to pgr_b--><g class="link" data-entity-1="ent0013" data-entity-2="ent0010" data-link-type="dependency" data-source-line="54" id="lnk26"><path d="M1003.67,617.98 C963.26,599.19 907.26,576.46 855,566.62 C825.3,561.03 814.63,554.38 787,566.62 C763.21,577.15 746.6877,595.5833 733.9077,614.1233" fill="none" id="pgp-to-pgr_b" style="stroke:#000000;stroke-width:1;"/><polygon fill="#000000" points="731.07,618.24,739.4713,613.1001,733.9077,614.1233,732.8845,608.5597,731.07,618.24" style="stroke:#000000;stroke-width:1;stroke-linejoin:miter;stroke-miterlimit:10;"/><text fill="#000000" font-family="monospace" font-size="13" lengthAdjust="spacing" textLength="23.48" x="809.6533" y="577.3069">WAL</text></g><g class="legend" data-source-line="56"><rect fill="none" height="224.0781" rx="7.5" ry="7.5" style="stroke:#000000;stroke-width:1;" width="1116.4463" x="10" y="719.33"/><text fill="#000000" font-family="monospace" font-size="14" font-weight="700" lengthAdjust="spacing" textLength="42.1436" x="35.4287" y="751.3251">Color</text><text fill="#000000" font-family="monospace" font-size="14" font-weight="700" lengthAdjust="spacing" textLength="75.8584" x="106.4297" y="751.3251">Component</text><rect fill="#98FB98" height="28.2969" style="stroke:none;stroke-width:1;" width="71.001" x="21" y="760.6269"/><text fill="#000000" font-family="monospace" font-size="14" lengthAdjust="spacing" textLength="8.4287" x="27" y="779.622">&#160;</text><text fill="#000000" font-family="monospace" font-size="14" lengthAdjust="spacing" textLength="994.5879" x="106.4297" y="779.622">pgauthzd&#160;(reader)&#160;&#8212;&#160;the&#160;front&#160;door;&#160;AuthZEN&#160;+&#160;native&#160;API;&#160;answers&#160;direct&#160;(decision-only)&#160;or&#160;consults&#160;OPA&#160;(OPA_URL&#160;set)</text><rect fill="#FA8072" height="28.2969" style="stroke:none;stroke-width:1;" width="71.001" x="21" y="788.9238"/><text fill="#000000" font-family="monospace" font-size="14" lengthAdjust="spacing" textLength="8.4287" x="27" y="807.9189">&#160;</text><text fill="#000000" font-family="monospace" font-size="14" lengthAdjust="spacing" textLength="775.4414" x="106.4297" y="807.9189">pgauthzd&#160;(writer)&#160;&#8212;&#160;full&#160;profile;&#160;verifies&#160;the&#160;writer&#160;role,&#160;applies&#160;the&#160;write&#160;to&#160;the&#160;primary</text><rect fill="#ADD8E6" height="28.2969" style="stroke:none;stroke-width:1;" width="71.001" x="21" y="817.2206"/><text fill="#000000" font-family="monospace" font-size="14" lengthAdjust="spacing" textLength="8.4287" x="27" y="836.2157">&#160;</text><text fill="#000000" font-family="monospace" font-size="14" lengthAdjust="spacing" textLength="472.0078" x="106.4297" y="836.2157">OPA&#160;&#8212;&#160;opt-in&#160;Rego&#160;policy&#160;sidecar;&#160;ONLY&#160;pgauthzd&#160;calls&#160;it</text><rect fill="#FFA500" height="28.2969" style="stroke:none;stroke-width:1;" width="71.001" x="21" y="845.5175"/><text fill="#000000" font-family="monospace" font-size="14" lengthAdjust="spacing" textLength="8.4287" x="27" y="864.5126">&#160;</text><text fill="#000000" font-family="monospace" font-size="14" lengthAdjust="spacing" textLength="261.29" x="106.4297" y="864.5126">PostgreSQL&#160;primary&#160;&#8212;&#160;read-write</text><rect fill="#FFFFE0" height="28.2969" style="stroke:none;stroke-width:1;" width="71.001" x="21" y="873.8144"/><text fill="#000000" font-family="monospace" font-size="14" lengthAdjust="spacing" textLength="8.4287" x="27" y="892.8095">&#160;</text><text fill="#000000" font-family="monospace" font-size="14" lengthAdjust="spacing" textLength="303.4336" x="106.4297" y="892.8095">PostgreSQL&#160;replica&#160;&#8212;&#160;read-only&#160;(WAL)</text><rect fill="#DDA0DD" height="28.2969" style="stroke:none;stroke-width:1;" width="71.001" x="21" y="902.1113"/><text fill="#000000" font-family="monospace" font-size="14" lengthAdjust="spacing" textLength="8.4287" x="27" y="921.1064">&#160;</text><text fill="#000000" font-family="monospace" font-size="14" lengthAdjust="spacing" textLength="278.1475" x="106.4297" y="921.1064">Load&#160;Balancer&#160;&#8212;&#160;distributes&#160;reads</text><line style="stroke:#000000;stroke-width:1;" x1="21" x2="1115.4463" y1="732.33" y2="732.33"/><line style="stroke:#000000;stroke-width:1;" x1="21" x2="1115.4463" y1="760.6269" y2="760.6269"/><line style="stroke:#000000;stroke-width:1;" x1="21" x2="1115.4463" y1="788.9238" y2="788.9238"/><line style="stroke:#000000;stroke-width:1;" x1="21" x2="1115.4463" y1="817.2206" y2="817.2206"/><line style="stroke:#000000;stroke-width:1;" x1="21" x2="1115.4463" y1="845.5175" y2="845.5175"/><line style="stroke:#000000;stroke-width:1;" x1="21" x2="1115.4463" y1="873.8144" y2="873.8144"/><line style="stroke:#000000;stroke-width:1;" x1="21" x2="1115.4463" y1="902.1113" y2="902.1113"/><line style="stroke:#000000;stroke-width:1;" x1="21" x2="1115.4463" y1="930.4081" y2="930.4081"/><line style="stroke:#000000;stroke-width:1;" x1="21" x2="21" y1="732.33" y2="930.4081"/><line style="stroke:#000000;stroke-width:1;" x1="92.001" x2="92.001" y1="732.33" y2="930.4081"/><line style="stroke:#000000;stroke-width:1;" x1="1115.4463" x2="1115.4463" y1="732.33" y2="930.4081"/></g><?plantuml-src fLNTRXj55BwVfpWu5x557DAgS55390UbLIhZ62SG5LMAPdTdrwECPqOpunYN8l4Gl0YlmAFm99mpitzsMYJ0L-iz_-TytxUVXPLO2x2AIytyWzIMExw6ZESFbJCRNNnhb76mNSaWUlRShAtHGeURi5C2dCW3rvNgknIYv1iLNXaTvXnBh8qstl9S53qdRGhXXOKlptel7TSFzF95_wNbHI5r1Lyn5cJ0cgysIi7KvTHP7ZPEmD09Ne3FkIB7ps7hq0JJnTM8CPu776CmjLR9d0Tfz02u1sujO-qmC9WPp7315TUvSD53PN2qK9irOzGh37xy3fwbIgDeVrm_WryOuA-NnbPy4rRlYtTwM8XSUYmtDbhjJjxfF_-0wyNq_eVbBCNRghZdM88hyTe9eGzJeJDuYLcumsp6Xh7KAT9OJf4pMQt2XTg865dmm3FkiT75QrYAE6rTnxNURuLIPij-xStqV7-cv_zxfkm_pvJzgvcoJyzq1aFhv9gxNJFMsJ-ELHAYlaYmSTqaMpYwuGhX-xIPHKfVkreukaRiLeAwECPE4KkMXnNyzTllqDG1wG4v1zVpsLie7R832cFSALpi6ig03C2rtmhdeP34BRN3VEYyZg6LutO51rUW2unBtFPeGezKXcjykXrVpS4QtDcksJdrW_cy2CtPqBNeEioDzjY6fpvAPCrILEOakb2bpayy2WV8DkKn6sOw8Pd8L-bLb12GEfZOioS9Q2AFFMZauAC09NqG6jDGdNQsKuQyX75XjdfyJWny2OCO2VbAv0z-mF1TOqu4GeyfUlnqEKVYrycH-KyyCvRyJq_FQm9XP3rmlIP4WYpRpU2MHWEMN2ceBLSNeM5fr05Bg6yIPonXkObf2dVDk9JdvliPuhJwUTHaw7ja1AIxg6DFaHG1Ese0rM5fGeV3syXIYcHBa0PdKA6FONYtlBgzNDulhsUNaAFohp59y4ALySYSDB8VMEzJxKvXRYAuZ4uMlt-fn1QSAHbnaM_kRb_sgzT3RdiXjhy4X1dDTjzmCF6erMn6xcD7VE-l4E1kEWCOF3LdUsQcH2Lmmio4W5nIeWp8wG_VGFh8nOT663wG1RxkHEmS_tQh9x741kD13hV_CI1E3XXzGDyHOFsMTxJYOH-0RJT9YFPRgNSLMuaIPfqffHAJJsBWv2CthdbQ2sPRi5LYgabzKPMas54N3gHbadIjav8e1R9RPn98IhOmFbHEqEMRefIR5ZjEBUtraFJz8D0bQ7I1KQ26UEvkPVJnfh2zJtkCA51ydCms2DKOxJ66u95Gmlu6?></g></svg>