<svg xmlns="http://www.w3.org/2000/svg" xmlns:xlink="http://www.w3.org/1999/xlink" contentStyleType="text/css" data-diagram-type="DESCRIPTION" height="1240px" preserveAspectRatio="none" style="width:781px;height:1240px;background:#FFFFFF;" version="1.1" viewBox="0 0 781 1240" width="781px" zoomAndPan="magnify"><?plantuml 1.2026.4?><defs/><g><g class="title" data-source-line="10"><text fill="#000000" font-family="monospace" font-size="22" font-weight="700" lengthAdjust="spacing" textLength="344.373" x="217.3517" y="41.4209">Write&#160;paths&#160;to&#160;the&#160;primary</text></g><rect fill="#FFFFCC" height="16.6406" rx="2.5" ry="2.5" style="stroke:#FFDD88;stroke-width:3;" width="760.0765" x="8" y="66.6094"/><text fill="#000000" font-family="monospace" font-size="10" lengthAdjust="spacing" textLength="295.0049" x="15" y="77.25">Please&#160;use&#160;CSS&#160;style&#160;instead&#160;of&#160;skinparam&#160;padding</text><!--cluster optA--><g class="cluster" data-qualified-name="optA" data-source-line="32" id="ent0005"><polygon fill="#FFFFFF" points="459.93,314.91,469.93,304.91,725.93,304.91,725.93,688.66,715.93,698.66,459.93,698.66,459.93,314.91" style="stroke:#000000;stroke-width:1;stroke-linejoin:miter;stroke-miterlimit:10;"/><line style="stroke:#000000;stroke-width:1;" x1="715.93" x2="725.93" y1="314.91" y2="304.91"/><line style="stroke:#000000;stroke-width:1;" x1="459.93" x2="715.93" y1="314.91" y2="314.91"/><line style="stroke:#000000;stroke-width:1;" x1="715.93" x2="715.93" y1="314.91" y2="698.66"/><text fill="#000000" font-family="monospace" font-size="14" font-weight="700" lengthAdjust="spacing" textLength="118.002" x="529.929" y="336.9051">HTTP&#160;Write&#160;API</text></g><!--entity opa--><g class="entity" data-qualified-name="optA.opa" data-source-line="33" id="ent0006"><rect fill="#ADD8E6" height="64.5938" rx="2.5" ry="2.5" style="stroke:#000000;stroke-width:1;" width="74.1436" x="495.86" y="356.91"/><text fill="#000000" font-family="monospace" font-size="14" lengthAdjust="spacing" textLength="25.2861" x="511.86" y="385.9051">OPA</text><text fill="#000000" font-family="monospace" font-size="14" lengthAdjust="spacing" textLength="42.1436" x="511.86" y="402.202">:8181</text></g><!--entity pgrst--><g class="entity" data-qualified-name="optA.pgrst" data-source-line="34" id="ent0007"><rect fill="#FA8072" height="64.5938" rx="2.5" ry="2.5" style="stroke:#000000;stroke-width:1;" width="234.2891" x="475.78" y="618.07"/><text fill="#000000" font-family="monospace" font-size="14" lengthAdjust="spacing" textLength="134.8594" x="491.78" y="647.0651">PostgREST&#160;Writer</text><text fill="#000000" font-family="monospace" font-size="14" lengthAdjust="spacing" textLength="202.2891" x="491.78" y="663.362">(internal,&#160;authz_writer)</text></g><!--entity appA--><g class="entity" data-qualified-name="appA" data-source-line="12" id="ent0001"><ellipse cx="532.9279" cy="99.25" fill="#FFFFFF" rx="8" ry="8" style="stroke:#000000;stroke-width:1;"/><path d="M532.9279,107.25 L532.9279,134.25 M519.9279,115.25 L545.9279,115.25 M532.9279,134.25 L519.9279,149.25 M532.9279,134.25 L545.9279,149.25" fill="none" style="stroke:#000000;stroke-width:1;"/><text fill="#000000" font-family="monospace" font-size="14" lengthAdjust="spacing" textLength="92.7158" x="486.57" y="170.2451">App&#160;without</text><text fill="#000000" font-family="monospace" font-size="14" lengthAdjust="spacing" textLength="75.8584" x="486.57" y="186.542">DB&#160;access</text></g><!--entity appB--><g class="entity" data-qualified-name="appB" data-source-line="13" id="ent0002"><ellipse cx="48.9292" cy="606.57" fill="#FFFFFF" rx="8" ry="8" style="stroke:#000000;stroke-width:1;"/><path d="M48.9292,614.57 L48.9292,641.57 M35.9292,622.57 L61.9292,622.57 M48.9292,641.57 L35.9292,656.57 M48.9292,641.57 L61.9292,656.57" fill="none" style="stroke:#000000;stroke-width:1;"/><text fill="#000000" font-family="monospace" font-size="14" lengthAdjust="spacing" textLength="67.4297" x="11" y="677.5651">App&#160;with</text><text fill="#000000" font-family="monospace" font-size="14" lengthAdjust="spacing" textLength="75.8584" x="11" y="693.862">DB&#160;access</text></g><!--entity appC--><g class="entity" data-qualified-name="appC" data-source-line="14" id="ent0003"><ellipse cx="289.9253" cy="606.57" fill="#FFFFFF" rx="8" ry="8" style="stroke:#000000;stroke-width:1;"/><path d="M289.9253,614.57 L289.9253,641.57 M276.9253,622.57 L302.9253,622.57 M289.9253,641.57 L276.9253,656.57 M289.9253,641.57 L302.9253,656.57" fill="none" style="stroke:#000000;stroke-width:1;"/><text fill="#000000" font-family="monospace" font-size="14" lengthAdjust="spacing" textLength="118.002" x="226.71" y="677.5651">Co-located&#160;app</text><text fill="#000000" font-family="monospace" font-size="14" lengthAdjust="spacing" textLength="126.4307" x="226.71" y="693.862">(same&#160;database)</text></g><g class="entity" data-qualified-name="N1" data-source-line="17" id="ent0004"><path d="M105.81,279.84 L105.81,498.5666 A0,0 0 0 0 105.81,498.5666 L444.0497,498.5666 A0,0 0 0 0 444.0497,498.5666 L444.0497,393.21 L495.62,389.21 L444.0497,385.21 L444.0497,289.84 L434.0497,279.84 L105.81,279.84 A0,0 0 0 0 105.81,279.84" fill="#FFFFFF" style="stroke:#000000;stroke-width:1;"/><path d="M434.0497,279.84 L434.0497,289.84 L444.0497,289.84 L434.0497,279.84" fill="#FFFFFF" style="stroke:#000000;stroke-width:1;"/><text fill="#000000" font-family="monospace" font-size="13" font-weight="700" lengthAdjust="spacing" textLength="187.8398" x="117.81" y="302.9069">A:&#160;OPA-fronted&#160;write&#160;API</text><text fill="#000000" font-family="monospace" font-size="13" lengthAdjust="spacing" textLength="273.9331" x="117.81" y="318.0397">OPA&#160;verifies&#160;the&#160;JWT&#160;and&#160;the&#160;writer</text><text fill="#000000" font-family="monospace" font-size="13" lengthAdjust="spacing" textLength="297.4131" x="117.81" y="333.1725">role&#160;(WRITER_ROLE&#160;in&#160;JWT_ROLES_CLAIM),</text><text fill="#000000" font-family="monospace" font-size="13" lengthAdjust="spacing" textLength="281.7598" x="117.81" y="348.3053">injects&#160;the&#160;subject&#160;as&#160;audit&#160;author,</text><text fill="#000000" font-family="monospace" font-size="13" lengthAdjust="spacing" textLength="297.4131" x="117.81" y="363.4381">then&#160;forwards&#160;to&#160;the&#160;fixed-role&#160;writer</text><text fill="#000000" font-family="monospace" font-size="13" lengthAdjust="spacing" textLength="242.6265" x="117.81" y="378.571">(which&#160;does&#160;no&#160;JWT&#160;of&#160;its&#160;own).</text><text fill="#000000" font-family="monospace" font-size="13" lengthAdjust="spacing" textLength="7.8267" x="117.81" y="393.7038">&#160;</text><text fill="#000000" font-family="monospace" font-size="13" lengthAdjust="spacing" textLength="273.9331" x="117.81" y="408.8366">Multi-app:&#160;a&#160;per-app&#160;DB&#160;role&#160;from&#160;a</text><text fill="#000000" font-family="monospace" font-size="13" lengthAdjust="spacing" textLength="219.1465" x="117.81" y="423.9694">JWT&#160;claim&#160;(DB_ROLE_CLAIM)&#160;is</text><text fill="#000000" font-family="monospace" font-size="13" lengthAdjust="spacing" textLength="305.2397" x="117.81" y="439.1022">forwarded&#160;as&#160;X-Authz-Role;&#160;the&#160;writer's</text><text fill="#000000" font-family="monospace" font-size="13" lengthAdjust="spacing" textLength="289.5864" x="117.81" y="454.235">_pre_request()&#160;SET&#160;LOCAL&#160;ROLEs&#160;to&#160;it,</text><text fill="#000000" font-family="monospace" font-size="13" lengthAdjust="spacing" textLength="15.6533" x="117.81" y="469.3678">so</text><text fill="#000000" font-family="monospace" font-size="13" font-weight="700" lengthAdjust="spacing" textLength="148.7065" x="141.29" y="469.3678">namespace&#160;isolation</text><text fill="#000000" font-family="monospace" font-size="13" lengthAdjust="spacing" textLength="54.7866" x="297.8232" y="469.3678">applies</text><text fill="#000000" font-family="monospace" font-size="13" lengthAdjust="spacing" textLength="62.6133" x="117.81" y="484.5006">per&#160;app.</text></g><!--entity pg--><g class="entity" data-qualified-name="pg" data-source-line="37" id="ent0008"><path d="M231.79,827.16 C231.79,817.16 289.9336,817.16 289.9336,817.16 C289.9336,817.16 348.0771,817.16 348.0771,827.16 L348.0771,880.7538 C348.0771,890.7538 289.9336,890.7538 289.9336,890.7538 C289.9336,890.7538 231.79,890.7538 231.79,880.7538 L231.79,827.16" fill="#FFA500" style="stroke:#000000;stroke-width:1;"/><path d="M231.79,827.16 C231.79,837.16 289.9336,837.16 289.9336,837.16 C289.9336,837.16 348.0771,837.16 348.0771,827.16" fill="none" style="stroke:#000000;stroke-width:1;"/><text fill="#000000" font-family="monospace" font-size="14" lengthAdjust="spacing" textLength="84.2871" x="247.79" y="860.1551">PostgreSQL</text><text fill="#000000" font-family="monospace" font-size="14" lengthAdjust="spacing" textLength="59.001" x="247.79" y="876.452">primary</text></g><g class="entity" data-qualified-name="GMN15" data-source-line="50" id="ent0016"><path d="M97.33,931.76 L97.33,1074.8225 A0,0 0 0 0 97.33,1074.8225 L482.5297,1074.8225 A0,0 0 0 0 482.5297,1074.8225 L482.5297,941.76 L472.5297,931.76 L293.93,931.76 L289.93,891 L285.93,931.76 L97.33,931.76 A0,0 0 0 0 97.33,931.76" fill="#FFFFFF" style="stroke:#000000;stroke-width:1;"/><path d="M472.5297,931.76 L472.5297,941.76 L482.5297,941.76 L472.5297,931.76" fill="#FFFFFF" style="stroke:#000000;stroke-width:1;"/><text fill="#000000" font-family="monospace" font-size="13" lengthAdjust="spacing" textLength="352.1997" x="109.33" y="954.8269">All&#160;three&#160;paths&#160;land&#160;in&#160;the&#160;same&#160;function&#160;API</text><text fill="#000000" font-family="monospace" font-size="13" lengthAdjust="spacing" textLength="344.373" x="109.33" y="969.9597">(SECURITY&#160;DEFINER;&#160;app&#160;roles&#160;never&#160;get&#160;table</text><text fill="#000000" font-family="monospace" font-size="13" lengthAdjust="spacing" textLength="336.5464" x="109.33" y="985.0925">grants)&#160;and&#160;the&#160;same&#160;immutable&#160;audit&#160;trail.</text><text fill="#000000" font-family="monospace" font-size="13" lengthAdjust="spacing" textLength="234.7998" x="109.33" y="1000.2253">C&#160;additionally&#160;makes&#160;the&#160;grant</text><text fill="#000000" font-family="monospace" font-size="13" font-weight="700" lengthAdjust="spacing" textLength="46.96" x="351.9565" y="1000.2253">atomic</text><text fill="#000000" font-family="monospace" font-size="13" lengthAdjust="spacing" textLength="31.3066" x="406.7431" y="1000.2253">with</text><text fill="#000000" font-family="monospace" font-size="13" lengthAdjust="spacing" textLength="313.0664" x="109.33" y="1015.3581">the&#160;business&#160;change&#160;&#8212;&#160;see&#160;the&#160;co-located</text><text fill="#000000" font-family="monospace" font-size="13" lengthAdjust="spacing" textLength="352.1997" x="109.33" y="1030.491">topology.&#160;Apps&#160;whose&#160;tuples&#160;derive&#160;from&#160;their</text><text fill="#000000" font-family="monospace" font-size="13" lengthAdjust="spacing" textLength="305.2397" x="109.33" y="1045.6238">own&#160;DB&#160;rows&#160;typically&#160;feed&#160;A&#160;or&#160;B&#160;via&#160;a</text><text fill="#000000" font-family="monospace" font-size="13" font-weight="700" lengthAdjust="spacing" textLength="156.5332" x="109.33" y="1060.7566">transactional&#160;outbox</text><text fill="#000000" font-family="monospace" font-size="13" lengthAdjust="spacing" textLength="148.7065" x="273.6899" y="1060.7566">(MODEL_DESIGN&#160;&#167;10).</text></g><!--link appA to opa--><g class="link" data-entity-1="ent0001" data-entity-2="ent0006" data-link-type="dependency" data-source-line="41" id="lnk10"><path d="M532.93,196.13 C532.93,244.86 532.93,311.09 532.93,351.71" fill="none" id="appA-to-opa" style="stroke:#000000;stroke-width:1;"/><polygon fill="#000000" points="532.93,356.71,536.93,347.71,532.93,351.71,528.93,347.71,532.93,356.71" style="stroke:#000000;stroke-width:1;stroke-linejoin:miter;stroke-miterlimit:10;"/><text fill="#000000" font-family="monospace" font-size="13" lengthAdjust="spacing" textLength="219.1465" x="539.93" y="234.9069">A:&#160;POST&#160;/v1/data/authz/write</text><text fill="#000000" font-family="monospace" font-size="13" lengthAdjust="spacing" textLength="140.8799" x="579.0633" y="250.0397">(JWT:&#160;writer&#160;role)</text></g><!--link opa to pgrst--><g class="link" data-entity-1="ent0006" data-entity-2="ent0007" data-link-type="dependency" data-source-line="42" id="lnk11"><path d="M540.29,421.98 C551.83,471.86 572.9518,563.079 584.4818,612.859" fill="none" id="opa-to-pgrst" style="stroke:#000000;stroke-width:1;"/><polygon fill="#000000" points="585.61,617.73,587.476,608.0595,584.4818,612.859,579.6824,609.8647,585.61,617.73" style="stroke:#000000;stroke-width:1;stroke-linejoin:miter;stroke-miterlimit:10;"/><text fill="#000000" font-family="monospace" font-size="13" lengthAdjust="spacing" textLength="156.5332" x="582.2" y="537.6369">forward&#160;write/delete</text><text fill="#000000" font-family="monospace" font-size="13" lengthAdjust="spacing" textLength="133.0532" x="593.94" y="552.7697">(authorized&#160;only,</text><text fill="#000000" font-family="monospace" font-size="13" lengthAdjust="spacing" textLength="117.3999" x="601.7667" y="567.9025">+&#160;X-Authz-Role)</text></g><!--link pgrst to pg--><g class="link" data-entity-1="ent0007" data-entity-2="ent0008" data-link-type="dependency" data-source-line="43" id="lnk12"><path d="M589.93,683.04 C585.05,716.39 572.26,768.03 538.93,797.16 C510.95,821.62 417.6782,837.3348 353.2782,845.7148" fill="none" id="pgrst-to-pg" style="stroke:#000000;stroke-width:1;"/><polygon fill="#000000" points="348.32,846.36,357.7609,849.1652,353.2782,845.7148,356.7286,841.2321,348.32,846.36" style="stroke:#000000;stroke-width:1;stroke-linejoin:miter;stroke-miterlimit:10;"/><text fill="#000000" font-family="monospace" font-size="13" lengthAdjust="spacing" textLength="133.0532" x="587.41" y="757.2269">SQL&#160;(authz_writer</text><text fill="#000000" font-family="monospace" font-size="13" lengthAdjust="spacing" textLength="125.2266" x="591.3233" y="772.3597">or&#160;per-app&#160;role)</text></g><!--link appB to pg--><g class="link" data-entity-1="ent0002" data-entity-2="ent0008" data-link-type="dependency" data-source-line="45" id="lnk13"><path d="M48.76,703.5 C51.43,734.53 59.99,772.52 83.93,797.16 C122.27,836.63 180.4642,848.703 226.7542,852.203" fill="none" id="appB-to-pg" style="stroke:#000000;stroke-width:1;"/><polygon fill="#000000" points="231.74,852.58,223.0672,847.9128,226.7542,852.203,222.464,855.8901,231.74,852.58" style="stroke:#000000;stroke-width:1;stroke-linejoin:miter;stroke-miterlimit:10;"/><text fill="#000000" font-family="monospace" font-size="13" lengthAdjust="spacing" textLength="101.7466" x="126.15" y="742.2269">B:&#160;direct&#160;SQL</text><text fill="#000000" font-family="monospace" font-size="13" lengthAdjust="spacing" textLength="117.3999" x="118.3233" y="757.3597">write_tuple()&#160;/</text><text fill="#000000" font-family="monospace" font-size="13" lengthAdjust="spacing" textLength="172.1865" x="90.93" y="772.4925">write_tuples_checked()</text><text fill="#000000" font-family="monospace" font-size="13" lengthAdjust="spacing" textLength="148.7065" x="102.67" y="787.6253">(authz_writer&#160;role)</text></g><!--link appC to pg--><g class="link" data-entity-1="ent0003" data-entity-2="ent0008" data-link-type="dependency" data-source-line="47" id="lnk14"><path d="M284.25,703.48 C283.7,710.1 283.24,716.78 282.93,723.16 C281.33,756.01 280.88,764.34 282.93,797.16 C283.32,803.5 283.4044,805.2421 284.1444,811.7421" fill="none" id="appC-to-pg" style="stroke:#000000;stroke-width:1;"/><polygon fill="#000000" points="284.71,816.71,287.6663,807.3153,284.1444,811.7421,279.7176,808.2202,284.71,816.71" style="stroke:#000000;stroke-width:1;stroke-linejoin:miter;stroke-miterlimit:10;"/><text fill="#000000" font-family="monospace" font-size="13" lengthAdjust="spacing" textLength="101.7466" x="356.4566" y="749.7269">C:&#160;co-located</text><text fill="#000000" font-family="monospace" font-size="13" lengthAdjust="spacing" textLength="234.7998" x="289.93" y="764.8597">business&#160;write&#160;+&#160;write_tuple()</text><text fill="#000000" font-family="monospace" font-size="13" lengthAdjust="spacing" textLength="140.8799" x="336.89" y="779.9925">in&#160;ONE&#160;transaction</text></g><g class="legend" data-source-line="60"><rect fill="none" height="139.1875" rx="7.5" ry="7.5" style="stroke:#000000;stroke-width:1;" width="652.8672" x="10" y="1088.8225"/><text fill="#000000" font-family="monospace" font-size="14" font-weight="700" lengthAdjust="spacing" textLength="42.1436" x="35.4287" y="1120.8176">Color</text><text fill="#000000" font-family="monospace" font-size="14" font-weight="700" lengthAdjust="spacing" textLength="75.8584" x="106.4297" y="1120.8176">Component</text><rect fill="#ADD8E6" height="28.2969" style="stroke:none;stroke-width:1;" width="71.001" x="21" y="1130.1194"/><text fill="#000000" font-family="monospace" font-size="14" lengthAdjust="spacing" textLength="8.4287" x="27" y="1149.1145">&#160;</text><text fill="#000000" font-family="monospace" font-size="14" lengthAdjust="spacing" textLength="438.293" x="106.4297" y="1149.1145">OPA&#160;&#8212;&#160;verifies&#160;JWT&#160;+&#160;writer&#160;role,&#160;forwards&#160;the&#160;write</text><rect fill="#FA8072" height="28.2969" style="stroke:none;stroke-width:1;" width="71.001" x="21" y="1158.4163"/><text fill="#000000" font-family="monospace" font-size="14" lengthAdjust="spacing" textLength="8.4287" x="27" y="1177.4114">&#160;</text><text fill="#000000" font-family="monospace" font-size="14" lengthAdjust="spacing" textLength="531.0088" x="106.4297" y="1177.4114">PostgREST&#160;Writer&#160;&#8212;&#160;fixed&#160;authz_writer&#160;(or&#160;per-app)&#160;role,&#160;no&#160;JWT</text><rect fill="#FFA500" height="28.2969" style="stroke:none;stroke-width:1;" width="71.001" x="21" y="1186.7131"/><text fill="#000000" font-family="monospace" font-size="14" lengthAdjust="spacing" textLength="8.4287" x="27" y="1205.7082">&#160;</text><text fill="#000000" font-family="monospace" font-size="14" lengthAdjust="spacing" textLength="210.7178" x="106.4297" y="1205.7082">PostgreSQL&#160;&#8212;&#160;authz&#160;schema</text><line style="stroke:#000000;stroke-width:1;" x1="21" x2="651.8672" y1="1101.8225" y2="1101.8225"/><line style="stroke:#000000;stroke-width:1;" x1="21" x2="651.8672" y1="1130.1194" y2="1130.1194"/><line style="stroke:#000000;stroke-width:1;" x1="21" x2="651.8672" y1="1158.4163" y2="1158.4163"/><line style="stroke:#000000;stroke-width:1;" x1="21" x2="651.8672" y1="1186.7131" y2="1186.7131"/><line style="stroke:#000000;stroke-width:1;" x1="21" x2="651.8672" y1="1215.01" y2="1215.01"/><line style="stroke:#000000;stroke-width:1;" x1="21" x2="21" y1="1101.8225" y2="1215.01"/><line style="stroke:#000000;stroke-width:1;" x1="92.001" x2="92.001" y1="1101.8225" y2="1215.01"/><line style="stroke:#000000;stroke-width:1;" x1="651.8672" x2="651.8672" y1="1101.8225" y2="1215.01"/></g><?plantuml-src RLNHRY8t57sVhxWb3mKImYArrOfjLmB2Rga8f42LLa92PiOCRemzjJrXIRTIFwB_qF_ef_HBUkoP8PEeRsFx-lZSUyyzyuNRymEdJ3AX8liWLCOCEz2MnG-fqRbAHbfgGyUzSBns7kj3fXLNRkbEafFXiMCgbVMGXEzOBjq7hToCuOc3LjfcBEP9BKZfX5kUqTTlQfk6gGU_-LLzCsD98bHAtqIH4mvltXjGmhRRMtAQa0TbHXoOEKKHYnr8DmPPHaVXzZftQtKp91R7tDe6CKiiomQlm_udPbZ5Z7H7wfWvdlZjjMfQdrF27DioorjL_2YAb0Ojh6QzYAZT7lHfVZVex0pgWCl7m7fmDsctSOmJUkH6x0It8OCVxbV4L1A-GwX1bD58jtc_cAp6YyrYFXsJK3uoV2yte-bWSjkwGg1Glw8H1PBDjtuHUEM9m4UEGXWVXcD5EssEp2Jdskt49vvqmbFdXvjeUxodH8ETqe6Stf702_geMjSHGcxHOj51vdrYb77ZFmbb3418-a0CKVvc38aTg7ap3BHBrYGiZaiklhQMVkuCmFIfim32kreXllIHcypmZU6_vTowPekMunLDvwF1b3nco4KudwBLABr2YuBYy8gMp0cjsctV9Obo8mXq_UewugYuRvjlNiAfyVrgTLVg2vqAlTMP6z3lk4JFsgS6-hTM_RUzjxqoYD75LAHxDvGvVnryfwrB5-Fbge0s49609enYyYfqvsbJP5geAKkDTNInP1AJ4_qHHPNOIYJ3bpzErwhKV7c5BkQOdXIPp7hKCPvAvxtdXPc0ugcJe7F53lMX_3xTpK6e-zZhUlXkeD4DD40FRUkNrGyDRJKYVx42AHW2fknV4TfDkEJXUg4uyOI-QYLFLsjr-QAxW2iWdW4z6jAYPhqUQuK9hBHLyl3f35zT7FOf4TwAA5GcNDwuF9CSKkc-sB2RUC_Z1vuqMoNHwh7w0wDN3upww6Vb0skrpQrGC8jog2_fnOjhXIcTpyRaq14B6u7y6gKzRBLp60qCKvP29WCf8NJ3ApkJtW9mEyonzvbThi9zBqS_bylnw2VOmIzqC_umcOqNxwWg3GQLmr4evOuW5-bLc8A0iwspiGH8SJZa8Q2q1x0KyXhH8_9EwrzZKfxem1vARmem62i6wYB697dFBEo4pgM8zrv-zE-VVv55FlxikMG-M6VueQIdQuBhed9x3K4NBS4VmuZ7qZLmKNWBGlaBEpc2n2aJSI2ruz3KW22B8JqA5ZoctQuLcac2wM_r9z1itivlnjFDpNWv-JYZV_xklMdLHrxor2_AbaY-Sm3x_1qLFxxmKOtmPtz2tpwF-7iilOVxTCy-xitkiZusLpMphUpiZ5NCjmTwxGy1DTZo2tUWvlCqj4hyqfmhpC83pfZ1AG9Qm24BxHyOedtUHVhHVm00?></g></svg>