<svg xmlns="http://www.w3.org/2000/svg" xmlns:xlink="http://www.w3.org/1999/xlink" contentStyleType="text/css" data-diagram-type="DESCRIPTION" height="858px" preserveAspectRatio="none" style="width:520px;height:858px;background:#FFFFFF;" version="1.1" viewBox="0 0 520 858" width="520px" zoomAndPan="magnify"><?plantuml 1.2026.4?><defs/><g><g class="title" data-source-line="10"><text fill="#000000" font-family="monospace" font-size="22" font-weight="700" lengthAdjust="spacing" textLength="476.8242" x="21" y="41.4209">Minimal&#160;Architecture&#160;with&#160;Read/Write</text></g><rect fill="#FFFFCC" height="16.6406" rx="2.5" ry="2.5" style="stroke:#FFDD88;stroke-width:3;" width="442.9932" x="36.4155" y="66.6094"/><text fill="#000000" font-family="monospace" font-size="10" lengthAdjust="spacing" textLength="295.0049" x="43.4155" y="77.25">Please&#160;use&#160;CSS&#160;style&#160;instead&#160;of&#160;skinparam&#160;padding</text><!--cluster host1--><g class="cluster" data-qualified-name="host1" data-source-line="14" id="ent0002"><polygon fill="#FFFFFF" points="49.4155,269.55,59.4155,259.55,285.4155,259.55,285.4155,673.33,275.4155,683.33,49.4155,683.33,49.4155,269.55" style="stroke:#000000;stroke-width:1;stroke-linejoin:miter;stroke-miterlimit:10;"/><line style="stroke:#000000;stroke-width:1;" x1="275.4155" x2="285.4155" y1="269.55" y2="259.55"/><line style="stroke:#000000;stroke-width:1;" x1="49.4155" x2="275.4155" y1="269.55" y2="269.55"/><line style="stroke:#000000;stroke-width:1;" x1="275.4155" x2="275.4155" y1="269.55" y2="683.33"/><text fill="#000000" font-family="monospace" font-size="14" font-weight="700" lengthAdjust="spacing" textLength="92.7158" x="117.0576" y="291.5451">Docker&#160;Host</text></g><!--entity opa1--><g class="entity" data-qualified-name="host1.opa1" data-source-line="15" id="ent0003"><rect fill="#ADD8E6" height="64.5938" rx="2.5" ry="2.5" style="stroke:#000000;stroke-width:1;" width="74.1436" x="86.3455" y="311.55"/><text fill="#000000" font-family="monospace" font-size="14" lengthAdjust="spacing" textLength="25.2861" x="102.3455" y="340.5451">OPA</text><text fill="#000000" font-family="monospace" font-size="14" lengthAdjust="spacing" textLength="42.1436" x="102.3455" y="356.842">:8181</text></g><!--entity pgrst1--><g class="entity" data-qualified-name="host1.pgrst1" data-source-line="16" id="ent0004"><rect fill="#90EE90" height="64.5938" rx="2.5" ry="2.5" style="stroke:#000000;stroke-width:1;" width="166.8594" x="64.9855" y="460.14"/><text fill="#000000" font-family="monospace" font-size="14" lengthAdjust="spacing" textLength="75.8584" x="80.9855" y="489.1351">PostgREST</text><text fill="#000000" font-family="monospace" font-size="14" lengthAdjust="spacing" textLength="134.8594" x="80.9855" y="505.432">:3000&#160;(internal)</text></g><!--entity pg1--><g class="entity" data-qualified-name="host1.pg1" data-source-line="17" id="ent0005"><path d="M120.2755,603.74 C120.2755,593.74 178.419,593.74 178.419,593.74 C178.419,593.74 236.5626,593.74 236.5626,603.74 L236.5626,657.3338 C236.5626,667.3338 178.419,667.3338 178.419,667.3338 C178.419,667.3338 120.2755,667.3338 120.2755,657.3338 L120.2755,603.74" fill="#FFA500" style="stroke:#000000;stroke-width:1;"/><path d="M120.2755,603.74 C120.2755,613.74 178.419,613.74 178.419,613.74 C178.419,613.74 236.5626,613.74 236.5626,603.74" fill="none" style="stroke:#000000;stroke-width:1;"/><text fill="#000000" font-family="monospace" font-size="14" lengthAdjust="spacing" textLength="84.2871" x="136.2755" y="636.7351">PostgreSQL</text><text fill="#000000" font-family="monospace" font-size="14" lengthAdjust="spacing" textLength="42.1436" x="136.2755" y="653.032">:5432</text></g><!--entity app1--><g class="entity" data-qualified-name="app1" data-source-line="12" id="ent0001"><ellipse cx="220.4134" cy="99.25" fill="#FFFFFF" rx="8" ry="8" style="stroke:#000000;stroke-width:1;"/><path d="M220.4134,107.25 L220.4134,134.25 M207.4134,115.25 L233.4134,115.25 M220.4134,134.25 L207.4134,149.25 M220.4134,134.25 L233.4134,149.25" fill="none" style="stroke:#000000;stroke-width:1;"/><text fill="#000000" font-family="monospace" font-size="14" lengthAdjust="spacing" textLength="92.7158" x="174.0555" y="170.2451">Application</text></g><!--link app1 to opa1--><g class="link" data-entity-1="ent0001" data-entity-2="ent0003" data-link-type="dependency" data-source-line="20" id="lnk6"><path d="M167.6555,167.4 C156.6355,176.42 146.2855,187.2 139.4155,199.55 C120.1755,234.11 118.3338,275.5969 119.9338,306.1269" fill="none" id="app1-to-opa1" style="stroke:#000000;stroke-width:1;"/><polygon fill="#000000" points="120.1955,311.12,123.719,301.923,119.9338,306.1269,115.7299,302.3417,120.1955,311.12" style="stroke:#000000;stroke-width:1;stroke-linejoin:miter;stroke-miterlimit:10;"/><text fill="#000000" font-family="monospace" font-size="13" lengthAdjust="spacing" textLength="133.0532" x="146.4155" y="218.6169">POST&#160;/v1/data/...</text><text fill="#000000" font-family="monospace" font-size="13" lengthAdjust="spacing" textLength="109.5732" x="158.1555" y="233.7497">(authz&#160;checks)</text></g><!--link opa1 to pgrst1--><g class="link" data-entity-1="ent0003" data-entity-2="ent0004" data-link-type="dependency" data-source-line="21" id="lnk7"><path d="M110.9455,376.41 C105.3155,395.3 101.3355,419.55 108.4155,440.14 C110.7655,446.98 111.5968,449.4839 115.7968,455.5739" fill="none" id="opa1-to-pgrst1" style="stroke:#000000;stroke-width:1;"/><polygon fill="#000000" points="118.6355,459.69,116.8187,450.0102,115.7968,455.5739,110.233,454.552,118.6355,459.69" style="stroke:#000000;stroke-width:1;stroke-linejoin:miter;stroke-miterlimit:10;"/><text fill="#000000" font-family="monospace" font-size="13" lengthAdjust="spacing" textLength="70.4399" x="150.6355" y="415.2069">http.send</text><text fill="#000000" font-family="monospace" font-size="13" lengthAdjust="spacing" textLength="140.8799" x="115.4155" y="430.3397">(internal&#160;network)</text></g><!--link pgrst1 to pg1--><g class="link" data-entity-1="ent0004" data-entity-2="ent0005" data-link-type="dependency" data-source-line="22" id="lnk8"><path d="M153.7655,525.21 C156.4055,540.01 159.7955,557.83 163.4155,573.74 C164.8655,580.09 165.2703,581.9827 166.9703,588.4827" fill="none" id="pgrst1-to-pg1" style="stroke:#000000;stroke-width:1;"/><polygon fill="#000000" points="168.2355,593.32,169.8281,583.6008,166.9703,588.4827,162.0884,585.625,168.2355,593.32" style="stroke:#000000;stroke-width:1;stroke-linejoin:miter;stroke-miterlimit:10;"/><text fill="#000000" font-family="monospace" font-size="13" lengthAdjust="spacing" textLength="109.5732" x="170.4155" y="563.8069">SQL&#160;(api_anon)</text></g><!--link app1 to pg1--><g class="link" data-entity-1="ent0001" data-entity-2="ent0005" data-link-type="dependency" data-source-line="23" id="lnk9"><path d="M273.0055,170.8 C281.6955,179.12 289.4655,188.77 294.4155,199.55 C363.7755,350.7 382.9255,432.94 294.4155,573.74 C281.5655,594.17 263.5874,605.5087 241.6874,613.8587" fill="none" id="app1-to-pg1" style="stroke:#000000;stroke-width:1;"/><polygon fill="#000000" points="237.0155,615.64,246.85,616.1712,241.6874,613.8587,243.9999,608.6961,237.0155,615.64" style="stroke:#000000;stroke-width:1;stroke-linejoin:miter;stroke-miterlimit:10;"/><text fill="#000000" font-family="monospace" font-size="13" lengthAdjust="spacing" textLength="78.2666" x="376.4888" y="415.2069">direct&#160;SQL</text><text fill="#000000" font-family="monospace" font-size="13" lengthAdjust="spacing" textLength="109.5732" x="360.8355" y="430.3397">(tuple&#160;writes)</text></g><g class="legend" data-source-line="25"><rect fill="none" height="139.1875" rx="7.5" ry="7.5" style="stroke:#000000;stroke-width:1;" width="366.291" x="38.4155" y="707.33"/><text fill="#000000" font-family="monospace" font-size="14" font-weight="700" lengthAdjust="spacing" textLength="42.1436" x="63.8442" y="739.3251">Color</text><text fill="#000000" font-family="monospace" font-size="14" font-weight="700" lengthAdjust="spacing" textLength="75.8584" x="134.8452" y="739.3251">Component</text><rect fill="#ADD8E6" height="28.2969" style="stroke:none;stroke-width:1;" width="71.001" x="49.4155" y="748.6269"/><text fill="#000000" font-family="monospace" font-size="14" lengthAdjust="spacing" textLength="8.4287" x="55.4155" y="767.622">&#160;</text><text fill="#000000" font-family="monospace" font-size="14" lengthAdjust="spacing" textLength="193.8604" x="134.8452" y="767.622">OPA&#160;&#8212;&#160;policy&#160;evaluation</text><rect fill="#90EE90" height="28.2969" style="stroke:none;stroke-width:1;" width="71.001" x="49.4155" y="776.9238"/><text fill="#000000" font-family="monospace" font-size="14" lengthAdjust="spacing" textLength="8.4287" x="55.4155" y="795.9189">&#160;</text><text fill="#000000" font-family="monospace" font-size="14" lengthAdjust="spacing" textLength="244.4326" x="134.8452" y="795.9189">PostgREST&#160;&#8212;&#160;internal&#160;read&#160;API</text><rect fill="#FFA500" height="28.2969" style="stroke:none;stroke-width:1;" width="71.001" x="49.4155" y="805.2206"/><text fill="#000000" font-family="monospace" font-size="14" lengthAdjust="spacing" textLength="8.4287" x="55.4155" y="824.2157">&#160;</text><text fill="#000000" font-family="monospace" font-size="14" lengthAdjust="spacing" textLength="236.0039" x="134.8452" y="824.2157">PostgreSQL&#160;&#8212;&#160;single&#160;instance</text><line style="stroke:#000000;stroke-width:1;" x1="49.4155" x2="393.7065" y1="720.33" y2="720.33"/><line style="stroke:#000000;stroke-width:1;" x1="49.4155" x2="393.7065" y1="748.6269" y2="748.6269"/><line style="stroke:#000000;stroke-width:1;" x1="49.4155" x2="393.7065" y1="776.9238" y2="776.9238"/><line style="stroke:#000000;stroke-width:1;" x1="49.4155" x2="393.7065" y1="805.2206" y2="805.2206"/><line style="stroke:#000000;stroke-width:1;" x1="49.4155" x2="393.7065" y1="833.5175" y2="833.5175"/><line style="stroke:#000000;stroke-width:1;" x1="49.4155" x2="49.4155" y1="720.33" y2="833.5175"/><line style="stroke:#000000;stroke-width:1;" x1="120.4165" x2="120.4165" y1="720.33" y2="833.5175"/><line style="stroke:#000000;stroke-width:1;" x1="393.7065" x2="393.7065" y1="720.33" y2="833.5175"/></g><?plantuml-src NPBRRXCn48Rl_HH3k4alccHfYweAAeKpKY6XgSHD9JJnJdUjzTgMTxPHIv5u29wG9s7i79goLrxx_sR-EJpZcbg2OD4urJN61OpOmX9rKqNVk_Ajjpx2gZPCU-_Qjy4xShpWEqiGIJEwokvBIhh1tl87x_WhIehMEzy5r5JkYPmlgQC09vEzouYkIPV7-vS1ozAu2bugnOObvnVZJ8iMfb4dSvhxIB0oNCCbOJd-7fDZXPh5_c0QWZKQsNWt0Em0GoYKIjbXyCxhXY9yyXtdjreE1VnK8D-kJXZCvjDhTtPQd1PPvGCMyFp2L3M_iJtzhvvBaEho_U9AcAF9P093uvYYGtkGyL35b6KTu6CaSZb2YOnBx6WJ8DBYsuL4E3a-Uh71X9b9WofIlwGwAGCEIxzoX-ThHsT2pXPNCBujnYdOU3GQNRiXzbpVWwv9Dzt1G6NfbjjO4R9c3gEEN2d4rYuuufMFZL0RuIEN8N48Gmpc1phlHFN4qqPJchGXa8iPSXzaVAiqd-H5MQea9Imzis_1qWrBAnvUmthpyc7RreVq0gyUstuklp8O-Flx3mGl8xu3kaNRvqa_bUSc9_rkD9dQrHbbQs0w_xoZrctU4NaM6UbCMdKXErbwJG8a_-ior3y0?></g></svg>