<svg xmlns="http://www.w3.org/2000/svg" xmlns:xlink="http://www.w3.org/1999/xlink" contentStyleType="text/css" data-diagram-type="DESCRIPTION" height="919px" preserveAspectRatio="none" style="width:1138px;height:919px;background:#FFFFFF;" version="1.1" viewBox="0 0 1138 919" width="1138px" zoomAndPan="magnify"><?plantuml 1.2026.6?><defs/><g><g class="title" data-source-line="10"><text fill="#000000" font-family="monospace" font-size="22" font-weight="700" lengthAdjust="spacing" textLength="635.7656" x="250.3403" y="41.4209">Read&#160;scaling&#160;with&#160;replicas&#160;(pgauthzd&#160;front&#160;door)</text></g><rect fill="#FFFFCC" height="16.6406" rx="2.5" ry="2.5" style="stroke:#FFDD88;stroke-width:3;" width="1066.14" x="33.6531" y="66.6094"/><text fill="#000000" font-family="monospace" font-size="10" lengthAdjust="spacing" textLength="295.0049" x="40.6531" y="77.25">Please&#160;use&#160;CSS&#160;style&#160;instead&#160;of&#160;skinparam&#160;padding</text><!--cluster vm1--><g class="cluster" data-qualified-name="vm1" data-source-line="16" id="ent0003"><polygon fill="#FFFFFF" points="608.7931,386.84,618.7931,376.84,1087.7931,376.84,1087.7931,678.03,1077.7931,688.03,608.7931,688.03,608.7931,386.84" style="stroke:#000000;stroke-width:1;stroke-linejoin:miter;stroke-miterlimit:10;"/><line style="stroke:#000000;stroke-width:1;" x1="1077.7931" x2="1087.7931" y1="386.84" y2="376.84"/><line style="stroke:#000000;stroke-width:1;" x1="608.7931" x2="1077.7931" y1="386.84" y2="386.84"/><line style="stroke:#000000;stroke-width:1;" x1="1077.7931" x2="1077.7931" y1="386.84" y2="688.03"/><text fill="#000000" font-family="monospace" font-size="14" font-weight="700" lengthAdjust="spacing" textLength="92.7158" x="797.9352" y="408.8351">VM&#160;1&#160;(read)</text></g><!--cluster vm2--><g class="cluster" data-qualified-name="vm2" data-source-line="22" id="ent0007"><polygon fill="#FFFFFF" points="236.7931,386.84,246.7931,376.84,584.7931,376.84,584.7931,678.03,574.7931,688.03,236.7931,688.03,236.7931,386.84" style="stroke:#000000;stroke-width:1;stroke-linejoin:miter;stroke-miterlimit:10;"/><line style="stroke:#000000;stroke-width:1;" x1="574.7931" x2="584.7931" y1="386.84" y2="376.84"/><line style="stroke:#000000;stroke-width:1;" x1="236.7931" x2="574.7931" y1="386.84" y2="386.84"/><line style="stroke:#000000;stroke-width:1;" x1="574.7931" x2="574.7931" y1="386.84" y2="688.03"/><text fill="#000000" font-family="monospace" font-size="14" font-weight="700" lengthAdjust="spacing" textLength="92.7158" x="360.4352" y="408.8351">VM&#160;2&#160;(read)</text></g><!--entity pgd3a--><g class="entity" data-qualified-name="vm1.pgd3a" data-source-line="17" id="ent0004"><rect fill="#98FB98" height="80.8906" rx="2.5" ry="2.5" style="stroke:#000000;stroke-width:1;" width="158.4307" x="624.5831" y="464.84"/><text fill="#000000" font-family="monospace" font-size="14" lengthAdjust="spacing" textLength="67.4297" x="640.5831" y="493.8351">pgauthzd</text><text fill="#000000" font-family="monospace" font-size="14" lengthAdjust="spacing" textLength="126.4307" x="640.5831" y="510.132">(decision-only,</text><text fill="#000000" font-family="monospace" font-size="14" lengthAdjust="spacing" textLength="84.2871" x="640.5831" y="526.4289">&#177;&#160;OPA_URL)</text></g><!--entity opa3a--><g class="entity" data-qualified-name="vm1.opa3a" data-source-line="18" id="ent0005"><rect fill="#ADD8E6" height="64.5938" rx="2.5" ry="2.5" style="stroke:#000000;stroke-width:1;" width="107.8584" x="963.8631" y="472.99"/><text fill="#000000" font-family="monospace" font-size="14" lengthAdjust="spacing" textLength="25.2861" x="979.8631" y="501.9851">OPA</text><text fill="#000000" font-family="monospace" font-size="14" lengthAdjust="spacing" textLength="75.8584" x="979.8631" y="518.282">(sidecar)</text></g><!--entity pgr3a--><g class="entity" data-qualified-name="vm1.pgr3a" data-source-line="19" id="ent0006"><path d="M624.6531,624.73 C624.6531,614.73 682.7967,614.73 682.7967,614.73 C682.7967,614.73 740.9403,614.73 740.9403,624.73 L740.9403,662.0269 C740.9403,672.0269 682.7967,672.0269 682.7967,672.0269 C682.7967,672.0269 624.6531,672.0269 624.6531,662.0269 L624.6531,624.73" fill="#FFFFE0" style="stroke:#000000;stroke-width:1;"/><path d="M624.6531,624.73 C624.6531,634.73 682.7967,634.73 682.7967,634.73 C682.7967,634.73 740.9403,634.73 740.9403,624.73" fill="none" style="stroke:#000000;stroke-width:1;"/><text fill="#000000" font-family="monospace" font-size="14" lengthAdjust="spacing" textLength="84.2871" x="640.6531" y="657.7251">PG&#160;Replica</text></g><!--entity pgd3b--><g class="entity" data-qualified-name="vm2.pgd3b" data-source-line="23" id="ent0008"><rect fill="#98FB98" height="80.8906" rx="2.5" ry="2.5" style="stroke:#000000;stroke-width:1;" width="158.4307" x="252.5831" y="464.84"/><text fill="#000000" font-family="monospace" font-size="14" lengthAdjust="spacing" textLength="67.4297" x="268.5831" y="493.8351">pgauthzd</text><text fill="#000000" font-family="monospace" font-size="14" lengthAdjust="spacing" textLength="126.4307" x="268.5831" y="510.132">(decision-only,</text><text fill="#000000" font-family="monospace" font-size="14" lengthAdjust="spacing" textLength="84.2871" x="268.5831" y="526.4289">&#177;&#160;OPA_URL)</text></g><!--entity opa3b--><g class="entity" data-qualified-name="vm2.opa3b" data-source-line="24" id="ent0009"><rect fill="#ADD8E6" height="64.5938" rx="2.5" ry="2.5" style="stroke:#000000;stroke-width:1;" width="107.8584" x="460.8631" y="472.99"/><text fill="#000000" font-family="monospace" font-size="14" lengthAdjust="spacing" textLength="25.2861" x="476.8631" y="501.9851">OPA</text><text fill="#000000" font-family="monospace" font-size="14" lengthAdjust="spacing" textLength="75.8584" x="476.8631" y="518.282">(sidecar)</text></g><!--entity pgr3b--><g class="entity" data-qualified-name="vm2.pgr3b" data-source-line="25" id="ent0010"><path d="M271.6531,624.73 C271.6531,614.73 329.7967,614.73 329.7967,614.73 C329.7967,614.73 387.9403,614.73 387.9403,624.73 L387.9403,662.0269 C387.9403,672.0269 329.7967,672.0269 329.7967,672.0269 C329.7967,672.0269 271.6531,672.0269 271.6531,662.0269 L271.6531,624.73" fill="#FFFFE0" style="stroke:#000000;stroke-width:1;"/><path d="M271.6531,624.73 C271.6531,634.73 329.7967,634.73 329.7967,634.73 C329.7967,634.73 387.9403,634.73 387.9403,624.73" fill="none" style="stroke:#000000;stroke-width:1;"/><text fill="#000000" font-family="monospace" font-size="14" lengthAdjust="spacing" textLength="84.2871" x="287.6531" y="657.7251">PG&#160;Replica</text></g><!--entity app3--><g class="entity" data-qualified-name="app3" data-source-line="12" id="ent0001"><ellipse cx="148.8011" cy="99.25" fill="#FFFFFF" rx="8" ry="8" style="stroke:#000000;stroke-width:1;"/><path d="M148.8011,107.25 L148.8011,134.25 M135.8011,115.25 L161.8011,115.25 M148.8011,134.25 L135.8011,149.25 M148.8011,134.25 L161.8011,149.25" fill="none" style="stroke:#000000;stroke-width:1;"/><text fill="#000000" font-family="monospace" font-size="14" lengthAdjust="spacing" textLength="92.7158" x="102.4431" y="170.2451">Application</text></g><!--entity lb--><g class="entity" data-qualified-name="lb" data-source-line="14" id="ent0002"><rect fill="#DDA0DD" height="48.2969" rx="2.5" ry="2.5" style="stroke:#000000;stroke-width:1;" width="141.5732" x="261.0131" y="248.55"/><text fill="#000000" font-family="monospace" font-size="14" lengthAdjust="spacing" textLength="109.5732" x="277.0131" y="277.5451">Load&#160;Balancer</text></g><!--entity pgp3--><g class="entity" data-qualified-name="pgp3" data-source-line="28" id="ent0011"><path d="M36.6531,624.73 C36.6531,614.73 94.7967,614.73 94.7967,614.73 C94.7967,614.73 152.9403,614.73 152.9403,624.73 L152.9403,662.0269 C152.9403,672.0269 94.7967,672.0269 94.7967,672.0269 C94.7967,672.0269 36.6531,672.0269 36.6531,662.0269 L36.6531,624.73" fill="#FFA500" style="stroke:#000000;stroke-width:1;"/><path d="M36.6531,624.73 C36.6531,634.73 94.7967,634.73 94.7967,634.73 C94.7967,634.73 152.9403,634.73 152.9403,624.73" fill="none" style="stroke:#000000;stroke-width:1;"/><text fill="#000000" font-family="monospace" font-size="14" lengthAdjust="spacing" textLength="84.2871" x="52.6531" y="657.7251">PG&#160;Primary</text></g><!--link app3 to lb--><g class="link" data-entity-1="ent0001" data-entity-2="ent0002" data-link-type="dependency" data-source-line="34" id="lnk12"><path d="M201.2331,174.81 C233.1331,198.48 268.8076,224.9508 296.0076,245.1308" fill="none" id="app3-to-lb" style="stroke:#000000;stroke-width:1;"/><polygon fill="#000000" points="300.0231,248.11,295.1785,239.5351,296.0076,245.1308,290.4118,245.9599,300.0231,248.11" style="stroke:#000000;stroke-width:1;stroke-linejoin:miter;stroke-miterlimit:10;"/><text fill="#000000" font-family="monospace" font-size="13" lengthAdjust="spacing" textLength="93.9199" x="279.6031" y="218.6169">authz&#160;checks</text></g><!--link lb to pgd3a--><g class="link" data-entity-1="ent0002" data-entity-2="ent0004" data-link-type="dependency" data-source-line="35" id="lnk13"><path d="M402.9731,289.53 C457.3331,304.01 532.2831,329.28 588.7931,368.84 C625.4431,394.49 654.5995,430.4413 675.4895,460.3413" fill="none" id="lb-to-pgd3a" style="stroke:#000000;stroke-width:1;"/><polygon fill="#000000" points="678.3531,464.44,676.4776,454.7714,675.4895,460.3413,669.9196,459.3532,678.3531,464.44" style="stroke:#000000;stroke-width:1;stroke-linejoin:miter;stroke-miterlimit:10;"/><text fill="#000000" font-family="monospace" font-size="13" lengthAdjust="spacing" textLength="156.5332" x="583.5631" y="343.4069">AuthZEN&#160;+&#160;native&#160;API</text></g><!--link lb to pgd3b--><g class="link" data-entity-1="ent0002" data-entity-2="ent0008" data-link-type="dependency" data-source-line="36" id="lnk14"><path d="M331.7931,297.07 C331.7931,336.46 331.7931,411.46 331.7931,459.72" fill="none" id="lb-to-pgd3b" style="stroke:#000000;stroke-width:1;"/><polygon fill="#000000" points="331.7931,464.72,335.7931,455.72,331.7931,459.72,327.7931,455.72,331.7931,464.72" style="stroke:#000000;stroke-width:1;stroke-linejoin:miter;stroke-miterlimit:10;"/></g><!--link pgd3a to opa3a--><g class="link" data-entity-1="ent0004" data-entity-2="ent0005" data-link-type="dependency" data-source-line="37" id="lnk15"><path d="M783.2431,531.59 C792.8231,533.93 802.5431,535.93 811.9431,537.29 C838.9931,541.21 908.0731,542.3 934.9431,537.29 C944.4931,535.51 949.629,534.308 959.089,531.028" fill="none" id="pgd3a-to-opa3a" style="stroke:#000000;stroke-width:1;"/><polygon fill="#000000" points="963.8131,529.39,953.9994,528.559,959.089,531.028,956.6201,536.1176,963.8131,529.39" style="stroke:#000000;stroke-width:1;stroke-linejoin:miter;stroke-miterlimit:10;"/><text fill="#000000" font-family="monospace" font-size="13" lengthAdjust="spacing" textLength="109.5732" x="818.9431" y="527.3569">consult&#160;policy</text></g><!--reverse link pgd3a to opa3a--><g class="link" data-entity-1="ent0004" data-entity-2="ent0005" data-link-type="dependency" data-source-line="38" id="lnk17"><path d="M788.4331,505.29 C844.7631,505.29 913.7931,505.29 963.4431,505.29" fill="none" id="pgd3a-backto-opa3a" style="stroke:#000000;stroke-width:1;"/><polygon fill="#000000" points="783.4331,505.29,792.4331,509.29,788.4331,505.29,792.4331,501.29,783.4331,505.29" style="stroke:#000000;stroke-width:1;stroke-linejoin:miter;stroke-miterlimit:10;"/><text fill="#000000" font-family="monospace" font-size="13" lengthAdjust="spacing" textLength="117.3999" x="814.9431" y="492.3569">native&#160;callback</text></g><!--link pgd3b to opa3b--><g class="link" data-entity-1="ent0008" data-entity-2="ent0009" data-link-type="dependency" data-source-line="39" id="lnk18"><path d="M411.5031,535.12 C427.9131,536.52 439.4974,536.3086 455.9074,531.8586" fill="none" id="pgd3b-to-opa3b" style="stroke:#000000;stroke-width:1;"/><polygon fill="#000000" points="460.7331,530.55,451,529.0449,455.9074,531.8586,453.0938,536.7661,460.7331,530.55" style="stroke:#000000;stroke-width:1;stroke-linejoin:miter;stroke-miterlimit:10;"/></g><!--reverse link pgd3b to opa3b--><g class="link" data-entity-1="ent0008" data-entity-2="ent0009" data-link-type="dependency" data-source-line="40" id="lnk20"><path d="M416.485,475.035 C432.895,473.635 444.3231,475.58 460.7331,480.03" fill="none" id="pgd3b-backto-opa3b" style="stroke:#000000;stroke-width:1;"/><polygon fill="#000000" points="411.5031,475.46,420.8106,478.6805,416.485,475.035,420.1305,470.7094,411.5031,475.46" style="stroke:#000000;stroke-width:1;stroke-linejoin:miter;stroke-miterlimit:10;"/></g><!--link pgd3a to pgr3a--><g class="link" data-entity-1="ent0004" data-entity-2="ent0006" data-link-type="dependency" data-source-line="41" id="lnk21"><path d="M697.6631,546.02 C694.2731,567.99 690.9042,589.8083 687.8642,609.5483" fill="none" id="pgd3a-to-pgr3a" style="stroke:#000000;stroke-width:1;"/><polygon fill="#000000" points="687.1031,614.49,692.4264,606.2037,687.8642,609.5483,684.5196,604.986,687.1031,614.49" style="stroke:#000000;stroke-width:1;stroke-linejoin:miter;stroke-miterlimit:10;"/><text fill="#000000" font-family="monospace" font-size="13" lengthAdjust="spacing" textLength="70.4399" x="701.5531" y="584.7969">SQL&#160;(pgx)</text></g><!--link pgd3b to pgr3b--><g class="link" data-entity-1="ent0008" data-entity-2="ent0010" data-link-type="dependency" data-source-line="42" id="lnk22"><path d="M331.2131,546.02 C330.8931,567.99 330.5666,589.7505 330.2766,609.4905" fill="none" id="pgd3b-to-pgr3b" style="stroke:#000000;stroke-width:1;"/><polygon fill="#000000" points="330.2031,614.49,334.3349,605.5497,330.2766,609.4905,326.3358,605.4322,330.2031,614.49" style="stroke:#000000;stroke-width:1;stroke-linejoin:miter;stroke-miterlimit:10;"/></g><!--link app3 to pgp3--><g class="link" data-entity-1="ent0001" data-entity-2="ent0011" data-link-type="dependency" data-source-line="47" id="lnk23"><path d="M144.1031,179.96 C133.2531,281.64 107.2632,525.4182 98.3232,609.2782" fill="none" id="app3-to-pgp3" style="stroke:#000000;stroke-width:1;"/><polygon fill="#000000" points="97.7931,614.25,102.7247,605.7247,98.3232,609.2782,94.7697,604.8767,97.7931,614.25" style="stroke:#000000;stroke-width:1;stroke-linejoin:miter;stroke-miterlimit:10;"/><text fill="#000000" font-family="monospace" font-size="13" lengthAdjust="spacing" textLength="125.2266" x="136.1931" y="335.9069">writes&#160;&#8594;&#160;primary</text><text fill="#000000" font-family="monospace" font-size="13" lengthAdjust="spacing" textLength="117.3999" x="140.1065" y="351.0397">(see&#160;write-api)</text></g><!--link pgp3 to pgr3a--><g class="link" data-entity-1="ent0011" data-entity-2="ent0006" data-link-type="dependency" data-source-line="50" id="lnk24"><path d="M109.9831,614.38 C119.8731,598.79 134.3731,581.01 152.7931,572.26 C180.0931,559.29 190.6231,570.52 220.7931,572.26 C385.1631,581.71 427.6131,581.16 588.7931,614.73 C600.4031,617.15 607.8327,618.9714 619.5027,622.3714" fill="none" id="pgp3-to-pgr3a" style="stroke:#000000;stroke-width:1;"/><polygon fill="#000000" points="624.3031,623.77,616.7813,617.4122,619.5027,622.3714,614.5435,625.0929,624.3031,623.77" style="stroke:#000000;stroke-width:1;stroke-linejoin:miter;stroke-miterlimit:10;"/><text fill="#000000" font-family="monospace" font-size="13" lengthAdjust="spacing" textLength="23.48" x="175.4465" y="584.7969">WAL</text></g><!--link pgp3 to pgr3b--><g class="link" data-entity-1="ent0011" data-entity-2="ent0010" data-link-type="dependency" data-source-line="51" id="lnk25"><path d="M153.1931,643.38 C189.2131,643.38 230.2531,643.38 266.2931,643.38" fill="none" id="pgp3-to-pgr3b" style="stroke:#000000;stroke-width:1;"/><polygon fill="#000000" points="271.2931,643.38,262.2931,639.38,266.2931,643.38,262.2931,647.38,271.2931,643.38" style="stroke:#000000;stroke-width:1;stroke-linejoin:miter;stroke-miterlimit:10;"/><text fill="#000000" font-family="monospace" font-size="13" lengthAdjust="spacing" textLength="23.48" x="200.9465" y="630.4469">WAL</text></g><g class="legend" data-source-line="53"><rect fill="none" height="195.7813" rx="7.5" ry="7.5" style="stroke:#000000;stroke-width:1;" width="1116.4463" x="10" y="712.03"/><text fill="#000000" font-family="monospace" font-size="14" font-weight="700" lengthAdjust="spacing" textLength="42.1436" x="35.4287" y="744.0251">Color</text><text fill="#000000" font-family="monospace" font-size="14" font-weight="700" lengthAdjust="spacing" textLength="75.8584" x="106.4297" y="744.0251">Component</text><rect fill="#98FB98" height="28.2969" style="stroke:none;stroke-width:1;" width="71.001" x="21" y="753.3269"/><text fill="#000000" font-family="monospace" font-size="14" lengthAdjust="spacing" textLength="8.4287" x="27" y="772.322">&#160;</text><text fill="#000000" font-family="monospace" font-size="14" lengthAdjust="spacing" textLength="994.5879" x="106.4297" y="772.322">pgauthzd&#160;(reader)&#160;&#8212;&#160;the&#160;front&#160;door;&#160;AuthZEN&#160;+&#160;native&#160;API;&#160;consults&#160;OPA&#160;(OPA_URL&#160;set)&#160;or&#160;answers&#160;direct&#160;(decision-only)</text><rect fill="#ADD8E6" height="28.2969" style="stroke:none;stroke-width:1;" width="71.001" x="21" y="781.6238"/><text fill="#000000" font-family="monospace" font-size="14" lengthAdjust="spacing" textLength="8.4287" x="27" y="800.6189">&#160;</text><text fill="#000000" font-family="monospace" font-size="14" lengthAdjust="spacing" textLength="488.8652" x="106.4297" y="800.6189">OPA&#160;&#8212;&#160;internal&#160;Rego&#160;policy&#160;sidecar;&#160;ONLY&#160;pgauthzd&#160;calls&#160;it</text><rect fill="#FFA500" height="28.2969" style="stroke:none;stroke-width:1;" width="71.001" x="21" y="809.9206"/><text fill="#000000" font-family="monospace" font-size="14" lengthAdjust="spacing" textLength="8.4287" x="27" y="828.9157">&#160;</text><text fill="#000000" font-family="monospace" font-size="14" lengthAdjust="spacing" textLength="497.2939" x="106.4297" y="828.9157">PostgreSQL&#160;primary&#160;&#8212;&#160;read-write&#160;(write&#160;path:&#160;see&#160;write-api)</text><rect fill="#FFFFE0" height="28.2969" style="stroke:none;stroke-width:1;" width="71.001" x="21" y="838.2175"/><text fill="#000000" font-family="monospace" font-size="14" lengthAdjust="spacing" textLength="8.4287" x="27" y="857.2126">&#160;</text><text fill="#000000" font-family="monospace" font-size="14" lengthAdjust="spacing" textLength="303.4336" x="106.4297" y="857.2126">PostgreSQL&#160;replica&#160;&#8212;&#160;read-only&#160;(WAL)</text><rect fill="#DDA0DD" height="28.2969" style="stroke:none;stroke-width:1;" width="71.001" x="21" y="866.5144"/><text fill="#000000" font-family="monospace" font-size="14" lengthAdjust="spacing" textLength="8.4287" x="27" y="885.5095">&#160;</text><text fill="#000000" font-family="monospace" font-size="14" lengthAdjust="spacing" textLength="278.1475" x="106.4297" y="885.5095">Load&#160;Balancer&#160;&#8212;&#160;distributes&#160;reads</text><line style="stroke:#000000;stroke-width:1;" x1="21" x2="1115.4463" y1="725.03" y2="725.03"/><line style="stroke:#000000;stroke-width:1;" x1="21" x2="1115.4463" y1="753.3269" y2="753.3269"/><line style="stroke:#000000;stroke-width:1;" x1="21" x2="1115.4463" y1="781.6238" y2="781.6238"/><line style="stroke:#000000;stroke-width:1;" x1="21" x2="1115.4463" y1="809.9206" y2="809.9206"/><line style="stroke:#000000;stroke-width:1;" x1="21" x2="1115.4463" y1="838.2175" y2="838.2175"/><line style="stroke:#000000;stroke-width:1;" x1="21" x2="1115.4463" y1="866.5144" y2="866.5144"/><line style="stroke:#000000;stroke-width:1;" x1="21" x2="1115.4463" y1="894.8113" y2="894.8113"/><line style="stroke:#000000;stroke-width:1;" x1="21" x2="21" y1="725.03" y2="894.8113"/><line style="stroke:#000000;stroke-width:1;" x1="92.001" x2="92.001" y1="725.03" y2="894.8113"/><line style="stroke:#000000;stroke-width:1;" x1="1115.4463" x2="1115.4463" y1="725.03" y2="894.8113"/></g><?plantuml-src fLNDZjis4BxpAQRA8JQw3ffiqqEs3U1jqY20i-jkq0Of0XIKD9O9qoH1Kd7Sfa1EVO2YBz9NwAFaIJf3IbffDvUWUrgJCz_yyFi-VH6tk4TmMYeZmauP9xtSGochNUDjQ-hlhROU3biLSNHVsRsp1ary6OyQmMCLfMdqEAJ6ZMnr_C6QU26fnDuQ6voii1u56LjZG0SFlneTUcbsVFZr-D39kbQcWM-4Y2fIpIkKDOHAQZuzgBYbBfnMbGmmSuriu_Qt6ZQUoaDjhPyB8Qj8enHBbyAYigO0YfREdGenJ0J5oXBokTJILEXJY2xXpbgtUo6uOIX-VW7tOUQfWtcwVxk_3xyBeByHJD_46pEhiLA1wYsiqSUJD-RVV-1olVprfwjLpdTDVIgfXDJup2EQcr0KJ2X14OxqESKwoIahrMpZkMunfTGoob86wd3zZ1QKvkmA-27wDMfj3-AFqJ0FfiCy-D_3b9y_JFbPmvItXfc4hxtQIt_imjqftBaaLZKenDrC72U9C1y__0q3LLG0qW9SNgnUZsXpbYY6e2BODi8i4Kt5m2CJLZy567mN8Lf0MJ4HgKB7ndlmF88quO0-GArOAVh81VQfNEEbsnBGTAjp8A9MrWGIK2e56pgumiQ2iuHwX5ctSWWOvsV0ISCe14SzwvHumjAbbl81ongKeJxxsBi134dXBO9M8Q91dqeDhTqJB0zOrFPW5ezP28-WIAbGRR7QXKBGMN-TUKmHIuhuvUa5VDcZBzVFRqMM8iSlFBya7MPEKtetUZTi8VB5GkCcZgjqs3mRJrQ8JBq9NYaokSR9G-6X6Py1N_wuOlDuDn-WHX4ba-UL9oCCG0z1I-GjkSoqn2N-lR5L6s2B7fbHLq-NJtgJEe6GKmwCaHX8W1IqGnUJ4H6Ts4G1wmQ9U8WWVSNEMyNMuoBbBQHJwOcszi2if7mqz9jzbMWaOTDglN3URXGX3UnEkVw4USMTUkbHvwQfQcKTrko3lI_2atFmLkFynlCdAT6U3daB7__ygv-V5OtTQDmYRJ19RO0KANTucc7b0A-MAu3Y4_Vbv5veRD3KKDeOIJpyd6GJxx-3_8LA__GUyvvluDjh3tfCFuTT9Az34ktmPYEvVugvPrCjJhJ76vtA-vQM-su6U-Dk68ZhanhH6wadwkvivIoxqT1u5h6wdY-R6iEjROYDHoRmc94yQUODMTT0kqSmVQjfXzbIRu1sRdODcXndHczpdSrVI4wRV3zJHatUubNPCcauEr0ElsL-Kl4V?></g></svg>