<svg xmlns="http://www.w3.org/2000/svg" xmlns:xlink="http://www.w3.org/1999/xlink" contentStyleType="text/css" data-diagram-type="DESCRIPTION" height="1339px" preserveAspectRatio="none" style="width:948px;height:1339px;background:#FFFFFF;" version="1.1" viewBox="0 0 948 1339" width="948px" zoomAndPan="magnify"><?plantuml 1.2026.4?><defs/><g><g class="title" data-source-line="10"><text fill="#000000" font-family="monospace" font-size="22" font-weight="700" lengthAdjust="spacing" textLength="715.2363" x="115.3818" y="41.4209">Full&#160;Architecture&#160;(read&#160;scaling&#160;+&#160;write&#160;API&#160;+&#160;AuthZEN)</text></g><rect fill="#FFFFCC" height="16.6406" rx="2.5" ry="2.5" style="stroke:#FFDD88;stroke-width:3;" width="927" x="8" y="66.6094"/><text fill="#000000" font-family="monospace" font-size="10" lengthAdjust="spacing" textLength="295.0049" x="15" y="77.25">Please&#160;use&#160;CSS&#160;style&#160;instead&#160;of&#160;skinparam&#160;padding</text><!--cluster vm1--><g class="cluster" data-qualified-name="vm1" data-source-line="16" id="ent0003"><polygon fill="#FFFFFF" points="21,401.84,31,391.84,288,391.84,288,1041.62,278,1051.62,21,1051.62,21,401.84" style="stroke:#000000;stroke-width:1;stroke-linejoin:miter;stroke-miterlimit:10;"/><line style="stroke:#000000;stroke-width:1;" x1="278" x2="288" y1="401.84" y2="391.84"/><line style="stroke:#000000;stroke-width:1;" x1="21" x2="278" y1="401.84" y2="401.84"/><line style="stroke:#000000;stroke-width:1;" x1="278" x2="278" y1="401.84" y2="1051.62"/><text fill="#000000" font-family="monospace" font-size="14" font-weight="700" lengthAdjust="spacing" textLength="92.7158" x="104.1421" y="423.8351">VM&#160;1&#160;(read)</text></g><!--cluster vm2--><g class="cluster" data-qualified-name="vm2" data-source-line="23" id="ent0008"><polygon fill="#FFFFFF" points="458,401.84,468,391.84,650,391.84,650,1041.62,640,1051.62,458,1051.62,458,401.84" style="stroke:#000000;stroke-width:1;stroke-linejoin:miter;stroke-miterlimit:10;"/><line style="stroke:#000000;stroke-width:1;" x1="640" x2="650" y1="401.84" y2="391.84"/><line style="stroke:#000000;stroke-width:1;" x1="458" x2="640" y1="401.84" y2="401.84"/><line style="stroke:#000000;stroke-width:1;" x1="640" x2="640" y1="401.84" y2="1051.62"/><text fill="#000000" font-family="monospace" font-size="14" font-weight="700" lengthAdjust="spacing" textLength="92.7158" x="503.6421" y="423.8351">VM&#160;2&#160;(read)</text></g><!--cluster vm0--><g class="cluster" data-qualified-name="vm0" data-source-line="30" id="ent0013"><polygon fill="#FFFFFF" points="687,618.14,697,608.14,923,608.14,923,1041.62,913,1051.62,687,1051.62,687,618.14" style="stroke:#000000;stroke-width:1;stroke-linejoin:miter;stroke-miterlimit:10;"/><line style="stroke:#000000;stroke-width:1;" x1="913" x2="923" y1="618.14" y2="608.14"/><line style="stroke:#000000;stroke-width:1;" x1="687" x2="913" y1="618.14" y2="618.14"/><line style="stroke:#000000;stroke-width:1;" x1="913" x2="913" y1="618.14" y2="1051.62"/><text fill="#000000" font-family="monospace" font-size="14" font-weight="700" lengthAdjust="spacing" textLength="118.002" x="741.999" y="640.1351">VM&#160;0&#160;(primary)</text></g><!--entity opa_a--><g class="entity" data-qualified-name="vm1.opa_a" data-source-line="17" id="ent0004"><rect fill="#ADD8E6" height="48.2969" rx="2.5" ry="2.5" style="stroke:#000000;stroke-width:1;" width="57.2861" x="214.36" y="704.28"/><text fill="#000000" font-family="monospace" font-size="14" lengthAdjust="spacing" textLength="25.2861" x="230.36" y="733.2751">OPA</text></g><!--entity az_a--><g class="entity" data-qualified-name="vm1.az_a" data-source-line="18" id="ent0005"><rect fill="#98FB98" height="48.2969" rx="2.5" ry="2.5" style="stroke:#000000;stroke-width:1;" width="91.001" x="79.5" y="479.84"/><text fill="#000000" font-family="monospace" font-size="14" lengthAdjust="spacing" textLength="59.001" x="95.5" y="508.8351">AuthZEN</text></g><!--entity pgrst_a--><g class="entity" data-qualified-name="vm1.pgrst_a" data-source-line="19" id="ent0006"><rect fill="#90EE90" height="48.2969" rx="2.5" ry="2.5" style="stroke:#000000;stroke-width:1;" width="107.8584" x="163.07" y="852.88"/><text fill="#000000" font-family="monospace" font-size="14" lengthAdjust="spacing" textLength="75.8584" x="179.07" y="881.8751">PostgREST</text></g><!--entity pgr_a--><g class="entity" data-qualified-name="vm1.pgr_a" data-source-line="20" id="ent0007"><path d="M155.86,988.32 C155.86,978.32 214.0036,978.32 214.0036,978.32 C214.0036,978.32 272.1471,978.32 272.1471,988.32 L272.1471,1025.6169 C272.1471,1035.6169 214.0036,1035.6169 214.0036,1035.6169 C214.0036,1035.6169 155.86,1035.6169 155.86,1025.6169 L155.86,988.32" fill="#FFFFE0" style="stroke:#000000;stroke-width:1;"/><path d="M155.86,988.32 C155.86,998.32 214.0036,998.32 214.0036,998.32 C214.0036,998.32 272.1471,998.32 272.1471,988.32" fill="none" style="stroke:#000000;stroke-width:1;"/><text fill="#000000" font-family="monospace" font-size="14" lengthAdjust="spacing" textLength="84.2871" x="171.86" y="1021.3151">PG&#160;Replica</text></g><!--entity opa_b--><g class="entity" data-qualified-name="vm2.opa_b" data-source-line="24" id="ent0009"><rect fill="#ADD8E6" height="48.2969" rx="2.5" ry="2.5" style="stroke:#000000;stroke-width:1;" width="57.2861" x="551.36" y="704.28"/><text fill="#000000" font-family="monospace" font-size="14" lengthAdjust="spacing" textLength="25.2861" x="567.36" y="733.2751">OPA</text></g><!--entity az_b--><g class="entity" data-qualified-name="vm2.az_b" data-source-line="25" id="ent0010"><rect fill="#98FB98" height="48.2969" rx="2.5" ry="2.5" style="stroke:#000000;stroke-width:1;" width="91.001" x="492.5" y="479.84"/><text fill="#000000" font-family="monospace" font-size="14" lengthAdjust="spacing" textLength="59.001" x="508.5" y="508.8351">AuthZEN</text></g><!--entity pgrst_b--><g class="entity" data-qualified-name="vm2.pgrst_b" data-source-line="26" id="ent0011"><rect fill="#90EE90" height="48.2969" rx="2.5" ry="2.5" style="stroke:#000000;stroke-width:1;" width="107.8584" x="526.07" y="852.88"/><text fill="#000000" font-family="monospace" font-size="14" lengthAdjust="spacing" textLength="75.8584" x="542.07" y="881.8751">PostgREST</text></g><!--entity pgr_b--><g class="entity" data-qualified-name="vm2.pgr_b" data-source-line="27" id="ent0012"><path d="M473.86,988.32 C473.86,978.32 532.0036,978.32 532.0036,978.32 C532.0036,978.32 590.1471,978.32 590.1471,988.32 L590.1471,1025.6169 C590.1471,1035.6169 532.0036,1035.6169 532.0036,1035.6169 C532.0036,1035.6169 473.86,1035.6169 473.86,1025.6169 L473.86,988.32" fill="#FFFFE0" style="stroke:#000000;stroke-width:1;"/><path d="M473.86,988.32 C473.86,998.32 532.0036,998.32 532.0036,998.32 C532.0036,998.32 590.1471,998.32 590.1471,988.32" fill="none" style="stroke:#000000;stroke-width:1;"/><text fill="#000000" font-family="monospace" font-size="14" lengthAdjust="spacing" textLength="84.2871" x="489.86" y="1021.3151">PG&#160;Replica</text></g><!--entity opa_w--><g class="entity" data-qualified-name="vm0.opa_w" data-source-line="31" id="ent0014"><rect fill="#ADD8E6" height="64.5938" rx="2.5" ry="2.5" style="stroke:#000000;stroke-width:1;" width="141.5732" x="703.21" y="696.14"/><text fill="#000000" font-family="monospace" font-size="14" lengthAdjust="spacing" textLength="25.2861" x="719.21" y="725.1351">OPA</text><text fill="#000000" font-family="monospace" font-size="14" lengthAdjust="spacing" textLength="109.5732" x="719.21" y="741.432">(write&#160;front)</text></g><!--entity pgrst_w--><g class="entity" data-qualified-name="vm0.pgrst_w" data-source-line="32" id="ent0015"><rect fill="#FA8072" height="64.5938" rx="2.5" ry="2.5" style="stroke:#000000;stroke-width:1;" width="107.8584" x="711.07" y="844.73"/><text fill="#000000" font-family="monospace" font-size="14" lengthAdjust="spacing" textLength="75.8584" x="727.07" y="873.7251">PostgREST</text><text fill="#000000" font-family="monospace" font-size="14" lengthAdjust="spacing" textLength="50.5723" x="727.07" y="890.022">Writer</text></g><!--entity pgp--><g class="entity" data-qualified-name="vm0.pgp" data-source-line="33" id="ent0016"><path d="M707.86,988.32 C707.86,978.32 766.0036,978.32 766.0036,978.32 C766.0036,978.32 824.1471,978.32 824.1471,988.32 L824.1471,1025.6169 C824.1471,1035.6169 766.0036,1035.6169 766.0036,1035.6169 C766.0036,1035.6169 707.86,1035.6169 707.86,1025.6169 L707.86,988.32" fill="#FFA500" style="stroke:#000000;stroke-width:1;"/><path d="M707.86,988.32 C707.86,998.32 766.0036,998.32 766.0036,998.32 C766.0036,998.32 824.1471,998.32 824.1471,988.32" fill="none" style="stroke:#000000;stroke-width:1;"/><text fill="#000000" font-family="monospace" font-size="14" lengthAdjust="spacing" textLength="84.2871" x="723.86" y="1021.3151">PG&#160;Primary</text></g><!--entity app--><g class="entity" data-qualified-name="app" data-source-line="12" id="ent0001"><ellipse cx="651.9979" cy="99.25" fill="#FFFFFF" rx="8" ry="8" style="stroke:#000000;stroke-width:1;"/><path d="M651.9979,107.25 L651.9979,134.25 M638.9979,115.25 L664.9979,115.25 M651.9979,134.25 L638.9979,149.25 M651.9979,134.25 L664.9979,149.25" fill="none" style="stroke:#000000;stroke-width:1;"/><text fill="#000000" font-family="monospace" font-size="14" lengthAdjust="spacing" textLength="92.7158" x="605.64" y="170.2451">Application</text></g><!--entity lb--><g class="entity" data-qualified-name="lb" data-source-line="14" id="ent0002"><rect fill="#DDA0DD" height="48.2969" rx="2.5" ry="2.5" style="stroke:#000000;stroke-width:1;" width="141.5732" x="467.21" y="263.54"/><text fill="#000000" font-family="monospace" font-size="14" lengthAdjust="spacing" textLength="109.5732" x="483.21" y="292.5351">Load&#160;Balancer</text></g><!--link app to lb--><g class="link" data-entity-1="ent0001" data-entity-2="ent0002" data-link-type="dependency" data-source-line="37" id="lnk17"><path d="M618.72,179.92 C598.08,207.21 575.4158,237.2019 558.6358,259.3919" fill="none" id="app-to-lb" style="stroke:#000000;stroke-width:1;"/><polygon fill="#000000" points="555.62,263.38,564.2389,258.614,558.6358,259.3919,557.8579,253.7888,555.62,263.38" style="stroke:#000000;stroke-width:1;stroke-linejoin:miter;stroke-miterlimit:10;"/><text fill="#000000" font-family="monospace" font-size="13" lengthAdjust="spacing" textLength="93.9199" x="608.83" y="218.6069">authz&#160;checks</text><text fill="#000000" font-family="monospace" font-size="13" lengthAdjust="spacing" textLength="86.0933" x="612.7433" y="233.7397">(read&#160;path)</text></g><!--link lb to opa_a--><g class="link" data-entity-1="ent0002" data-entity-2="ent0004" data-link-type="dependency" data-source-line="38" id="lnk18"><path d="M466.9,300.98 C416.99,313.36 352.67,337.57 315,383.84 C255.38,457.08 292.56,499.74 273,592.14 C264.68,631.44 255.5551,672.1637 249.4451,699.1237" fill="none" id="lb-to-opa_a" style="stroke:#000000;stroke-width:1;"/><polygon fill="#000000" points="248.34,704,254.2303,696.1067,249.4451,699.1237,246.4282,694.3385,248.34,704" style="stroke:#000000;stroke-width:1;stroke-linejoin:miter;stroke-miterlimit:10;"/><text fill="#000000" font-family="monospace" font-size="13" lengthAdjust="spacing" textLength="93.9199" x="337.6533" y="501.0569">OPA&#160;data&#160;API</text><text fill="#000000" font-family="monospace" font-size="13" lengthAdjust="spacing" textLength="125.2266" x="322" y="516.1897">/v1/data/authz/*</text></g><!--link lb to opa_b--><g class="link" data-entity-1="ent0002" data-entity-2="ent0009" data-link-type="dependency" data-source-line="39" id="lnk19"><path d="M563.2,312.15 C580.18,329.9 600.89,355.93 609,383.84 C642.82,500.25 606.4541,642.6992 589.1641,699.1592" fill="none" id="lb-to-opa_b" style="stroke:#000000;stroke-width:1;"/><polygon fill="#000000" points="587.7,703.94,594.16,696.5057,589.1641,699.1592,586.5106,694.1632,587.7,703.94" style="stroke:#000000;stroke-width:1;stroke-linejoin:miter;stroke-miterlimit:10;"/></g><!--link lb to az_a--><g class="link" data-entity-1="ent0002" data-entity-2="ent0005" data-link-type="dependency" data-source-line="40" id="lnk20"><path d="M466.74,291.36 C356.89,296.2 156.41,308.19 134,331.84 C96.34,371.58 106.9045,437.7728 116.5345,474.5828" fill="none" id="lb-to-az_a" style="stroke:#000000;stroke-width:1;"/><polygon fill="#000000" points="117.8,479.42,119.3919,469.7006,116.5345,474.5828,111.6524,471.7254,117.8,479.42" style="stroke:#000000;stroke-width:1;stroke-linejoin:miter;stroke-miterlimit:10;"/><text fill="#000000" font-family="monospace" font-size="13" lengthAdjust="spacing" textLength="117.3999" x="141" y="350.9069">AuthZEN&#160;1.0&#160;API</text><text fill="#000000" font-family="monospace" font-size="13" lengthAdjust="spacing" textLength="93.9199" x="152.74" y="366.0397">/access/v1/*</text></g><!--link lb to az_b--><g class="link" data-entity-1="ent0002" data-entity-2="ent0010" data-link-type="dependency" data-source-line="41" id="lnk21"><path d="M538,312.03 C538,353.15 538,433.02 538,474.35" fill="none" id="lb-to-az_b" style="stroke:#000000;stroke-width:1;"/><polygon fill="#000000" points="538,479.35,542,470.35,538,474.35,534,470.35,538,479.35" style="stroke:#000000;stroke-width:1;stroke-linejoin:miter;stroke-miterlimit:10;"/></g><!--link opa_a to pgrst_a--><g class="link" data-entity-1="ent0004" data-entity-2="ent0006" data-link-type="dependency" data-source-line="42" id="lnk22"><path d="M256.45,752.73 C265.97,772.39 275.5,801.03 266,824.73 C261.83,835.13 257.9407,841.0598 250.1407,848.9698" fill="none" id="opa_a-to-pgrst_a" style="stroke:#000000;stroke-width:1;"/><polygon fill="#000000" points="246.63,852.53,255.7974,848.9302,250.1407,848.9698,250.1011,843.3131,246.63,852.53" style="stroke:#000000;stroke-width:1;stroke-linejoin:miter;stroke-miterlimit:10;"/></g><!--link opa_b to pgrst_b--><g class="link" data-entity-1="ent0009" data-entity-2="ent0011" data-link-type="dependency" data-source-line="43" id="lnk23"><path d="M580,752.99 C580,780.34 580,820.2 580,847.53" fill="none" id="opa_b-to-pgrst_b" style="stroke:#000000;stroke-width:1;"/><polygon fill="#000000" points="580,852.53,584,843.53,580,847.53,576,843.53,580,852.53" style="stroke:#000000;stroke-width:1;stroke-linejoin:miter;stroke-miterlimit:10;"/></g><!--link az_a to opa_a--><g class="link" data-entity-1="ent0005" data-entity-2="ent0004" data-link-type="dependency" data-source-line="44" id="lnk24"><path d="M117.67,528.37 C113.29,546.4 109.98,571.64 118,592.14 C137.23,641.27 179.6473,680.218 210.1773,703.868" fill="none" id="az_a-to-opa_a" style="stroke:#000000;stroke-width:1;"/><polygon fill="#000000" points="214.13,706.93,209.4646,698.2562,210.1773,703.868,204.5655,704.5806,214.13,706.93" style="stroke:#000000;stroke-width:1;stroke-linejoin:miter;stroke-miterlimit:10;"/><text fill="#000000" font-family="monospace" font-size="13" lengthAdjust="spacing" textLength="86.0933" x="148.48" y="567.2069">authzen-opa</text><text fill="#000000" font-family="monospace" font-size="13" lengthAdjust="spacing" textLength="133.0532" x="125" y="582.3397">(policy-enriched)</text></g><!--link az_a to pgr_a--><g class="link" data-entity-1="ent0005" data-entity-2="ent0007" data-link-type="dependency" data-source-line="45" id="lnk25"><path d="M109.76,528.41 C106.35,534.6 103.13,541.44 101,548.14 C63.66,665.78 37.61,707.42 76,824.73 C96.48,887.31 145.0905,941.6896 179.1005,974.4796" fill="none" id="az_a-to-pgr_a" style="stroke:#000000;stroke-width:1;"/><polygon fill="#000000" points="182.7,977.95,178.9972,968.8237,179.1005,974.4796,173.4446,974.5829,182.7,977.95" style="stroke:#000000;stroke-width:1;stroke-linejoin:miter;stroke-miterlimit:10;"/><text fill="#000000" font-family="monospace" font-size="13" lengthAdjust="spacing" textLength="109.5732" x="110.3933" y="799.7969">authzen-direct</text><text fill="#000000" font-family="monospace" font-size="13" lengthAdjust="spacing" textLength="164.3599" x="83" y="814.9297">(SQL,&#160;lowest&#160;latency)</text></g><!--link az_b to opa_b--><g class="link" data-entity-1="ent0010" data-entity-2="ent0009" data-link-type="dependency" data-source-line="46" id="lnk26"><path d="M542.42,528.37 C550.48,571.09 566.5823,656.3768 574.6523,699.1168" fill="none" id="az_b-to-opa_b" style="stroke:#000000;stroke-width:1;"/><polygon fill="#000000" points="575.58,704.03,577.8407,694.4441,574.6523,699.1168,569.9796,695.9284,575.58,704.03" style="stroke:#000000;stroke-width:1;stroke-linejoin:miter;stroke-miterlimit:10;"/></g><!--link az_b to pgr_b--><g class="link" data-entity-1="ent0010" data-entity-2="ent0012" data-link-type="dependency" data-source-line="47" id="lnk27"><path d="M533.75,528.34 C522.35,592.23 491.29,775.43 481,929.32 C480.14,942.18 475.87,946.5 481,958.32 C484.14,965.55 485.5615,968.5218 491.0215,974.3818" fill="none" id="az_b-to-pgr_b" style="stroke:#000000;stroke-width:1;"/><polygon fill="#000000" points="494.43,978.04,491.2213,968.7285,491.0215,974.3818,485.3682,974.1821,494.43,978.04" style="stroke:#000000;stroke-width:1;stroke-linejoin:miter;stroke-miterlimit:10;"/></g><!--link pgrst_a to pgr_a--><g class="link" data-entity-1="ent0006" data-entity-2="ent0007" data-link-type="dependency" data-source-line="48" id="lnk28"><path d="M216.45,901.49 C215.94,923.14 215.3078,950.2914 214.7678,973.2014" fill="none" id="pgrst_a-to-pgr_a" style="stroke:#000000;stroke-width:1;"/><polygon fill="#000000" points="214.65,978.2,218.861,969.2968,214.7678,973.2014,210.8632,969.1082,214.65,978.2" style="stroke:#000000;stroke-width:1;stroke-linejoin:miter;stroke-miterlimit:10;"/></g><!--link pgrst_b to pgr_b--><g class="link" data-entity-1="ent0011" data-entity-2="ent0012" data-link-type="dependency" data-source-line="49" id="lnk29"><path d="M579.55,901.34 C578.51,917.82 575.64,940.13 568,958.32 C565.15,965.11 564.0067,967.7246 559.6567,973.8446" fill="none" id="pgrst_b-to-pgr_b" style="stroke:#000000;stroke-width:1;"/><polygon fill="#000000" points="556.76,977.92,565.2344,972.9017,559.6567,973.8446,558.7138,968.2669,556.76,977.92" style="stroke:#000000;stroke-width:1;stroke-linejoin:miter;stroke-miterlimit:10;"/></g><!--link app to opa_w--><g class="link" data-entity-1="ent0001" data-entity-2="ent0014" data-link-type="dependency" data-source-line="52" id="lnk30"><path d="M704.74,176.41 C711.13,183.46 716.85,191.23 721,199.54 C806.24,370.35 788.7799,605.6137 778.8199,690.9137" fill="none" id="app-to-opa_w" style="stroke:#000000;stroke-width:1;"/><polygon fill="#000000" points="778.24,695.88,783.2568,687.4046,778.8199,690.9137,775.3108,686.4768,778.24,695.88" style="stroke:#000000;stroke-width:1;stroke-linejoin:miter;stroke-miterlimit:10;"/><text fill="#000000" font-family="monospace" font-size="13" lengthAdjust="spacing" textLength="46.96" x="828.11" y="350.9069">writes</text><text fill="#000000" font-family="monospace" font-size="13" lengthAdjust="spacing" textLength="140.8799" x="781.15" y="366.0397">(JWT:&#160;writer&#160;role)</text></g><!--link opa_w to pgrst_w--><g class="link" data-entity-1="ent0014" data-entity-2="ent0015" data-link-type="dependency" data-source-line="53" id="lnk31"><path d="M772.07,760.88 C770.56,785.53 768.7671,814.6894 767.2471,839.3894" fill="none" id="opa_w-to-pgrst_w" style="stroke:#000000;stroke-width:1;"/><polygon fill="#000000" points="766.94,844.38,771.4852,835.6427,767.2471,839.3894,763.5004,835.1513,766.94,844.38" style="stroke:#000000;stroke-width:1;stroke-linejoin:miter;stroke-miterlimit:10;"/><text fill="#000000" font-family="monospace" font-size="13" lengthAdjust="spacing" textLength="101.7466" x="777.83" y="799.7969">forward&#160;write</text><text fill="#000000" font-family="monospace" font-size="13" lengthAdjust="spacing" textLength="93.9199" x="781.7433" y="814.9297">(authorized)</text></g><!--link pgrst_w to pgp--><g class="link" data-entity-1="ent0015" data-entity-2="ent0016" data-link-type="dependency" data-source-line="54" id="lnk32"><path d="M765.25,909.65 C765.41,930.67 765.5928,953.0101 765.7428,973.1801" fill="none" id="pgrst_w-to-pgp" style="stroke:#000000;stroke-width:1;"/><polygon fill="#000000" points="765.78,978.18,769.713,969.1505,765.7428,973.1801,761.7132,969.21,765.78,978.18" style="stroke:#000000;stroke-width:1;stroke-linejoin:miter;stroke-miterlimit:10;"/><text fill="#000000" font-family="monospace" font-size="13" lengthAdjust="spacing" textLength="140.8799" x="772.62" y="948.3869">SQL&#160;(authz_writer)</text></g><!--link pgp to pgr_a--><g class="link" data-entity-1="ent0016" data-entity-2="ent0007" data-link-type="dependency" data-source-line="57" id="lnk33"><path d="M707.72,980.9 C667.43,964.34 612.08,944.46 561,935.85 C458.97,918.65 345.829,952.9651 277.059,979.7551" fill="none" id="pgp-to-pgr_a" style="stroke:#000000;stroke-width:1;"/><polygon fill="#000000" points="272.4,981.57,282.2381,982.0303,277.059,979.7551,279.3342,974.5759,272.4,981.57" style="stroke:#000000;stroke-width:1;stroke-linejoin:miter;stroke-miterlimit:10;"/><text fill="#000000" font-family="monospace" font-size="13" lengthAdjust="spacing" textLength="23.48" x="515.6533" y="948.3869">WAL</text></g><!--link pgp to pgr_b--><g class="link" data-entity-1="ent0016" data-entity-2="ent0012" data-link-type="dependency" data-source-line="58" id="lnk34"><path d="M707.49,1006.97 C671.74,1006.97 631.18,1006.97 595.44,1006.97" fill="none" id="pgp-to-pgr_b" style="stroke:#000000;stroke-width:1;"/><polygon fill="#000000" points="590.44,1006.97,599.44,1010.97,595.44,1006.97,599.44,1002.97,590.44,1006.97" style="stroke:#000000;stroke-width:1;stroke-linejoin:miter;stroke-miterlimit:10;"/><text fill="#000000" font-family="monospace" font-size="13" lengthAdjust="spacing" textLength="23.48" x="637.6533" y="994.0369">WAL</text></g><g class="legend" data-source-line="60"><rect fill="none" height="252.375" rx="7.5" ry="7.5" style="stroke:#000000;stroke-width:1;" width="711.8682" x="10" y="1075.62"/><text fill="#000000" font-family="monospace" font-size="14" font-weight="700" lengthAdjust="spacing" textLength="42.1436" x="35.4287" y="1107.6151">Color</text><text fill="#000000" font-family="monospace" font-size="14" font-weight="700" lengthAdjust="spacing" textLength="75.8584" x="106.4297" y="1107.6151">Component</text><rect fill="#98FB98" height="28.2969" style="stroke:none;stroke-width:1;" width="71.001" x="21" y="1116.9169"/><text fill="#000000" font-family="monospace" font-size="14" lengthAdjust="spacing" textLength="8.4287" x="27" y="1135.912">&#160;</text><text fill="#000000" font-family="monospace" font-size="14" lengthAdjust="spacing" textLength="590.0098" x="106.4297" y="1135.912">AuthZEN&#160;API&#160;&#8212;&#160;AuthZEN&#160;1.0&#160;(Go);&#160;authzen-direct&#160;&#8594;&#160;PG,&#160;authzen-opa&#160;&#8594;&#160;OPA</text><rect fill="#ADD8E6" height="28.2969" style="stroke:none;stroke-width:1;" width="71.001" x="21" y="1145.2138"/><text fill="#000000" font-family="monospace" font-size="14" lengthAdjust="spacing" textLength="8.4287" x="27" y="1164.2089">&#160;</text><text fill="#000000" font-family="monospace" font-size="14" lengthAdjust="spacing" textLength="455.1504" x="106.4297" y="1164.2089">OPA&#160;&#8212;&#160;policy&#160;evaluation&#160;+&#160;JWT&#160;authn&#160;(reads&#160;and&#160;writes)</text><rect fill="#90EE90" height="28.2969" style="stroke:none;stroke-width:1;" width="71.001" x="21" y="1173.5106"/><text fill="#000000" font-family="monospace" font-size="14" lengthAdjust="spacing" textLength="8.4287" x="27" y="1192.5057">&#160;</text><text fill="#000000" font-family="monospace" font-size="14" lengthAdjust="spacing" textLength="244.4326" x="106.4297" y="1192.5057">PostgREST&#160;&#8212;&#160;internal&#160;read&#160;API</text><rect fill="#FA8072" height="28.2969" style="stroke:none;stroke-width:1;" width="71.001" x="21" y="1201.8075"/><text fill="#000000" font-family="monospace" font-size="14" lengthAdjust="spacing" textLength="8.4287" x="27" y="1220.8026">&#160;</text><text fill="#000000" font-family="monospace" font-size="14" lengthAdjust="spacing" textLength="421.4355" x="106.4297" y="1220.8026">PostgREST&#160;Writer&#160;&#8212;&#160;fixed&#160;authz_writer&#160;role,&#160;no&#160;JWT</text><rect fill="#FFA500" height="28.2969" style="stroke:none;stroke-width:1;" width="71.001" x="21" y="1230.1044"/><text fill="#000000" font-family="monospace" font-size="14" lengthAdjust="spacing" textLength="8.4287" x="27" y="1249.0995">&#160;</text><text fill="#000000" font-family="monospace" font-size="14" lengthAdjust="spacing" textLength="261.29" x="106.4297" y="1249.0995">PostgreSQL&#160;primary&#160;&#8212;&#160;read-write</text><rect fill="#FFFFE0" height="28.2969" style="stroke:none;stroke-width:1;" width="71.001" x="21" y="1258.4013"/><text fill="#000000" font-family="monospace" font-size="14" lengthAdjust="spacing" textLength="8.4287" x="27" y="1277.3964">&#160;</text><text fill="#000000" font-family="monospace" font-size="14" lengthAdjust="spacing" textLength="303.4336" x="106.4297" y="1277.3964">PostgreSQL&#160;replica&#160;&#8212;&#160;read-only&#160;(WAL)</text><rect fill="#DDA0DD" height="28.2969" style="stroke:none;stroke-width:1;" width="71.001" x="21" y="1286.6981"/><text fill="#000000" font-family="monospace" font-size="14" lengthAdjust="spacing" textLength="8.4287" x="27" y="1305.6932">&#160;</text><text fill="#000000" font-family="monospace" font-size="14" lengthAdjust="spacing" textLength="278.1475" x="106.4297" y="1305.6932">Load&#160;Balancer&#160;&#8212;&#160;distributes&#160;reads</text><line style="stroke:#000000;stroke-width:1;" x1="21" x2="710.8682" y1="1088.62" y2="1088.62"/><line style="stroke:#000000;stroke-width:1;" x1="21" x2="710.8682" y1="1116.9169" y2="1116.9169"/><line style="stroke:#000000;stroke-width:1;" x1="21" x2="710.8682" y1="1145.2138" y2="1145.2138"/><line style="stroke:#000000;stroke-width:1;" x1="21" x2="710.8682" y1="1173.5106" y2="1173.5106"/><line style="stroke:#000000;stroke-width:1;" x1="21" x2="710.8682" y1="1201.8075" y2="1201.8075"/><line style="stroke:#000000;stroke-width:1;" x1="21" x2="710.8682" y1="1230.1044" y2="1230.1044"/><line style="stroke:#000000;stroke-width:1;" x1="21" x2="710.8682" y1="1258.4013" y2="1258.4013"/><line style="stroke:#000000;stroke-width:1;" x1="21" x2="710.8682" y1="1286.6981" y2="1286.6981"/><line style="stroke:#000000;stroke-width:1;" x1="21" x2="710.8682" y1="1314.995" y2="1314.995"/><line style="stroke:#000000;stroke-width:1;" x1="21" x2="21" y1="1088.62" y2="1314.995"/><line style="stroke:#000000;stroke-width:1;" x1="92.001" x2="92.001" y1="1088.62" y2="1314.995"/><line style="stroke:#000000;stroke-width:1;" x1="710.8682" x2="710.8682" y1="1088.62" y2="1314.995"/></g><?plantuml-src bLNRRXit47tdLqpbXqgfLL-GvC5D0oX5OYHm4zKEQZGm471tHn9XYYH8hbKv3f2dVa3HB_INP8RKhdRj96Zq997dpCoPEHpz41UuH71QAYF2fJ9EUhc4GfQNSszhK_rcjVMmMgY8dVlIBfqrQE9PN6i4ZsMKPgwxa0fdijRnXJNnjQGKIsjiSBB4gWCojiA03XxjTmwzD9Ty-B1xw6HLAJE7nq945IddYrfhcFYIAojZxH667cK5ePIQWJ_1ojCLJAOlwVkaZejtpr-FX91b9463YNDQbJ8gQmOW0qZdX6XbmU34KgndKajJeay8NS3ELDTB8RXg6FpvEnpadADqVxKyW0y2wDC9ysOwIPVMoVSITaxKV16VwHhluZRrvLAk6JgL6eyzehaBdTeGvwVFpzuci9lx4DlGMq8beonae3gdnt2AIMn3QE5_eTPs9Jvs91ts9Hr-MrBn_oKLtocf-3v9nTSbxSFGURMKVjsesl-YgWipp9QPUJBjg1Mv-eR8jl8BSyvStr50l3EfoVVtgv_cUZPW1pjloFHpvB9_96baFIVZGf0fOLpPbHa_PViTmK1IKw-XN61v6QXUtq170q601flTTfHKfSJy2YxCtjN17l_QIr7s7jpZ5Ds3PCEZTevmyFF-9emiImo1e_L3y9H5pjqSRUmfibdwfuL8AUuLdQf3CwO3akWipNazHkCLoIPZzbdPpXrMfNWR4V7iZvDT82zWYA1bH5EkC_ckvjvHyf9eNbKlYsYCsSVInDBeqnpWzjD_m5rF7Wf0wpNl8G_3A_HgfZ30g_EtpNhouAt6NPXPlvA-2gFUpBFxI5p2yi29UjHbag8CwhSsaJOnCvout27hrNLgOeFRyXnpg6cGWDVlSnQ29akssr8mSkpvGNJR3t0-EG4OtBykUjT2unnD1OMDqIv1uopIyxZv5V8VJVhIlAuRle4dsxtnb7usTkIzpitksdDuR4U_GDy9SFlFlp0zteMEhT8PJwd9qBvlpi0N73ax3_1AwZf9fw7nw3YGoMkIDflPD3YC-j7QWjiLaO8gGqqrKaDwkYoYOULTqMVadPA8C_KtLj0TpSOwngQgcZ1vaxHXFF98D_il1UB4uxpeUWNdpNc7wFFWjqHhz1g6DCojNFvJP5hlBpCnAXMYLqLDtO7ShXl1myyU49y1?></g></svg>