<svg xmlns="http://www.w3.org/2000/svg" xmlns:xlink="http://www.w3.org/1999/xlink" contentStyleType="text/css" data-diagram-type="DESCRIPTION" height="1020px" preserveAspectRatio="none" style="width:1449px;height:1020px;background:#FFFFFF;" version="1.1" viewBox="0 0 1449 1020" width="1449px" zoomAndPan="magnify"><?plantuml 1.2026.4?><defs/><g><g class="title" data-source-line="10"><text fill="#000000" font-family="monospace" font-size="22" font-weight="700" lengthAdjust="spacing" textLength="344.373" x="551.5685" y="41.4209">Write&#160;paths&#160;to&#160;the&#160;primary</text></g><rect fill="#FFFFCC" height="16.6406" rx="2.5" ry="2.5" style="stroke:#FFDD88;stroke-width:3;" width="1428.51" x="8" y="66.6094"/><text fill="#000000" font-family="monospace" font-size="10" lengthAdjust="spacing" textLength="295.0049" x="15" y="77.25">Please&#160;use&#160;CSS&#160;style&#160;instead&#160;of&#160;skinparam&#160;padding</text><!--cluster optA--><g class="cluster" data-qualified-name="optA" data-source-line="31" id="ent0005"><polygon fill="#FFFFFF" points="889.51,307.34,899.51,297.34,1424.51,297.34,1424.51,419.93,1414.51,429.93,889.51,429.93,889.51,307.34" style="stroke:#000000;stroke-width:1;stroke-linejoin:miter;stroke-miterlimit:10;"/><line style="stroke:#000000;stroke-width:1;" x1="1414.51" x2="1424.51" y1="307.34" y2="297.34"/><line style="stroke:#000000;stroke-width:1;" x1="889.51" x2="1414.51" y1="307.34" y2="307.34"/><line style="stroke:#000000;stroke-width:1;" x1="1414.51" x2="1414.51" y1="307.34" y2="429.93"/><text fill="#000000" font-family="monospace" font-size="14" font-weight="700" lengthAdjust="spacing" textLength="118.002" x="1094.009" y="329.3351">HTTP&#160;Write&#160;API</text></g><!--entity pgd--><g class="entity" data-qualified-name="optA.pgd" data-source-line="32" id="ent0006"><rect fill="#FA8072" height="64.5938" rx="2.5" ry="2.5" style="stroke:#000000;stroke-width:1;" width="175.2881" x="905.87" y="349.34"/><text fill="#000000" font-family="monospace" font-size="14" lengthAdjust="spacing" textLength="143.2881" x="921.87" y="378.3351">pgauthzd&#160;(writer)</text><text fill="#000000" font-family="monospace" font-size="14" lengthAdjust="spacing" textLength="118.002" x="921.87" y="394.632">(full&#160;profile)</text></g><!--entity opa--><g class="entity" data-qualified-name="optA.opa" data-source-line="33" id="ent0007"><rect fill="#ADD8E6" height="64.5938" rx="2.5" ry="2.5" style="stroke:#000000;stroke-width:1;" width="107.8584" x="1300.58" y="349.34"/><text fill="#000000" font-family="monospace" font-size="14" lengthAdjust="spacing" textLength="25.2861" x="1316.58" y="378.3351">OPA</text><text fill="#000000" font-family="monospace" font-size="14" lengthAdjust="spacing" textLength="75.8584" x="1316.58" y="394.632">(sidecar)</text></g><!--entity appA--><g class="entity" data-qualified-name="appA" data-source-line="12" id="ent0001"><ellipse cx="993.5179" cy="99.25" fill="#FFFFFF" rx="8" ry="8" style="stroke:#000000;stroke-width:1;"/><path d="M993.5179,107.25 L993.5179,134.25 M980.5179,115.25 L1006.5179,115.25 M993.5179,134.25 L980.5179,149.25 M993.5179,134.25 L1006.5179,149.25" fill="none" style="stroke:#000000;stroke-width:1;"/><text fill="#000000" font-family="monospace" font-size="14" lengthAdjust="spacing" textLength="92.7158" x="947.16" y="170.2451">App&#160;without</text><text fill="#000000" font-family="monospace" font-size="14" lengthAdjust="spacing" textLength="75.8584" x="947.16" y="186.542">DB&#160;access</text></g><!--entity appB--><g class="entity" data-qualified-name="appB" data-source-line="13" id="ent0002"><ellipse cx="497.5092" cy="337.84" fill="#FFFFFF" rx="8" ry="8" style="stroke:#000000;stroke-width:1;"/><path d="M497.5092,345.84 L497.5092,372.84 M484.5092,353.84 L510.5092,353.84 M497.5092,372.84 L484.5092,387.84 M497.5092,372.84 L510.5092,387.84" fill="none" style="stroke:#000000;stroke-width:1;"/><text fill="#000000" font-family="monospace" font-size="14" lengthAdjust="spacing" textLength="67.4297" x="459.58" y="408.8351">App&#160;with</text><text fill="#000000" font-family="monospace" font-size="14" lengthAdjust="spacing" textLength="75.8584" x="459.58" y="425.132">DB&#160;access</text></g><!--entity appC--><g class="entity" data-qualified-name="appC" data-source-line="14" id="ent0003"><ellipse cx="738.5153" cy="337.84" fill="#FFFFFF" rx="8" ry="8" style="stroke:#000000;stroke-width:1;"/><path d="M738.5153,345.84 L738.5153,372.84 M725.5153,353.84 L751.5153,353.84 M738.5153,372.84 L725.5153,387.84 M738.5153,372.84 L751.5153,387.84" fill="none" style="stroke:#000000;stroke-width:1;"/><text fill="#000000" font-family="monospace" font-size="14" lengthAdjust="spacing" textLength="118.002" x="675.3" y="408.8351">Co-located&#160;app</text><text fill="#000000" font-family="monospace" font-size="14" lengthAdjust="spacing" textLength="126.4307" x="675.3" y="425.132">(same&#160;database)</text></g><g class="entity" data-qualified-name="N1" data-source-line="17" id="ent0004"><path d="M11,279.84 L11,483.4338 L404.0264,483.4338 L404.0264,289.84 L394.0264,279.84 L11,279.84" fill="#FFFFFF" style="stroke:#000000;stroke-width:1;"/><path d="M394.0264,279.84 L394.0264,289.84 L404.0264,289.84 L394.0264,279.84" fill="#FFFFFF" style="stroke:#000000;stroke-width:1;"/><text fill="#000000" font-family="monospace" font-size="13" font-weight="700" lengthAdjust="spacing" textLength="226.9731" x="23" y="302.9069">A:&#160;pgauthzd-fronted&#160;write&#160;API</text><text fill="#000000" font-family="monospace" font-size="13" lengthAdjust="spacing" textLength="336.5464" x="23" y="318.0397">pgauthzd&#160;verifies&#160;the&#160;JWT&#160;and&#160;&#8212;&#160;via&#160;its&#160;OPA</text><text fill="#000000" font-family="monospace" font-size="13" lengthAdjust="spacing" textLength="320.8931" x="23" y="333.1725">sidecar&#160;&#8212;&#160;the&#160;writer&#160;role&#160;(WRITER_ROLE&#160;in</text><text fill="#000000" font-family="monospace" font-size="13" lengthAdjust="spacing" textLength="344.373" x="23" y="348.3053">JWT_ROLES_CLAIM),&#160;records&#160;the&#160;subject&#160;as&#160;the</text><text fill="#000000" font-family="monospace" font-size="13" lengthAdjust="spacing" textLength="360.0264" x="23" y="363.4381">audit&#160;author,&#160;then&#160;applies&#160;the&#160;write&#160;natively.</text><text fill="#000000" font-family="monospace" font-size="13" lengthAdjust="spacing" textLength="289.5864" x="23" y="378.571">Only&#160;pgauthzd&#160;calls&#160;OPA.&#160;(Write-authz</text><text fill="#000000" font-family="monospace" font-size="13" lengthAdjust="spacing" textLength="336.5464" x="23" y="393.7038">delegation&#160;is&#160;the&#160;pending&#160;pgauthzd-fronted-</text><text fill="#000000" font-family="monospace" font-size="13" lengthAdjust="spacing" textLength="360.0264" x="23" y="408.8366">writes&#160;increment;&#160;today&#160;write.rego&#160;fronts&#160;it.)</text><text fill="#000000" font-family="monospace" font-size="13" lengthAdjust="spacing" textLength="7.8267" x="23" y="423.9694">&#160;</text><text fill="#000000" font-family="monospace" font-size="13" lengthAdjust="spacing" textLength="352.1997" x="23" y="439.1022">Multi-app:&#160;a&#160;per-app&#160;DB&#160;role&#160;from&#160;a&#160;JWT&#160;claim</text><text fill="#000000" font-family="monospace" font-size="13" lengthAdjust="spacing" textLength="352.1997" x="23" y="454.235">(DB_ROLE_CLAIM)&#160;&#8594;&#160;pgauthzd&#160;SET&#160;LOCAL&#160;ROLEs&#160;to</text><text fill="#000000" font-family="monospace" font-size="13" lengthAdjust="spacing" textLength="46.96" x="23" y="469.3678">it,&#160;so</text><text fill="#000000" font-family="monospace" font-size="13" font-weight="700" lengthAdjust="spacing" textLength="148.7065" x="77.7866" y="469.3678">namespace&#160;isolation</text><text fill="#000000" font-family="monospace" font-size="13" lengthAdjust="spacing" textLength="125.2266" x="234.3198" y="469.3678">applies&#160;per&#160;app.</text></g><!--entity pg--><g class="entity" data-qualified-name="pg" data-source-line="36" id="ent0008"><path d="M680.37,607.43 C680.37,597.43 738.5136,597.43 738.5136,597.43 C738.5136,597.43 796.6571,597.43 796.6571,607.43 L796.6571,661.0238 C796.6571,671.0238 738.5136,671.0238 738.5136,671.0238 C738.5136,671.0238 680.37,671.0238 680.37,661.0238 L680.37,607.43" fill="#FFA500" style="stroke:#000000;stroke-width:1;"/><path d="M680.37,607.43 C680.37,617.43 738.5136,617.43 738.5136,617.43 C738.5136,617.43 796.6571,617.43 796.6571,607.43" fill="none" style="stroke:#000000;stroke-width:1;"/><text fill="#000000" font-family="monospace" font-size="14" lengthAdjust="spacing" textLength="84.2871" x="696.37" y="640.4251">PostgreSQL</text><text fill="#000000" font-family="monospace" font-size="14" lengthAdjust="spacing" textLength="59.001" x="696.37" y="656.722">primary</text></g><g class="entity" data-qualified-name="GMN17" data-source-line="50" id="ent0018"><path d="M545.91,712.03 L545.91,855.0925 A0,0 0 0 0 545.91,855.0925 L931.1097,855.0925 A0,0 0 0 0 931.1097,855.0925 L931.1097,722.03 L921.1097,712.03 L742.51,712.03 L738.51,671.27 L734.51,712.03 L545.91,712.03 A0,0 0 0 0 545.91,712.03" fill="#FFFFFF" style="stroke:#000000;stroke-width:1;"/><path d="M921.1097,712.03 L921.1097,722.03 L931.1097,722.03 L921.1097,712.03" fill="#FFFFFF" style="stroke:#000000;stroke-width:1;"/><text fill="#000000" font-family="monospace" font-size="13" lengthAdjust="spacing" textLength="352.1997" x="557.91" y="735.0969">All&#160;three&#160;paths&#160;land&#160;in&#160;the&#160;same&#160;function&#160;API</text><text fill="#000000" font-family="monospace" font-size="13" lengthAdjust="spacing" textLength="344.373" x="557.91" y="750.2297">(SECURITY&#160;DEFINER;&#160;app&#160;roles&#160;never&#160;get&#160;table</text><text fill="#000000" font-family="monospace" font-size="13" lengthAdjust="spacing" textLength="336.5464" x="557.91" y="765.3625">grants)&#160;and&#160;the&#160;same&#160;immutable&#160;audit&#160;trail.</text><text fill="#000000" font-family="monospace" font-size="13" lengthAdjust="spacing" textLength="234.7998" x="557.91" y="780.4953">C&#160;additionally&#160;makes&#160;the&#160;grant</text><text fill="#000000" font-family="monospace" font-size="13" font-weight="700" lengthAdjust="spacing" textLength="46.96" x="800.5365" y="780.4953">atomic</text><text fill="#000000" font-family="monospace" font-size="13" lengthAdjust="spacing" textLength="31.3066" x="855.3231" y="780.4953">with</text><text fill="#000000" font-family="monospace" font-size="13" lengthAdjust="spacing" textLength="313.0664" x="557.91" y="795.6281">the&#160;business&#160;change&#160;&#8212;&#160;see&#160;the&#160;co-located</text><text fill="#000000" font-family="monospace" font-size="13" lengthAdjust="spacing" textLength="352.1997" x="557.91" y="810.761">topology.&#160;Apps&#160;whose&#160;tuples&#160;derive&#160;from&#160;their</text><text fill="#000000" font-family="monospace" font-size="13" lengthAdjust="spacing" textLength="305.2397" x="557.91" y="825.8938">own&#160;DB&#160;rows&#160;typically&#160;feed&#160;A&#160;or&#160;B&#160;via&#160;a</text><text fill="#000000" font-family="monospace" font-size="13" font-weight="700" lengthAdjust="spacing" textLength="156.5332" x="557.91" y="841.0266">transactional&#160;outbox</text><text fill="#000000" font-family="monospace" font-size="13" lengthAdjust="spacing" textLength="148.7065" x="722.2699" y="841.0266">(MODEL_DESIGN&#160;&#167;10).</text></g><!--link N1 to pgd--><g class="link" data-entity-1="ent0004" data-entity-2="ent0006" data-link-type="dependency" data-source-line="38" id="lnk9"><path d="M353.8,279.45 C385.35,262.28 419.49,247.05 453.51,237.84 C605.38,196.71 658.62,187 807.51,237.84 C871.63,259.74 930.81,313.7 964.49,348.93" fill="none" id="N1-to-pgd" style="stroke:#000000;stroke-width:1;"/></g><!--link appA to pgd--><g class="link" data-entity-1="ent0001" data-entity-2="ent0006" data-link-type="dependency" data-source-line="40" id="lnk10"><path d="M993.51,196.26 C993.51,242.93 993.51,304.82 993.51,343.89" fill="none" id="appA-to-pgd" style="stroke:#000000;stroke-width:1;"/><polygon fill="#000000" points="993.51,348.89,997.51,339.89,993.51,343.89,989.51,339.89,993.51,348.89" style="stroke:#000000;stroke-width:1;stroke-linejoin:miter;stroke-miterlimit:10;"/><text fill="#000000" font-family="monospace" font-size="13" lengthAdjust="spacing" textLength="195.6665" x="1000.51" y="234.9069">A:&#160;POST&#160;/pgauthz/v1/write</text><text fill="#000000" font-family="monospace" font-size="13" lengthAdjust="spacing" textLength="140.8799" x="1027.9033" y="250.0397">(JWT:&#160;writer&#160;role)</text></g><!--link pgd to opa--><g class="link" data-entity-1="ent0006" data-entity-2="ent0007" data-link-type="dependency" data-source-line="41" id="lnk11"><path d="M1081.36,381.64 C1149.71,381.64 1237.38,381.64 1295.29,381.64" fill="none" id="pgd-to-opa" style="stroke:#000000;stroke-width:1;"/><polygon fill="#000000" points="1300.29,381.64,1291.29,377.64,1295.29,381.64,1291.29,385.64,1300.29,381.64" style="stroke:#000000;stroke-width:1;stroke-linejoin:miter;stroke-miterlimit:10;"/><text fill="#000000" font-family="monospace" font-size="13" lengthAdjust="spacing" textLength="117.3999" x="1132.4367" y="353.7069">authorize&#160;write</text><text fill="#000000" font-family="monospace" font-size="13" lengthAdjust="spacing" textLength="156.5332" x="1112.87" y="368.8397">(writer-role&#160;policy)</text></g><!--reverse link pgd to opa--><g class="link" data-entity-1="ent0006" data-entity-2="ent0007" data-link-type="dependency" data-source-line="42" id="lnk13"><path d="M1086.2948,405.391 C1132.5648,414.551 1185.34,420.52 1236.87,413.64 C1257.96,410.82 1280.62,405.28 1300.37,399.6" fill="none" id="pgd-backto-opa" style="stroke:#000000;stroke-width:1;"/><polygon fill="#000000" points="1081.39,404.42,1089.4419,410.0916,1086.2948,405.391,1090.9955,402.2439,1081.39,404.42" style="stroke:#000000;stroke-width:1;stroke-linejoin:miter;stroke-miterlimit:10;"/><text fill="#000000" font-family="monospace" font-size="13" lengthAdjust="spacing" textLength="78.2666" x="1151.87" y="403.7069">authorized</text></g><!--link pgd to pg--><g class="link" data-entity-1="ent0006" data-entity-2="ent0008" data-link-type="dependency" data-source-line="43" id="lnk14"><path d="M1003.23,414.37 C1014.06,456.67 1025.44,531.53 987.51,577.43 C963.67,606.29 867.7626,620.8371 801.9526,627.7571" fill="none" id="pgd-to-pg" style="stroke:#000000;stroke-width:1;"/><polygon fill="#000000" points="796.98,628.28,806.349,631.3169,801.9526,627.7571,805.5124,623.3608,796.98,628.28" style="stroke:#000000;stroke-width:1;stroke-linejoin:miter;stroke-miterlimit:10;"/><text fill="#000000" font-family="monospace" font-size="13" lengthAdjust="spacing" textLength="172.1865" x="1020.14" y="537.4969">SQL&#160;(pgx;&#160;authz_writer</text><text fill="#000000" font-family="monospace" font-size="13" lengthAdjust="spacing" textLength="125.2266" x="1043.62" y="552.6297">or&#160;per-app&#160;role)</text></g><!--link appB to pg--><g class="link" data-entity-1="ent0002" data-entity-2="ent0008" data-link-type="dependency" data-source-line="45" id="lnk15"><path d="M492.65,434.76 C491.57,478.29 497.45,539.19 532.51,577.43 C552.33,599.04 621.4324,614.4122 675.0824,623.6422" fill="none" id="appB-to-pg" style="stroke:#000000;stroke-width:1;"/><polygon fill="#000000" points="680.01,624.49,671.8185,619.022,675.0824,623.6422,670.4621,626.9061,680.01,624.49" style="stroke:#000000;stroke-width:1;stroke-linejoin:miter;stroke-miterlimit:10;"/><text fill="#000000" font-family="monospace" font-size="13" lengthAdjust="spacing" textLength="101.7466" x="574.73" y="522.4969">B:&#160;direct&#160;SQL</text><text fill="#000000" font-family="monospace" font-size="13" lengthAdjust="spacing" textLength="117.3999" x="566.9033" y="537.6297">write_tuple()&#160;/</text><text fill="#000000" font-family="monospace" font-size="13" lengthAdjust="spacing" textLength="172.1865" x="539.51" y="552.7625">write_tuples_checked()</text><text fill="#000000" font-family="monospace" font-size="13" lengthAdjust="spacing" textLength="148.7065" x="551.25" y="567.8953">(authz_writer&#160;role)</text></g><!--link appC to pg--><g class="link" data-entity-1="ent0003" data-entity-2="ent0008" data-link-type="dependency" data-source-line="47" id="lnk16"><path d="M733.86,434.76 C731.03,474.01 728.5,529.14 731.51,577.43 C731.91,583.77 731.9769,585.513 732.7269,592.013" fill="none" id="appC-to-pg" style="stroke:#000000;stroke-width:1;"/><polygon fill="#000000" points="733.3,596.98,736.242,587.5808,732.7269,592.013,728.2947,588.4978,733.3,596.98" style="stroke:#000000;stroke-width:1;stroke-linejoin:miter;stroke-miterlimit:10;"/><text fill="#000000" font-family="monospace" font-size="13" lengthAdjust="spacing" textLength="101.7466" x="805.0366" y="529.9969">C:&#160;co-located</text><text fill="#000000" font-family="monospace" font-size="13" lengthAdjust="spacing" textLength="234.7998" x="738.51" y="545.1297">business&#160;write&#160;+&#160;write_tuple()</text><text fill="#000000" font-family="monospace" font-size="13" lengthAdjust="spacing" textLength="140.8799" x="785.47" y="560.2625">in&#160;ONE&#160;transaction</text></g><g class="legend" data-source-line="60"><rect fill="none" height="139.1875" rx="7.5" ry="7.5" style="stroke:#000000;stroke-width:1;" width="1015.3018" x="10" y="869.0925"/><text fill="#000000" font-family="monospace" font-size="14" font-weight="700" lengthAdjust="spacing" textLength="42.1436" x="35.4287" y="901.0876">Color</text><text fill="#000000" font-family="monospace" font-size="14" font-weight="700" lengthAdjust="spacing" textLength="75.8584" x="106.4297" y="901.0876">Component</text><rect fill="#FA8072" height="28.2969" style="stroke:none;stroke-width:1;" width="71.001" x="21" y="910.3894"/><text fill="#000000" font-family="monospace" font-size="14" lengthAdjust="spacing" textLength="8.4287" x="27" y="929.3845">&#160;</text><text fill="#000000" font-family="monospace" font-size="14" lengthAdjust="spacing" textLength="893.4434" x="106.4297" y="929.3845">pgauthzd&#160;(writer)&#160;&#8212;&#160;full&#160;profile;&#160;the&#160;write&#160;front&#160;door;&#160;consults&#160;OPA&#160;for&#160;authz,&#160;applies&#160;the&#160;write&#160;natively</text><rect fill="#ADD8E6" height="28.2969" style="stroke:none;stroke-width:1;" width="71.001" x="21" y="938.6863"/><text fill="#000000" font-family="monospace" font-size="14" lengthAdjust="spacing" textLength="8.4287" x="27" y="957.6814">&#160;</text><text fill="#000000" font-family="monospace" font-size="14" lengthAdjust="spacing" textLength="480.4365" x="106.4297" y="957.6814">OPA&#160;&#8212;&#160;internal&#160;writer-role&#160;policy;&#160;ONLY&#160;pgauthzd&#160;calls&#160;it</text><rect fill="#FFA500" height="28.2969" style="stroke:none;stroke-width:1;" width="71.001" x="21" y="966.9831"/><text fill="#000000" font-family="monospace" font-size="14" lengthAdjust="spacing" textLength="8.4287" x="27" y="985.9782">&#160;</text><text fill="#000000" font-family="monospace" font-size="14" lengthAdjust="spacing" textLength="210.7178" x="106.4297" y="985.9782">PostgreSQL&#160;&#8212;&#160;authz&#160;schema</text><line style="stroke:#000000;stroke-width:1;" x1="21" x2="1014.3018" y1="882.0925" y2="882.0925"/><line style="stroke:#000000;stroke-width:1;" x1="21" x2="1014.3018" y1="910.3894" y2="910.3894"/><line style="stroke:#000000;stroke-width:1;" x1="21" x2="1014.3018" y1="938.6863" y2="938.6863"/><line style="stroke:#000000;stroke-width:1;" x1="21" x2="1014.3018" y1="966.9831" y2="966.9831"/><line style="stroke:#000000;stroke-width:1;" x1="21" x2="1014.3018" y1="995.28" y2="995.28"/><line style="stroke:#000000;stroke-width:1;" x1="21" x2="21" y1="882.0925" y2="995.28"/><line style="stroke:#000000;stroke-width:1;" x1="92.001" x2="92.001" y1="882.0925" y2="995.28"/><line style="stroke:#000000;stroke-width:1;" x1="1014.3018" x2="1014.3018" y1="882.0925" y2="995.28"/></g><?plantuml-src VLLTRY9747wVKrJO5o06hwKa3v2i19XD765m396r4X9gPfgXuwPxrDDZByv6obCE4EKEkKUEiYV9Lpq3pB9HtgQxw-Uhgg---S9lvKvIfeKoKVweJ2QSsD5Qn8-fiuL9HbPRHyzRvMNjFRQxp1ff_DpljIGdOozCgkicYTo8GlktrlYfG8gTDJRFH2oJcf6nYSnbHb-_hbqwOHxvyglwPIQIH9cKleaYhpnoFZX0mhNVvkGjeGxAdDe9juyY4Nk0RWooZ9wLtzh2Bytra4GSopnlaCX9PDdWtEm_R8O7cv7jQ1iBBnE-NffcpZKbmekro6NhO3-A8cC12wVfLKJKRWzwbAMYyDkNfBDnQ0OYF0VeWxkRTXisXsTwaavjbCn3BJy-B4YOX3x-_XSzAK7AvpIx6y0-LucCXGilR1cYEN8MJMa-tDyinlUh-zbaJ9WeSPnmcgz6ay7DRUk2XsLTKcR9Y_Klc1tZnH7ceaWKZW1atGNV6IvB7r2Lo8tmwadgVHSECwFtfn9YeNN0sGKKjks41zWbKiiKVjQGAcDbqeI9dhUd0-kG9qS5iGCzZUzZn8dOb_TT9rDBmHecljkAu74BhgaEiFP88BJZJy8yGrjWkyCrzpG6qtUmRruFGr-gjj37F_uybJ4VBsWo6mqcn2RCBtWeVq6vnKWDHX-OZ4gi3ZMrsySs8JT_ToEKHqm6faGYgV73Od5NiHQZ3uoncH_GhuXDfusYnX56innj2tJR55g3ttQZTCMsB4terLnexDLv0FIV6Lhof5Lb4lHgejAj7-f2Hhz5qO6xrBYpkK-TdFyqMPfgXQeCz6g6PKnHmlIAEexTEsyuCrOC2qITn3wRyePwMAGUtStc2xgiAhXykheC9G0DUj-hKxNLYDZh69G18aJ9FFLIKGsEfKydp36pMiLxkB9rHykDFoK_UYPLv2CsVaLnrCpIz_t0xPTL6NLfiDi7ibIekBBXcVUmHubYaQFGfE2yyaMcPRD5bvzSvAjuA-D7cJHvRFLazGIZimIZ7kPtK9YbMHUvCf2XQj--f4yoBeqoD9kEoMCuEGGA16nKmhEsteFhTeF0eCK0hF5R9mz2gLbIu1rsdnLiKvZWpvJahPYFHpz3GjxHzVZjpNHytwT3Qt8o4Wf5gVG4vcXMYnG0VDuAGdKCgNQx8XXKOWAKIhDKZ8WrdBD19VQq4u-LgeGmM2m1w2h6Bh4Qmu7VZgs8jyp4e7evwk6tKylOs88TDjrt2NgEpcqjk5sE1EBZ85Yb3C1HETYZ_QK-F0F4FbDn0BMHqES1WHR38BiYY7YjqK8JVYTh-numcxUpw_5aTJsUttm_fN_-ldhTggyz18yFrKYOhGZsuJigVwdXux2o7_Y5lgts-Gs-FnE1K7bT1lerHGvYI8crhe-kc1nY66IODiWK0btyZuuVqny5WX6mE-TK46N7TN--YNtGSFBkNFxLgPvIFZZQIMH2qE10ENPb9s3DVIhR5VqB?></g></svg>