<svg xmlns="http://www.w3.org/2000/svg" xmlns:xlink="http://www.w3.org/1999/xlink" contentStyleType="text/css" data-diagram-type="DESCRIPTION" height="919px" preserveAspectRatio="none" style="width:1130px;height:919px;background:#FFFFFF;" version="1.1" viewBox="0 0 1130 919" width="1130px" zoomAndPan="magnify"><?plantuml 1.2026.4?><defs/><g><g class="title" data-source-line="10"><text fill="#000000" font-family="monospace" font-size="22" font-weight="700" lengthAdjust="spacing" textLength="635.7656" x="246.126" y="41.4209">Read&#160;scaling&#160;with&#160;replicas&#160;(pgauthzd&#160;front&#160;door)</text></g><rect fill="#FFFFCC" height="16.6406" rx="2.5" ry="2.5" style="stroke:#FFDD88;stroke-width:3;" width="1082.14" x="21.4388" y="66.6094"/><text fill="#000000" font-family="monospace" font-size="10" lengthAdjust="spacing" textLength="295.0049" x="28.4388" y="77.25">Please&#160;use&#160;CSS&#160;style&#160;instead&#160;of&#160;skinparam&#160;padding</text><!--cluster vm1--><g class="cluster" data-qualified-name="vm1" data-source-line="16" id="ent0003"><polygon fill="#FFFFFF" points="604.5788,386.84,614.5788,376.84,1091.5788,376.84,1091.5788,678.03,1081.5788,688.03,604.5788,688.03,604.5788,386.84" style="stroke:#000000;stroke-width:1;stroke-linejoin:miter;stroke-miterlimit:10;"/><line style="stroke:#000000;stroke-width:1;" x1="1081.5788" x2="1091.5788" y1="386.84" y2="376.84"/><line style="stroke:#000000;stroke-width:1;" x1="604.5788" x2="1081.5788" y1="386.84" y2="386.84"/><line style="stroke:#000000;stroke-width:1;" x1="1081.5788" x2="1081.5788" y1="386.84" y2="688.03"/><text fill="#000000" font-family="monospace" font-size="14" font-weight="700" lengthAdjust="spacing" textLength="92.7158" x="797.7209" y="408.8351">VM&#160;1&#160;(read)</text></g><!--cluster vm2--><g class="cluster" data-qualified-name="vm2" data-source-line="22" id="ent0007"><polygon fill="#FFFFFF" points="224.5788,386.84,234.5788,376.84,580.5788,376.84,580.5788,678.03,570.5788,688.03,224.5788,688.03,224.5788,386.84" style="stroke:#000000;stroke-width:1;stroke-linejoin:miter;stroke-miterlimit:10;"/><line style="stroke:#000000;stroke-width:1;" x1="570.5788" x2="580.5788" y1="386.84" y2="376.84"/><line style="stroke:#000000;stroke-width:1;" x1="224.5788" x2="570.5788" y1="386.84" y2="386.84"/><line style="stroke:#000000;stroke-width:1;" x1="570.5788" x2="570.5788" y1="386.84" y2="688.03"/><text fill="#000000" font-family="monospace" font-size="14" font-weight="700" lengthAdjust="spacing" textLength="92.7158" x="352.2209" y="408.8351">VM&#160;2&#160;(read)</text></g><!--entity pgd3a--><g class="entity" data-qualified-name="vm1.pgd3a" data-source-line="17" id="ent0004"><rect fill="#98FB98" height="80.8906" rx="2.5" ry="2.5" style="stroke:#000000;stroke-width:1;" width="166.8594" x="620.1488" y="464.84"/><text fill="#000000" font-family="monospace" font-size="14" lengthAdjust="spacing" textLength="67.4297" x="636.1488" y="493.8351">pgauthzd</text><text fill="#000000" font-family="monospace" font-size="14" lengthAdjust="spacing" textLength="134.8594" x="636.1488" y="510.132">(decision-only&#160;/</text><text fill="#000000" font-family="monospace" font-size="14" lengthAdjust="spacing" textLength="92.7158" x="636.1488" y="526.4289">compat-opa)</text></g><!--entity opa3a--><g class="entity" data-qualified-name="vm1.opa3a" data-source-line="18" id="ent0005"><rect fill="#ADD8E6" height="64.5938" rx="2.5" ry="2.5" style="stroke:#000000;stroke-width:1;" width="107.8584" x="967.6488" y="472.99"/><text fill="#000000" font-family="monospace" font-size="14" lengthAdjust="spacing" textLength="25.2861" x="983.6488" y="501.9851">OPA</text><text fill="#000000" font-family="monospace" font-size="14" lengthAdjust="spacing" textLength="75.8584" x="983.6488" y="518.282">(sidecar)</text></g><!--entity pgr3a--><g class="entity" data-qualified-name="vm1.pgr3a" data-source-line="19" id="ent0006"><path d="M620.4388,624.73 C620.4388,614.73 678.5823,614.73 678.5823,614.73 C678.5823,614.73 736.7259,614.73 736.7259,624.73 L736.7259,662.0269 C736.7259,672.0269 678.5823,672.0269 678.5823,672.0269 C678.5823,672.0269 620.4388,672.0269 620.4388,662.0269 L620.4388,624.73" fill="#FFFFE0" style="stroke:#000000;stroke-width:1;"/><path d="M620.4388,624.73 C620.4388,634.73 678.5823,634.73 678.5823,634.73 C678.5823,634.73 736.7259,634.73 736.7259,624.73" fill="none" style="stroke:#000000;stroke-width:1;"/><text fill="#000000" font-family="monospace" font-size="14" lengthAdjust="spacing" textLength="84.2871" x="636.4388" y="657.7251">PG&#160;Replica</text></g><!--entity pgd3b--><g class="entity" data-qualified-name="vm2.pgd3b" data-source-line="23" id="ent0008"><rect fill="#98FB98" height="80.8906" rx="2.5" ry="2.5" style="stroke:#000000;stroke-width:1;" width="166.8594" x="240.1488" y="464.84"/><text fill="#000000" font-family="monospace" font-size="14" lengthAdjust="spacing" textLength="67.4297" x="256.1488" y="493.8351">pgauthzd</text><text fill="#000000" font-family="monospace" font-size="14" lengthAdjust="spacing" textLength="134.8594" x="256.1488" y="510.132">(decision-only&#160;/</text><text fill="#000000" font-family="monospace" font-size="14" lengthAdjust="spacing" textLength="92.7158" x="256.1488" y="526.4289">compat-opa)</text></g><!--entity opa3b--><g class="entity" data-qualified-name="vm2.opa3b" data-source-line="24" id="ent0009"><rect fill="#ADD8E6" height="64.5938" rx="2.5" ry="2.5" style="stroke:#000000;stroke-width:1;" width="107.8584" x="456.6488" y="472.99"/><text fill="#000000" font-family="monospace" font-size="14" lengthAdjust="spacing" textLength="25.2861" x="472.6488" y="501.9851">OPA</text><text fill="#000000" font-family="monospace" font-size="14" lengthAdjust="spacing" textLength="75.8584" x="472.6488" y="518.282">(sidecar)</text></g><!--entity pgr3b--><g class="entity" data-qualified-name="vm2.pgr3b" data-source-line="25" id="ent0010"><path d="M261.4388,624.73 C261.4388,614.73 319.5823,614.73 319.5823,614.73 C319.5823,614.73 377.7259,614.73 377.7259,624.73 L377.7259,662.0269 C377.7259,672.0269 319.5823,672.0269 319.5823,672.0269 C319.5823,672.0269 261.4388,672.0269 261.4388,662.0269 L261.4388,624.73" fill="#FFFFE0" style="stroke:#000000;stroke-width:1;"/><path d="M261.4388,624.73 C261.4388,634.73 319.5823,634.73 319.5823,634.73 C319.5823,634.73 377.7259,634.73 377.7259,624.73" fill="none" style="stroke:#000000;stroke-width:1;"/><text fill="#000000" font-family="monospace" font-size="14" lengthAdjust="spacing" textLength="84.2871" x="277.4388" y="657.7251">PG&#160;Replica</text></g><!--entity app3--><g class="entity" data-qualified-name="app3" data-source-line="12" id="ent0001"><ellipse cx="136.5867" cy="99.25" fill="#FFFFFF" rx="8" ry="8" style="stroke:#000000;stroke-width:1;"/><path d="M136.5867,107.25 L136.5867,134.25 M123.5867,115.25 L149.5867,115.25 M136.5867,134.25 L123.5867,149.25 M136.5867,134.25 L149.5867,149.25" fill="none" style="stroke:#000000;stroke-width:1;"/><text fill="#000000" font-family="monospace" font-size="14" lengthAdjust="spacing" textLength="92.7158" x="90.2288" y="170.2451">Application</text></g><!--entity lb--><g class="entity" data-qualified-name="lb" data-source-line="14" id="ent0002"><rect fill="#DDA0DD" height="48.2969" rx="2.5" ry="2.5" style="stroke:#000000;stroke-width:1;" width="141.5732" x="252.7988" y="248.55"/><text fill="#000000" font-family="monospace" font-size="14" lengthAdjust="spacing" textLength="109.5732" x="268.7988" y="277.5451">Load&#160;Balancer</text></g><!--entity pgp3--><g class="entity" data-qualified-name="pgp3" data-source-line="28" id="ent0011"><path d="M24.4388,624.73 C24.4388,614.73 82.5823,614.73 82.5823,614.73 C82.5823,614.73 140.7259,614.73 140.7259,624.73 L140.7259,662.0269 C140.7259,672.0269 82.5823,672.0269 82.5823,672.0269 C82.5823,672.0269 24.4388,672.0269 24.4388,662.0269 L24.4388,624.73" fill="#FFA500" style="stroke:#000000;stroke-width:1;"/><path d="M24.4388,624.73 C24.4388,634.73 82.5823,634.73 82.5823,634.73 C82.5823,634.73 140.7259,634.73 140.7259,624.73" fill="none" style="stroke:#000000;stroke-width:1;"/><text fill="#000000" font-family="monospace" font-size="14" lengthAdjust="spacing" textLength="84.2871" x="40.4388" y="657.7251">PG&#160;Primary</text></g><!--link app3 to lb--><g class="link" data-entity-1="ent0001" data-entity-2="ent0002" data-link-type="dependency" data-source-line="34" id="lnk12"><path d="M189.1688,174.09 C221.8988,197.86 258.9227,224.7424 286.9927,245.1224" fill="none" id="app3-to-lb" style="stroke:#000000;stroke-width:1;"/><polygon fill="#000000" points="291.0388,248.06,286.106,239.5355,286.9927,245.1224,281.4058,246.0092,291.0388,248.06" style="stroke:#000000;stroke-width:1;stroke-linejoin:miter;stroke-miterlimit:10;"/><text fill="#000000" font-family="monospace" font-size="13" lengthAdjust="spacing" textLength="93.9199" x="270.0988" y="218.6169">authz&#160;checks</text></g><!--link lb to pgd3a--><g class="link" data-entity-1="ent0002" data-entity-2="ent0004" data-link-type="dependency" data-source-line="35" id="lnk13"><path d="M394.8288,289.36 C449.9988,303.83 526.5588,329.17 584.5788,368.84 C622.0488,394.46 652.3088,430.4657 674.0588,460.3857" fill="none" id="lb-to-pgd3a" style="stroke:#000000;stroke-width:1;"/><polygon fill="#000000" points="676.9988,464.43,674.9423,454.7982,674.0588,460.3857,668.4714,459.5022,676.9988,464.43" style="stroke:#000000;stroke-width:1;stroke-linejoin:miter;stroke-miterlimit:10;"/><text fill="#000000" font-family="monospace" font-size="13" lengthAdjust="spacing" textLength="156.5332" x="579.0888" y="343.4069">AuthZEN&#160;+&#160;native&#160;API</text></g><!--link lb to pgd3b--><g class="link" data-entity-1="ent0002" data-entity-2="ent0008" data-link-type="dependency" data-source-line="36" id="lnk14"><path d="M323.5788,297.07 C323.5788,336.46 323.5788,411.46 323.5788,459.72" fill="none" id="lb-to-pgd3b" style="stroke:#000000;stroke-width:1;"/><polygon fill="#000000" points="323.5788,464.72,327.5788,455.72,323.5788,459.72,319.5788,455.72,323.5788,464.72" style="stroke:#000000;stroke-width:1;stroke-linejoin:miter;stroke-miterlimit:10;"/></g><!--link pgd3a to opa3a--><g class="link" data-entity-1="ent0004" data-entity-2="ent0005" data-link-type="dependency" data-source-line="37" id="lnk15"><path d="M787.3188,531.88 C796.8588,534.1 806.4988,535.98 815.8288,537.29 C842.8988,541.07 911.9588,542.3 938.8288,537.29 C948.2188,535.54 953.1924,534.3914 962.4924,531.1814" fill="none" id="pgd3a-to-opa3a" style="stroke:#000000;stroke-width:1;"/><polygon fill="#000000" points="967.2188,529.55,957.4062,528.7054,962.4924,531.1814,960.0164,536.2676,967.2188,529.55" style="stroke:#000000;stroke-width:1;stroke-linejoin:miter;stroke-miterlimit:10;"/><text fill="#000000" font-family="monospace" font-size="13" lengthAdjust="spacing" textLength="109.5732" x="822.8288" y="527.3569">consult&#160;policy</text></g><!--reverse link pgd3a to opa3a--><g class="link" data-entity-1="ent0004" data-entity-2="ent0005" data-link-type="dependency" data-source-line="38" id="lnk17"><path d="M792.1288,505.29 C849.1788,505.29 918.0888,505.29 967.5388,505.29" fill="none" id="pgd3a-backto-opa3a" style="stroke:#000000;stroke-width:1;"/><polygon fill="#000000" points="787.1288,505.29,796.1288,509.29,792.1288,505.29,796.1288,501.29,787.1288,505.29" style="stroke:#000000;stroke-width:1;stroke-linejoin:miter;stroke-miterlimit:10;"/><text fill="#000000" font-family="monospace" font-size="13" lengthAdjust="spacing" textLength="117.3999" x="818.8288" y="492.3569">native&#160;callback</text></g><!--link pgd3b to opa3b--><g class="link" data-entity-1="ent0008" data-entity-2="ent0009" data-link-type="dependency" data-source-line="39" id="lnk18"><path d="M407.2188,535.28 C423.6388,536.41 435.2359,536.0488 451.6559,531.5588" fill="none" id="pgd3b-to-opa3b" style="stroke:#000000;stroke-width:1;"/><polygon fill="#000000" points="456.4788,530.24,446.7424,528.7555,451.6559,531.5588,448.8526,536.4722,456.4788,530.24" style="stroke:#000000;stroke-width:1;stroke-linejoin:miter;stroke-miterlimit:10;"/></g><!--reverse link pgd3b to opa3b--><g class="link" data-entity-1="ent0008" data-entity-2="ent0009" data-link-type="dependency" data-source-line="40" id="lnk20"><path d="M412.2072,474.9497 C428.6272,473.8297 440.0588,475.85 456.4788,480.34" fill="none" id="pgd3b-backto-opa3b" style="stroke:#000000;stroke-width:1;"/><polygon fill="#000000" points="407.2188,475.29,416.4701,478.6683,412.2072,474.9497,415.9257,470.6868,407.2188,475.29" style="stroke:#000000;stroke-width:1;stroke-linejoin:miter;stroke-miterlimit:10;"/></g><!--link pgd3a to pgr3a--><g class="link" data-entity-1="ent0004" data-entity-2="ent0006" data-link-type="dependency" data-source-line="41" id="lnk21"><path d="M696.2888,546.02 C692.2488,567.99 688.2307,589.832 684.6107,609.572" fill="none" id="pgd3a-to-pgr3a" style="stroke:#000000;stroke-width:1;"/><polygon fill="#000000" points="683.7088,614.49,689.2666,606.3591,684.6107,609.572,681.3978,604.9161,683.7088,614.49" style="stroke:#000000;stroke-width:1;stroke-linejoin:miter;stroke-miterlimit:10;"/><text fill="#000000" font-family="monospace" font-size="13" lengthAdjust="spacing" textLength="70.4399" x="699.5788" y="584.7969">SQL&#160;(pgx)</text></g><!--link pgd3b to pgr3b--><g class="link" data-entity-1="ent0008" data-entity-2="ent0010" data-link-type="dependency" data-source-line="42" id="lnk22"><path d="M322.4188,546.02 C321.7688,567.99 321.1256,589.7522 320.5456,609.4922" fill="none" id="pgd3b-to-pgr3b" style="stroke:#000000;stroke-width:1;"/><polygon fill="#000000" points="320.3988,614.49,324.6614,605.6114,320.5456,609.4922,316.6648,605.3764,320.3988,614.49" style="stroke:#000000;stroke-width:1;stroke-linejoin:miter;stroke-miterlimit:10;"/></g><!--link app3 to pgp3--><g class="link" data-entity-1="ent0001" data-entity-2="ent0011" data-link-type="dependency" data-source-line="47" id="lnk23"><path d="M131.8888,179.96 C121.0388,281.64 95.0488,525.4182 86.1088,609.2782" fill="none" id="app3-to-pgp3" style="stroke:#000000;stroke-width:1;"/><polygon fill="#000000" points="85.5788,614.25,90.5103,605.7247,86.1088,609.2782,82.5554,604.8767,85.5788,614.25" style="stroke:#000000;stroke-width:1;stroke-linejoin:miter;stroke-miterlimit:10;"/><text fill="#000000" font-family="monospace" font-size="13" lengthAdjust="spacing" textLength="125.2266" x="123.9788" y="335.9069">writes&#160;&#8594;&#160;primary</text><text fill="#000000" font-family="monospace" font-size="13" lengthAdjust="spacing" textLength="117.3999" x="127.8921" y="351.0397">(see&#160;write-api)</text></g><!--link pgp3 to pgr3a--><g class="link" data-entity-1="ent0011" data-entity-2="ent0006" data-link-type="dependency" data-source-line="50" id="lnk24"><path d="M97.7688,614.38 C107.6588,598.79 122.1588,581.01 140.5788,572.26 C167.8788,559.29 178.4088,570.56 208.5788,572.26 C376.4888,581.71 419.8988,580.64 584.5788,614.73 C596.1888,617.14 603.6287,618.9503 615.2887,622.3503" fill="none" id="pgp3-to-pgr3a" style="stroke:#000000;stroke-width:1;"/><polygon fill="#000000" points="620.0888,623.75,612.5684,617.3905,615.2887,622.3503,610.3289,625.0706,620.0888,623.75" style="stroke:#000000;stroke-width:1;stroke-linejoin:miter;stroke-miterlimit:10;"/><text fill="#000000" font-family="monospace" font-size="13" lengthAdjust="spacing" textLength="23.48" x="163.2321" y="584.7969">WAL</text></g><!--link pgp3 to pgr3b--><g class="link" data-entity-1="ent0011" data-entity-2="ent0010" data-link-type="dependency" data-source-line="51" id="lnk25"><path d="M141.1688,643.38 C177.7688,643.38 219.7088,643.38 256.2588,643.38" fill="none" id="pgp3-to-pgr3b" style="stroke:#000000;stroke-width:1;"/><polygon fill="#000000" points="261.2588,643.38,252.2588,639.38,256.2588,643.38,252.2588,647.38,261.2588,643.38" style="stroke:#000000;stroke-width:1;stroke-linejoin:miter;stroke-miterlimit:10;"/><text fill="#000000" font-family="monospace" font-size="13" lengthAdjust="spacing" textLength="23.48" x="189.7321" y="630.4469">WAL</text></g><g class="legend" data-source-line="53"><rect fill="none" height="195.7813" rx="7.5" ry="7.5" style="stroke:#000000;stroke-width:1;" width="1108.0176" x="10" y="712.03"/><text fill="#000000" font-family="monospace" font-size="14" font-weight="700" lengthAdjust="spacing" textLength="42.1436" x="35.4287" y="744.0251">Color</text><text fill="#000000" font-family="monospace" font-size="14" font-weight="700" lengthAdjust="spacing" textLength="75.8584" x="106.4297" y="744.0251">Component</text><rect fill="#98FB98" height="28.2969" style="stroke:none;stroke-width:1;" width="71.001" x="21" y="753.3269"/><text fill="#000000" font-family="monospace" font-size="14" lengthAdjust="spacing" textLength="8.4287" x="27" y="772.322">&#160;</text><text fill="#000000" font-family="monospace" font-size="14" lengthAdjust="spacing" textLength="986.1592" x="106.4297" y="772.322">pgauthzd&#160;(reader)&#160;&#8212;&#160;the&#160;front&#160;door;&#160;AuthZEN&#160;+&#160;native&#160;API;&#160;consults&#160;OPA&#160;(compat-opa)&#160;or&#160;answers&#160;direct&#160;(decision-only)</text><rect fill="#ADD8E6" height="28.2969" style="stroke:none;stroke-width:1;" width="71.001" x="21" y="781.6238"/><text fill="#000000" font-family="monospace" font-size="14" lengthAdjust="spacing" textLength="8.4287" x="27" y="800.6189">&#160;</text><text fill="#000000" font-family="monospace" font-size="14" lengthAdjust="spacing" textLength="488.8652" x="106.4297" y="800.6189">OPA&#160;&#8212;&#160;internal&#160;Rego&#160;policy&#160;sidecar;&#160;ONLY&#160;pgauthzd&#160;calls&#160;it</text><rect fill="#FFA500" height="28.2969" style="stroke:none;stroke-width:1;" width="71.001" x="21" y="809.9206"/><text fill="#000000" font-family="monospace" font-size="14" lengthAdjust="spacing" textLength="8.4287" x="27" y="828.9157">&#160;</text><text fill="#000000" font-family="monospace" font-size="14" lengthAdjust="spacing" textLength="497.2939" x="106.4297" y="828.9157">PostgreSQL&#160;primary&#160;&#8212;&#160;read-write&#160;(write&#160;path:&#160;see&#160;write-api)</text><rect fill="#FFFFE0" height="28.2969" style="stroke:none;stroke-width:1;" width="71.001" x="21" y="838.2175"/><text fill="#000000" font-family="monospace" font-size="14" lengthAdjust="spacing" textLength="8.4287" x="27" y="857.2126">&#160;</text><text fill="#000000" font-family="monospace" font-size="14" lengthAdjust="spacing" textLength="303.4336" x="106.4297" y="857.2126">PostgreSQL&#160;replica&#160;&#8212;&#160;read-only&#160;(WAL)</text><rect fill="#DDA0DD" height="28.2969" style="stroke:none;stroke-width:1;" width="71.001" x="21" y="866.5144"/><text fill="#000000" font-family="monospace" font-size="14" lengthAdjust="spacing" textLength="8.4287" x="27" y="885.5095">&#160;</text><text fill="#000000" font-family="monospace" font-size="14" lengthAdjust="spacing" textLength="278.1475" x="106.4297" y="885.5095">Load&#160;Balancer&#160;&#8212;&#160;distributes&#160;reads</text><line style="stroke:#000000;stroke-width:1;" x1="21" x2="1107.0176" y1="725.03" y2="725.03"/><line style="stroke:#000000;stroke-width:1;" x1="21" x2="1107.0176" y1="753.3269" y2="753.3269"/><line style="stroke:#000000;stroke-width:1;" x1="21" x2="1107.0176" y1="781.6238" y2="781.6238"/><line style="stroke:#000000;stroke-width:1;" x1="21" x2="1107.0176" y1="809.9206" y2="809.9206"/><line style="stroke:#000000;stroke-width:1;" x1="21" x2="1107.0176" y1="838.2175" y2="838.2175"/><line style="stroke:#000000;stroke-width:1;" x1="21" x2="1107.0176" y1="866.5144" y2="866.5144"/><line style="stroke:#000000;stroke-width:1;" x1="21" x2="1107.0176" y1="894.8113" y2="894.8113"/><line style="stroke:#000000;stroke-width:1;" x1="21" x2="21" y1="725.03" y2="894.8113"/><line style="stroke:#000000;stroke-width:1;" x1="92.001" x2="92.001" y1="725.03" y2="894.8113"/><line style="stroke:#000000;stroke-width:1;" x1="1107.0176" x2="1107.0176" y1="725.03" y2="894.8113"/></g><?plantuml-src fLLDRzms4BtpLqmtX-oYLjh4RGzn6s3Tf460hRrrW0OfSg6aMObOBacGL3PkKo2d_82Ylp2_f3Ea94jsBa5zyf8pRpxutjDNiSK3WjDI6H7soZZfvG5AMUqRRpjJ_sorzN1iLSJ9VMKFpXeqyMMyrWWUgoXDewSXDUvaf-ClriGBIIKErjZWP8Nr9CZO6WCw-FxRoQ6NPi-7tqqFdQnhPHhuGOYe8jMyGbb3gAJcqwEABNNXjAfaWALhP1VRFslOUIeFjRL-9OIi8esoMBiK5fKr2w1ewTof4ED4iDXOGZwNMfeAVGhH9TpRwkuW13SCYzz_XOUmzDJ1Ajs_FJo4lmJGtmHcQEADMTPOgK3r2clqDNppnd2OZ8LrCWEufZwLL4DgVEuHpMsio-sQO88Y8Ebp2kLooaOrRJpN7QQKMaPPoa0jRf_JXjAWVG4_Hhz6hUrH_3sPvj5ycaV_VvhoowSflsYQyiuqi_2jLmVfh_jmTmhtBebN3GfnFrE7EcxXquT_OIIB2a1gWCkBpUi9SSuIoH1K1Dj5M2QggHY0fY2iOGem-2v2j82oOYfIXPwF3-1516d24Ns0Mh5MQ6rKu93ADLwwbe3cQrq1KRMo9f24KYdOqS4LDXQS9THhM4wsVWRfAOP928rQrYdlXBLB7UK3rZKeGsqEiVS36DB2MmIjGaI3FbKQEtiWM1zGrFPeYYUiXCUmIAbGjLZjmqBGsN2TUKmHQuhuuza5V3sWhxSlxaIM8iSNdX-I3ZEdARsVl9zr8V95eN4NfrLwR9wD9rk8pBmPNYaojwR9O-6n6Py1N_wsOVTujngX9X4bS-UL9oSCGEz0I-GjkKoqH2N-lRDL5w15ZqoegsVhfuDBdK38AKV6I0GaG0hQeul9YOXDxAA0TOF4EqIGlcBhhMBdiKXvXNGgFL5hZqnAoaT3lzbOYKKITftMXVDsfmXf97VAzITCA-xKIuywDqrLA-kmPYCSZ16UdeEt6bUtdZyfYVPqp5luzF6VONuMDFQZSOkqmQIq4LAatF5fnfK3l5fl01QVkIzdzq9ZWwQ6qiP8sk7d99Tu_nFaJrJwPx2Oztm3FzvOq1FwEUuYUHsIPiStcwZzSymzcqjnAZrUw5pSTvGyD3EQ6pV3E5oUn8ZUI3tJTcygPzcBnhwpXjNDUDdI66vhGsmyCd-dXEH1Cst8k4RMFORvKyqxp8Pw2xJtiXlGP3XBUfgRRFv2Sjhi-vaoQh8MhygEESFPWNBuAVEBYly0?></g></svg>