<svg xmlns="http://www.w3.org/2000/svg" xmlns:xlink="http://www.w3.org/1999/xlink" contentStyleType="text/css" data-diagram-type="DESCRIPTION" height="933px" preserveAspectRatio="none" style="width:1416px;height:933px;background:#FFFFFF;" version="1.1" viewBox="0 0 1416 933" width="1416px" zoomAndPan="magnify"><?plantuml 1.2026.4?><defs/><g><g class="title" data-source-line="10"><text fill="#000000" font-family="monospace" font-size="22" font-weight="700" lengthAdjust="spacing" textLength="582.7852" x="415.6074" y="41.4209">Full&#160;Architecture&#160;(read&#160;scaling&#160;+&#160;write&#160;API)</text></g><rect fill="#FFFFCC" height="16.6406" rx="2.5" ry="2.5" style="stroke:#FFDD88;stroke-width:3;" width="1395" x="8" y="66.6094"/><text fill="#000000" font-family="monospace" font-size="10" lengthAdjust="spacing" textLength="295.0049" x="15" y="77.25">Please&#160;use&#160;CSS&#160;style&#160;instead&#160;of&#160;skinparam&#160;padding</text><!--cluster vm1--><g class="cluster" data-qualified-name="vm1" data-source-line="16" id="ent0003"><polygon fill="#FFFFFF" points="524,371.84,534,361.84,1011,361.84,1011,663.03,1001,673.03,524,673.03,524,371.84" style="stroke:#000000;stroke-width:1;stroke-linejoin:miter;stroke-miterlimit:10;"/><line style="stroke:#000000;stroke-width:1;" x1="1001" x2="1011" y1="371.84" y2="361.84"/><line style="stroke:#000000;stroke-width:1;" x1="524" x2="1001" y1="371.84" y2="371.84"/><line style="stroke:#000000;stroke-width:1;" x1="1001" x2="1001" y1="371.84" y2="673.03"/><text fill="#000000" font-family="monospace" font-size="14" font-weight="700" lengthAdjust="spacing" textLength="92.7158" x="717.1421" y="393.8351">VM&#160;1&#160;(read)</text></g><!--cluster vm2--><g class="cluster" data-qualified-name="vm2" data-source-line="22" id="ent0007"><polygon fill="#FFFFFF" points="1035,371.84,1045,361.84,1391,361.84,1391,663.03,1381,673.03,1035,673.03,1035,371.84" style="stroke:#000000;stroke-width:1;stroke-linejoin:miter;stroke-miterlimit:10;"/><line style="stroke:#000000;stroke-width:1;" x1="1381" x2="1391" y1="371.84" y2="361.84"/><line style="stroke:#000000;stroke-width:1;" x1="1035" x2="1381" y1="371.84" y2="371.84"/><line style="stroke:#000000;stroke-width:1;" x1="1381" x2="1381" y1="371.84" y2="673.03"/><text fill="#000000" font-family="monospace" font-size="14" font-weight="700" lengthAdjust="spacing" textLength="92.7158" x="1162.6421" y="393.8351">VM&#160;2&#160;(read)</text></g><!--cluster vm0--><g class="cluster" data-qualified-name="vm0" data-source-line="28" id="ent0011"><polygon fill="#FFFFFF" points="21,379.99,31,369.99,500,369.99,500,663.03,490,673.03,21,673.03,21,379.99" style="stroke:#000000;stroke-width:1;stroke-linejoin:miter;stroke-miterlimit:10;"/><line style="stroke:#000000;stroke-width:1;" x1="490" x2="500" y1="379.99" y2="369.99"/><line style="stroke:#000000;stroke-width:1;" x1="21" x2="490" y1="379.99" y2="379.99"/><line style="stroke:#000000;stroke-width:1;" x1="490" x2="490" y1="379.99" y2="673.03"/><text fill="#000000" font-family="monospace" font-size="14" font-weight="700" lengthAdjust="spacing" textLength="118.002" x="197.499" y="401.9851">VM&#160;0&#160;(primary)</text></g><!--entity pgd_a--><g class="entity" data-qualified-name="vm1.pgd_a" data-source-line="17" id="ent0004"><rect fill="#98FB98" height="80.8906" rx="2.5" ry="2.5" style="stroke:#000000;stroke-width:1;" width="166.8594" x="539.57" y="449.84"/><text fill="#000000" font-family="monospace" font-size="14" lengthAdjust="spacing" textLength="67.4297" x="555.57" y="478.8351">pgauthzd</text><text fill="#000000" font-family="monospace" font-size="14" lengthAdjust="spacing" textLength="134.8594" x="555.57" y="495.132">(decision-only&#160;/</text><text fill="#000000" font-family="monospace" font-size="14" lengthAdjust="spacing" textLength="92.7158" x="555.57" y="511.4289">compat-opa)</text></g><!--entity opa_a--><g class="entity" data-qualified-name="vm1.opa_a" data-source-line="18" id="ent0005"><rect fill="#ADD8E6" height="64.5938" rx="2.5" ry="2.5" style="stroke:#000000;stroke-width:1;" width="107.8584" x="887.07" y="457.99"/><text fill="#000000" font-family="monospace" font-size="14" lengthAdjust="spacing" textLength="25.2861" x="903.07" y="486.9851">OPA</text><text fill="#000000" font-family="monospace" font-size="14" lengthAdjust="spacing" textLength="75.8584" x="903.07" y="503.282">(sidecar)</text></g><!--entity pgr_a--><g class="entity" data-qualified-name="vm1.pgr_a" data-source-line="19" id="ent0006"><path d="M560.86,609.73 C560.86,599.73 619.0036,599.73 619.0036,599.73 C619.0036,599.73 677.1471,599.73 677.1471,609.73 L677.1471,647.0269 C677.1471,657.0269 619.0036,657.0269 619.0036,657.0269 C619.0036,657.0269 560.86,657.0269 560.86,647.0269 L560.86,609.73" fill="#FFFFE0" style="stroke:#000000;stroke-width:1;"/><path d="M560.86,609.73 C560.86,619.73 619.0036,619.73 619.0036,619.73 C619.0036,619.73 677.1471,619.73 677.1471,609.73" fill="none" style="stroke:#000000;stroke-width:1;"/><text fill="#000000" font-family="monospace" font-size="14" lengthAdjust="spacing" textLength="84.2871" x="576.86" y="642.7251">PG&#160;Replica</text></g><!--entity pgd_b--><g class="entity" data-qualified-name="vm2.pgd_b" data-source-line="23" id="ent0008"><rect fill="#98FB98" height="80.8906" rx="2.5" ry="2.5" style="stroke:#000000;stroke-width:1;" width="166.8594" x="1050.57" y="449.84"/><text fill="#000000" font-family="monospace" font-size="14" lengthAdjust="spacing" textLength="67.4297" x="1066.57" y="478.8351">pgauthzd</text><text fill="#000000" font-family="monospace" font-size="14" lengthAdjust="spacing" textLength="134.8594" x="1066.57" y="495.132">(decision-only&#160;/</text><text fill="#000000" font-family="monospace" font-size="14" lengthAdjust="spacing" textLength="92.7158" x="1066.57" y="511.4289">compat-opa)</text></g><!--entity opa_b--><g class="entity" data-qualified-name="vm2.opa_b" data-source-line="24" id="ent0009"><rect fill="#ADD8E6" height="64.5938" rx="2.5" ry="2.5" style="stroke:#000000;stroke-width:1;" width="107.8584" x="1267.07" y="457.99"/><text fill="#000000" font-family="monospace" font-size="14" lengthAdjust="spacing" textLength="25.2861" x="1283.07" y="486.9851">OPA</text><text fill="#000000" font-family="monospace" font-size="14" lengthAdjust="spacing" textLength="75.8584" x="1283.07" y="503.282">(sidecar)</text></g><!--entity pgr_b--><g class="entity" data-qualified-name="vm2.pgr_b" data-source-line="25" id="ent0010"><path d="M1050.86,609.73 C1050.86,599.73 1109.0036,599.73 1109.0036,599.73 C1109.0036,599.73 1167.1471,599.73 1167.1471,609.73 L1167.1471,647.0269 C1167.1471,657.0269 1109.0036,657.0269 1109.0036,657.0269 C1109.0036,657.0269 1050.86,657.0269 1050.86,647.0269 L1050.86,609.73" fill="#FFFFE0" style="stroke:#000000;stroke-width:1;"/><path d="M1050.86,609.73 C1050.86,619.73 1109.0036,619.73 1109.0036,619.73 C1109.0036,619.73 1167.1471,619.73 1167.1471,609.73" fill="none" style="stroke:#000000;stroke-width:1;"/><text fill="#000000" font-family="monospace" font-size="14" lengthAdjust="spacing" textLength="84.2871" x="1066.86" y="642.7251">PG&#160;Replica</text></g><!--entity pgd_w--><g class="entity" data-qualified-name="vm0.pgd_w" data-source-line="29" id="ent0012"><rect fill="#FA8072" height="64.5938" rx="2.5" ry="2.5" style="stroke:#000000;stroke-width:1;" width="158.4307" x="36.78" y="457.99"/><text fill="#000000" font-family="monospace" font-size="14" lengthAdjust="spacing" textLength="67.4297" x="52.78" y="486.9851">pgauthzd</text><text fill="#000000" font-family="monospace" font-size="14" lengthAdjust="spacing" textLength="126.4307" x="52.78" y="503.282">(full&#160;/&#160;writer)</text></g><!--entity opa_w--><g class="entity" data-qualified-name="vm0.opa_w" data-source-line="30" id="ent0013"><rect fill="#ADD8E6" height="64.5938" rx="2.5" ry="2.5" style="stroke:#000000;stroke-width:1;" width="107.8584" x="376.07" y="457.99"/><text fill="#000000" font-family="monospace" font-size="14" lengthAdjust="spacing" textLength="25.2861" x="392.07" y="486.9851">OPA</text><text fill="#000000" font-family="monospace" font-size="14" lengthAdjust="spacing" textLength="75.8584" x="392.07" y="503.282">(sidecar)</text></g><!--entity pgp--><g class="entity" data-qualified-name="vm0.pgp" data-source-line="31" id="ent0014"><path d="M323.86,609.73 C323.86,599.73 382.0036,599.73 382.0036,599.73 C382.0036,599.73 440.1471,599.73 440.1471,609.73 L440.1471,647.0269 C440.1471,657.0269 382.0036,657.0269 382.0036,657.0269 C382.0036,657.0269 323.86,657.0269 323.86,647.0269 L323.86,609.73" fill="#FFA500" style="stroke:#000000;stroke-width:1;"/><path d="M323.86,609.73 C323.86,619.73 382.0036,619.73 382.0036,619.73 C382.0036,619.73 440.1471,619.73 440.1471,609.73" fill="none" style="stroke:#000000;stroke-width:1;"/><text fill="#000000" font-family="monospace" font-size="14" lengthAdjust="spacing" textLength="84.2871" x="339.86" y="642.7251">PG&#160;Primary</text></g><!--entity app--><g class="entity" data-qualified-name="app" data-source-line="12" id="ent0001"><ellipse cx="271.9979" cy="99.25" fill="#FFFFFF" rx="8" ry="8" style="stroke:#000000;stroke-width:1;"/><path d="M271.9979,107.25 L271.9979,134.25 M258.9979,115.25 L284.9979,115.25 M271.9979,134.25 L258.9979,149.25 M271.9979,134.25 L284.9979,149.25" fill="none" style="stroke:#000000;stroke-width:1;"/><text fill="#000000" font-family="monospace" font-size="14" lengthAdjust="spacing" textLength="92.7158" x="225.64" y="170.2451">Application</text></g><!--entity lb--><g class="entity" data-qualified-name="lb" data-source-line="14" id="ent0002"><rect fill="#DDA0DD" height="48.2969" rx="2.5" ry="2.5" style="stroke:#000000;stroke-width:1;" width="141.5732" x="552.21" y="248.55"/><text fill="#000000" font-family="monospace" font-size="14" lengthAdjust="spacing" textLength="109.5732" x="568.21" y="277.5451">Load&#160;Balancer</text></g><!--link app to lb--><g class="link" data-entity-1="ent0001" data-entity-2="ent0002" data-link-type="dependency" data-source-line="38" id="lnk15"><path d="M324.55,156.23 C388.14,180.83 490.3369,220.3658 557.4569,246.3358" fill="none" id="app-to-lb" style="stroke:#000000;stroke-width:1;"/><polygon fill="#000000" points="562.12,248.14,555.1698,241.1619,557.4569,246.3358,552.283,248.6228,562.12,248.14" style="stroke:#000000;stroke-width:1;stroke-linejoin:miter;stroke-miterlimit:10;"/><text fill="#000000" font-family="monospace" font-size="13" lengthAdjust="spacing" textLength="93.9199" x="516.47" y="218.6169">authz&#160;checks</text></g><!--link lb to pgd_a--><g class="link" data-entity-1="ent0002" data-entity-2="ent0004" data-link-type="dependency" data-source-line="39" id="lnk16"><path d="M623,297.18 C623,333.74 623,399.7 623,444.39" fill="none" id="lb-to-pgd_a" style="stroke:#000000;stroke-width:1;"/><polygon fill="#000000" points="623,449.39,627,440.39,623,444.39,619,440.39,623,449.39" style="stroke:#000000;stroke-width:1;stroke-linejoin:miter;stroke-miterlimit:10;"/><text fill="#000000" font-family="monospace" font-size="13" lengthAdjust="spacing" textLength="156.5332" x="630" y="335.9069">AuthZEN&#160;+&#160;native&#160;API</text></g><!--link lb to pgd_b--><g class="link" data-entity-1="ent0002" data-entity-2="ent0008" data-link-type="dependency" data-source-line="40" id="lnk17"><path d="M693.97,274.81 C776.38,279.01 913.92,295.18 1015,353.84 C1054.93,377.02 1085.5287,414.322 1106.6887,445.282" fill="none" id="lb-to-pgd_b" style="stroke:#000000;stroke-width:1;"/><polygon fill="#000000" points="1109.51,449.41,1107.734,439.7226,1106.6887,445.282,1101.1293,444.2367,1109.51,449.41" style="stroke:#000000;stroke-width:1;stroke-linejoin:miter;stroke-miterlimit:10;"/></g><!--link pgd_a to opa_a--><g class="link" data-entity-1="ent0004" data-entity-2="ent0005" data-link-type="dependency" data-source-line="41" id="lnk18"><path d="M706.74,516.88 C716.27,519.1 725.92,520.98 735.25,522.29 C762.32,526.07 831.38,527.3 858.25,522.29 C867.64,520.54 872.6036,519.3914 881.9036,516.1814" fill="none" id="pgd_a-to-opa_a" style="stroke:#000000;stroke-width:1;"/><polygon fill="#000000" points="886.63,514.55,876.8174,513.7054,881.9036,516.1814,879.4276,521.2676,886.63,514.55" style="stroke:#000000;stroke-width:1;stroke-linejoin:miter;stroke-miterlimit:10;"/><text fill="#000000" font-family="monospace" font-size="13" lengthAdjust="spacing" textLength="109.5732" x="742.25" y="512.3569">consult&#160;policy</text></g><!--reverse link pgd_a to opa_a--><g class="link" data-entity-1="ent0004" data-entity-2="ent0005" data-link-type="dependency" data-source-line="42" id="lnk20"><path d="M711.55,490.29 C768.6,490.29 837.51,490.29 886.95,490.29" fill="none" id="pgd_a-backto-opa_a" style="stroke:#000000;stroke-width:1;"/><polygon fill="#000000" points="706.55,490.29,715.55,494.29,711.55,490.29,715.55,486.29,706.55,490.29" style="stroke:#000000;stroke-width:1;stroke-linejoin:miter;stroke-miterlimit:10;"/><text fill="#000000" font-family="monospace" font-size="13" lengthAdjust="spacing" textLength="117.3999" x="738.25" y="477.3569">native&#160;callback</text></g><!--link pgd_b to opa_b--><g class="link" data-entity-1="ent0008" data-entity-2="ent0009" data-link-type="dependency" data-source-line="43" id="lnk21"><path d="M1217.64,520.28 C1234.06,521.41 1245.6571,521.0488 1262.0771,516.5588" fill="none" id="pgd_b-to-opa_b" style="stroke:#000000;stroke-width:1;"/><polygon fill="#000000" points="1266.9,515.24,1257.1637,513.7555,1262.0771,516.5588,1259.2738,521.4722,1266.9,515.24" style="stroke:#000000;stroke-width:1;stroke-linejoin:miter;stroke-miterlimit:10;"/></g><!--reverse link pgd_b to opa_b--><g class="link" data-entity-1="ent0008" data-entity-2="ent0009" data-link-type="dependency" data-source-line="44" id="lnk23"><path d="M1222.6284,459.9497 C1239.0484,458.8297 1250.48,460.85 1266.9,465.34" fill="none" id="pgd_b-backto-opa_b" style="stroke:#000000;stroke-width:1;"/><polygon fill="#000000" points="1217.64,460.29,1226.8913,463.6683,1222.6284,459.9497,1226.3469,455.6868,1217.64,460.29" style="stroke:#000000;stroke-width:1;stroke-linejoin:miter;stroke-miterlimit:10;"/></g><!--link pgd_a to pgr_a--><g class="link" data-entity-1="ent0004" data-entity-2="ent0006" data-link-type="dependency" data-source-line="45" id="lnk24"><path d="M621.83,531.02 C621.19,552.99 620.5468,574.7522 619.9668,594.4922" fill="none" id="pgd_a-to-pgr_a" style="stroke:#000000;stroke-width:1;"/><polygon fill="#000000" points="619.82,599.49,624.0826,590.6114,619.9668,594.4922,616.086,590.3764,619.82,599.49" style="stroke:#000000;stroke-width:1;stroke-linejoin:miter;stroke-miterlimit:10;"/><text fill="#000000" font-family="monospace" font-size="13" lengthAdjust="spacing" textLength="70.4399" x="628.24" y="569.7969">SQL&#160;(pgx)</text></g><!--link pgd_b to pgr_b--><g class="link" data-entity-1="ent0008" data-entity-2="ent0010" data-link-type="dependency" data-source-line="46" id="lnk25"><path d="M1126.7,531.02 C1122.67,552.99 1118.6543,574.8325 1115.0243,594.5725" fill="none" id="pgd_b-to-pgr_b" style="stroke:#000000;stroke-width:1;"/><polygon fill="#000000" points="1114.12,599.49,1119.6818,591.3618,1115.0243,594.5725,1111.8137,589.915,1114.12,599.49" style="stroke:#000000;stroke-width:1;stroke-linejoin:miter;stroke-miterlimit:10;"/></g><!--link app to pgd_w--><g class="link" data-entity-1="ent0001" data-entity-2="ent0012" data-link-type="dependency" data-source-line="51" id="lnk26"><path d="M252.56,179.94 C220.62,252.28 159.8393,389.9659 131.9393,453.1659" fill="none" id="app-to-pgd_w" style="stroke:#000000;stroke-width:1;"/><polygon fill="#000000" points="129.92,457.74,137.214,451.122,131.9393,453.1659,129.8954,447.8912,129.92,457.74" style="stroke:#000000;stroke-width:1;stroke-linejoin:miter;stroke-miterlimit:10;"/><text fill="#000000" font-family="monospace" font-size="13" lengthAdjust="spacing" textLength="46.96" x="275.99" y="269.7569">writes</text><text fill="#000000" font-family="monospace" font-size="13" lengthAdjust="spacing" textLength="140.8799" x="229.03" y="284.8897">(JWT:&#160;writer&#160;role)</text></g><!--link pgd_w to opa_w--><g class="link" data-entity-1="ent0012" data-entity-2="ent0013" data-link-type="dependency" data-source-line="52" id="lnk27"><path d="M195.64,490.29 C251.97,490.29 321,490.29 370.65,490.29" fill="none" id="pgd_w-to-opa_w" style="stroke:#000000;stroke-width:1;"/><polygon fill="#000000" points="375.65,490.29,366.65,486.29,370.65,490.29,366.65,494.29,375.65,490.29" style="stroke:#000000;stroke-width:1;stroke-linejoin:miter;stroke-miterlimit:10;"/><text fill="#000000" font-family="monospace" font-size="13" lengthAdjust="spacing" textLength="117.3999" x="227.14" y="477.3569">authorize&#160;write</text></g><!--reverse link pgd_w to opa_w--><g class="link" data-entity-1="ent0012" data-entity-2="ent0013" data-link-type="dependency" data-source-line="53" id="lnk29"><path d="M200.4364,515.178 C214.9764,518.608 225.24,520.45 239.64,522.29 C280.2,527.45 291.26,528.69 331.64,522.29 C346.19,519.98 361.5,515.87 375.61,511.35" fill="none" id="pgd_w-backto-opa_w" style="stroke:#000000;stroke-width:1;"/><polygon fill="#000000" points="195.57,514.03,203.4112,519.9895,200.4364,515.178,205.248,512.2032,195.57,514.03" style="stroke:#000000;stroke-width:1;stroke-linejoin:miter;stroke-miterlimit:10;"/><text fill="#000000" font-family="monospace" font-size="13" lengthAdjust="spacing" textLength="78.2666" x="246.64" y="512.3569">authorized</text></g><!--link pgd_w to pgp--><g class="link" data-entity-1="ent0012" data-entity-2="ent0014" data-link-type="dependency" data-source-line="54" id="lnk30"><path d="M151.62,522.94 C174.01,541.53 204.21,564.32 234,579.73 C262.17,594.3 290.8475,604.1834 318.8375,612.0734" fill="none" id="pgd_w-to-pgp" style="stroke:#000000;stroke-width:1;"/><polygon fill="#000000" points="323.65,613.43,316.0728,607.1382,318.8375,612.0734,313.9023,614.8381,323.65,613.43" style="stroke:#000000;stroke-width:1;stroke-linejoin:miter;stroke-miterlimit:10;"/><text fill="#000000" font-family="monospace" font-size="13" lengthAdjust="spacing" textLength="180.0132" x="241" y="569.7969">SQL&#160;(pgx,&#160;authz_writer)</text></g><!--link pgp to pgr_a--><g class="link" data-entity-1="ent0014" data-entity-2="ent0006" data-link-type="dependency" data-source-line="57" id="lnk31"><path d="M440.58,628.38 C477.18,628.38 519.13,628.38 555.68,628.38" fill="none" id="pgp-to-pgr_a" style="stroke:#000000;stroke-width:1;"/><polygon fill="#000000" points="560.68,628.38,551.68,624.38,555.68,628.38,551.68,632.38,560.68,628.38" style="stroke:#000000;stroke-width:1;stroke-linejoin:miter;stroke-miterlimit:10;"/><text fill="#000000" font-family="monospace" font-size="13" lengthAdjust="spacing" textLength="23.48" x="489.1533" y="615.4469">WAL</text></g><!--link pgp to pgr_b--><g class="link" data-entity-1="ent0014" data-entity-2="ent0010" data-link-type="dependency" data-source-line="58" id="lnk32"><path d="M397.18,599.38 C407.08,583.79 421.58,566.01 440,557.26 C467.3,544.29 477.8,556 508,557.26 C733.93,566.71 792.93,557.09 1015,599.73 C1026.64,601.97 1034.0874,603.709 1045.7574,607.089" fill="none" id="pgp-to-pgr_b" style="stroke:#000000;stroke-width:1;"/><polygon fill="#000000" points="1050.56,608.48,1043.0281,602.1341,1045.7574,607.089,1040.8025,609.8183,1050.56,608.48" style="stroke:#000000;stroke-width:1;stroke-linejoin:miter;stroke-miterlimit:10;"/><text fill="#000000" font-family="monospace" font-size="13" lengthAdjust="spacing" textLength="23.48" x="462.6533" y="569.7969">WAL</text></g><g class="legend" data-source-line="60"><rect fill="none" height="224.0781" rx="7.5" ry="7.5" style="stroke:#000000;stroke-width:1;" width="1108.0176" x="10" y="697.03"/><text fill="#000000" font-family="monospace" font-size="14" font-weight="700" lengthAdjust="spacing" textLength="42.1436" x="35.4287" y="729.0251">Color</text><text fill="#000000" font-family="monospace" font-size="14" font-weight="700" lengthAdjust="spacing" textLength="75.8584" x="106.4297" y="729.0251">Component</text><rect fill="#98FB98" height="28.2969" style="stroke:none;stroke-width:1;" width="71.001" x="21" y="738.3269"/><text fill="#000000" font-family="monospace" font-size="14" lengthAdjust="spacing" textLength="8.4287" x="27" y="757.322">&#160;</text><text fill="#000000" font-family="monospace" font-size="14" lengthAdjust="spacing" textLength="986.1592" x="106.4297" y="757.322">pgauthzd&#160;(reader)&#160;&#8212;&#160;the&#160;front&#160;door;&#160;AuthZEN&#160;+&#160;native&#160;API;&#160;consults&#160;OPA&#160;(compat-opa)&#160;or&#160;answers&#160;direct&#160;(decision-only)</text><rect fill="#FA8072" height="28.2969" style="stroke:none;stroke-width:1;" width="71.001" x="21" y="766.6238"/><text fill="#000000" font-family="monospace" font-size="14" lengthAdjust="spacing" textLength="8.4287" x="27" y="785.6189">&#160;</text><text fill="#000000" font-family="monospace" font-size="14" lengthAdjust="spacing" textLength="623.7246" x="106.4297" y="785.6189">pgauthzd&#160;(writer)&#160;&#8212;&#160;full&#160;profile;&#160;applies&#160;authorized&#160;writes&#160;to&#160;the&#160;primary</text><rect fill="#ADD8E6" height="28.2969" style="stroke:none;stroke-width:1;" width="71.001" x="21" y="794.9206"/><text fill="#000000" font-family="monospace" font-size="14" lengthAdjust="spacing" textLength="8.4287" x="27" y="813.9157">&#160;</text><text fill="#000000" font-family="monospace" font-size="14" lengthAdjust="spacing" textLength="488.8652" x="106.4297" y="813.9157">OPA&#160;&#8212;&#160;internal&#160;Rego&#160;policy&#160;sidecar;&#160;ONLY&#160;pgauthzd&#160;calls&#160;it</text><rect fill="#FFA500" height="28.2969" style="stroke:none;stroke-width:1;" width="71.001" x="21" y="823.2175"/><text fill="#000000" font-family="monospace" font-size="14" lengthAdjust="spacing" textLength="8.4287" x="27" y="842.2126">&#160;</text><text fill="#000000" font-family="monospace" font-size="14" lengthAdjust="spacing" textLength="261.29" x="106.4297" y="842.2126">PostgreSQL&#160;primary&#160;&#8212;&#160;read-write</text><rect fill="#FFFFE0" height="28.2969" style="stroke:none;stroke-width:1;" width="71.001" x="21" y="851.5144"/><text fill="#000000" font-family="monospace" font-size="14" lengthAdjust="spacing" textLength="8.4287" x="27" y="870.5095">&#160;</text><text fill="#000000" font-family="monospace" font-size="14" lengthAdjust="spacing" textLength="303.4336" x="106.4297" y="870.5095">PostgreSQL&#160;replica&#160;&#8212;&#160;read-only&#160;(WAL)</text><rect fill="#DDA0DD" height="28.2969" style="stroke:none;stroke-width:1;" width="71.001" x="21" y="879.8113"/><text fill="#000000" font-family="monospace" font-size="14" lengthAdjust="spacing" textLength="8.4287" x="27" y="898.8064">&#160;</text><text fill="#000000" font-family="monospace" font-size="14" lengthAdjust="spacing" textLength="278.1475" x="106.4297" y="898.8064">Load&#160;Balancer&#160;&#8212;&#160;distributes&#160;reads</text><line style="stroke:#000000;stroke-width:1;" x1="21" x2="1107.0176" y1="710.03" y2="710.03"/><line style="stroke:#000000;stroke-width:1;" x1="21" x2="1107.0176" y1="738.3269" y2="738.3269"/><line style="stroke:#000000;stroke-width:1;" x1="21" x2="1107.0176" y1="766.6238" y2="766.6238"/><line style="stroke:#000000;stroke-width:1;" x1="21" x2="1107.0176" y1="794.9206" y2="794.9206"/><line style="stroke:#000000;stroke-width:1;" x1="21" x2="1107.0176" y1="823.2175" y2="823.2175"/><line style="stroke:#000000;stroke-width:1;" x1="21" x2="1107.0176" y1="851.5144" y2="851.5144"/><line style="stroke:#000000;stroke-width:1;" x1="21" x2="1107.0176" y1="879.8113" y2="879.8113"/><line style="stroke:#000000;stroke-width:1;" x1="21" x2="1107.0176" y1="908.1081" y2="908.1081"/><line style="stroke:#000000;stroke-width:1;" x1="21" x2="21" y1="710.03" y2="908.1081"/><line style="stroke:#000000;stroke-width:1;" x1="92.001" x2="92.001" y1="710.03" y2="908.1081"/><line style="stroke:#000000;stroke-width:1;" x1="1107.0176" x2="1107.0176" y1="710.03" y2="908.1081"/></g><?plantuml-src fLPjRzis4FxENt5pFjJ6wZGjjdsejmBki1OTlCHhXWKT2XIKU9Q9q2H1qT6Sji1-n7xXVidkI4cMagrOiG06OjtRStVFFV8NSOix16-ajgA-rjRB87TGoFAw2cvlrVVEk03DLaSSs4ktyywYZPVnO102bb7QoWnT56xatiGNpiPpIILsphhQonBLmCawXJLw-Ffiy318UyqFlne-z58fRIluHeYe8zLyiJS6bg5aP6NS1uHfGAcWBgLXno-X2MI2vVhLJ0XPHcfZilJUw596xUm4P0tIUo7wPc2oSfJXkJJIbXYIXodWP6tsEo4OAqn-_GaUvqgpPB_PFORt0kXlaCPNSX-tj-gjdIeiTKtbviwQ0pnwQzbDnhdpCYVmbNedgOOq-38WshkvBjPBIbDhIYH33g5O3bdfQXkVcpsc42MZB6HD4DSluJMcFji2eVT-WyQuHdmSTFDatCsJ_zzDyVdT59_LJV7ltPp1r0Uza-7GDNJsoOOspA97cIhXs4839vVI46N_8_xca_ZN6L6RtSF91L6yGWR-W9eZoj4Cj_3N7tz21mrq3NIQS76-UWERG4S4ohbm2gyYI5it66fGck-Eza3s7NjJjYf8luNndcOFWRXVEblJFTQWwKDjGDi4RCZu6Yi7tj6K3vHaEjXgGYMjWhJn7XxU8AMKngHSYvGmVsNf06sZI_XhEdtAsCKzgC7IzTqW65r7j9ZBisT6pdCx5NIMC5UkiVDdV81FOPB2eTnYULrF13thpFbyo6D97h_zS4vttrQWmx_dMOZiFm-yBNgOJud2s_6qGvY8R9WRtCHXbJOtjygDJaGc_2XV8JAbXy5zuHvCo0alVruHPQlVPtsgWKV11BbACdQV8OcxiuueHuuiQCF7RVDYQ1SSuuA-vMMmUzR6QUOz16UGM486ov9eD39Dsa6QmobC4uXvte92WrNIK2hUvlDeapntwEO93wfvga3PR1deHMFZWj0eUSW0JWFpBhbomTFPQFFv46b6EGVTtOzNlpo58UOyj6Oy_wOZJ6eu--U5DgETZFrKdwilxuSBUfXcUFkkaufyk_thHB1x3wDVBy3LSWKmkMykHcP18wKHGk5Yf6DcbAGZ7xw3_FvD_tGYz84jyErHP9_HroCjMCq9O2BBNMRyqv4incGP7J-L7glDNMdfmMIv72DfHvMG9A7rmMsqmKLFikFqeILAgnkjYFVfUtNb2WoJSvBAOB3I3EMhaxL5biuUJ1OdVPnUrc1EjtPrh0Boehkod9tdcEaxHf7VEdS2GsR2CJ39vPIsUnmH_upWiD6FZ1IXI0o3BlOy08wkAORPa4aX_WO0?></g></svg>